<svg width="21" height="19" viewBox="0 0 21 19" fill="none" xmlns="http://www.w3.org/2000/svg">
<path d="M1.22581 9.53242L1.29687 9.0375L1.22581 9.53242ZM1 9.5L0.928938 9.99492L0.928942 9.00507L1 9.5ZM1.22581 9.46758L1.29687 9.9625L1.29687 9.9625L1.22581 9.46758ZM1.15475 10.0273L0.928938 9.99492L1.07106 9.00508L1.29687 9.0375L1.15475 10.0273ZM0.928942 9.00507L1.15475 8.97265L1.29687 9.9625L1.07106 9.99492L0.928942 9.00507ZM1.15475 8.97266C5.26785 8.38209 8.51891 5.11413 9.13922 0.926731L10.1284 1.07327C9.44472 5.68865 5.8572 9.30773 1.29687 9.9625L1.15475 8.97266ZM9.13922 18.0733C8.51891 13.8859 5.26785 10.6179 1.15475 10.0273L1.29687 9.0375C5.8572 9.69228 9.44472 13.3113 10.1284 17.9267L9.13922 18.0733ZM1.53962 9L21 9L21 10L1.53962 10L1.53962 9Z" fill="#586C52"/>
</svg>
