<svg width="21" height="19" viewBox="0 0 21 19" fill="none" xmlns="http://www.w3.org/2000/svg">
<path d="M19.7742 9.53242L19.7031 9.0375L19.7742 9.53242ZM20 9.5L20.0711 9.99492L20.0711 9.00507L20 9.5ZM19.7742 9.46758L19.7031 9.9625L19.7031 9.9625L19.7742 9.46758ZM19.8453 10.0273L20.0711 9.99492L19.9289 9.00508L19.7031 9.0375L19.8453 10.0273ZM20.0711 9.00507L19.8453 8.97265L19.7031 9.9625L19.9289 9.99492L20.0711 9.00507ZM19.8453 8.97266C15.7322 8.38209 12.4811 5.11413 11.8608 0.926731L10.8716 1.07327C11.5553 5.68865 15.1428 9.30773 19.7031 9.9625L19.8453 8.97266ZM11.8608 18.0733C12.4811 13.8859 15.7322 10.6179 19.8453 10.0273L19.7031 9.0375C15.1428 9.69228 11.5553 13.3113 10.8716 17.9267L11.8608 18.0733ZM19.4604 9L-3.43417e-07 9L-3.99677e-07 10L19.4604 10L19.4604 9Z" fill="#586C52"/>
</svg>
