<svg width="35" height="35" viewBox="0 0 35 35" fill="none" xmlns="http://www.w3.org/2000/svg">
<circle cx="17.5" cy="17.5" r="17.5" fill="#E1F4DB"/>
<path d="M25.5 21.75C25.5 22.6322 24.7718 23.5655 23.2868 24.308C21.8317 25.0356 19.7864 25.5 17.5 25.5C15.2136 25.5 13.1683 25.0356 11.7132 24.308C10.2282 23.5655 9.5 22.6322 9.5 21.75C9.5 20.8678 10.2282 19.9345 11.7132 19.192C13.1683 18.4644 15.2136 18 17.5 18C19.7864 18 21.8317 18.4644 23.2868 19.192C24.7718 19.9345 25.5 20.8678 25.5 21.75Z" fill="#E1F4DB" stroke="#586C52"/>
<path d="M25.5 17.5C25.5 18.3822 24.7718 19.3155 23.2868 20.058C21.8317 20.7856 19.7864 21.25 17.5 21.25C15.2136 21.25 13.1683 20.7856 11.7132 20.058C10.2282 19.3155 9.5 18.3822 9.5 17.5C9.5 16.6178 10.2282 15.6845 11.7132 14.942C13.1683 14.2144 15.2136 13.75 17.5 13.75C19.7864 13.75 21.8317 14.2144 23.2868 14.942C24.7718 15.6845 25.5 16.6178 25.5 17.5Z" fill="#E1F4DB" stroke="#586C52"/>
<path d="M25.5 13.25C25.5 14.1322 24.7718 15.0655 23.2868 15.808C21.8317 16.5356 19.7864 17 17.5 17C15.2136 17 13.1683 16.5356 11.7132 15.808C10.2282 15.0655 9.5 14.1322 9.5 13.25C9.5 12.3678 10.2282 11.4345 11.7132 10.692C13.1683 9.96444 15.2136 9.5 17.5 9.5C19.7864 9.5 21.8317 9.96444 23.2868 10.692C24.7718 11.4345 25.5 12.3678 25.5 13.25Z" fill="#E1F4DB" stroke="#586C52"/>
</svg>
