<svg width="66" height="65" viewBox="0 0 66 65" fill="none" xmlns="http://www.w3.org/2000/svg">
<path fill-rule="evenodd" clip-rule="evenodd" d="M1.62924 64.316L0.5 63.6385C5.45465 61.6789 8.29166 57.2086 11.184 52.6511C11.6981 51.841 12.214 51.0282 12.7438 50.2262C9.05432 47.3687 6.19868 44.1554 5.86476 39.3364C5.50895 34.1597 7.29349 29.6618 9.9466 25.3884C17.9807 29.6016 20.0864 36.5045 16.3257 45.6079C17.1122 45.0613 17.8561 44.4817 18.5839 43.9147C20.1692 42.6795 21.6778 41.5041 23.3837 40.86C26.8944 39.5517 27.4892 37.6102 27.3579 34.052C26.9181 22.8776 31.9634 14.3453 41.3168 8.395C48.528 3.81319 56.5858 1.75493 64.9758 0.683838C67.2712 16.2138 62.0471 28.3043 48.9331 34.386C43.7217 36.8019 37.9849 38.6339 32.3083 39.3364C23.6811 40.4075 18.0045 45.1681 13.1836 51.6658C12.6726 52.3611 12.2274 53.1126 11.7829 53.8629C11.1403 54.9477 10.499 56.0302 9.66194 56.9374C7.29348 59.4956 4.8411 62.0903 2.00917 64.0774C1.88659 64.1636 1.75949 64.2422 1.62924 64.316ZM39.6216 10.8766C34.6822 14.5898 31.1605 19.3377 29.4344 25.3008C28.2684 29.3699 27.8286 33.4992 28.8285 38.1759C43.7162 28.9903 57.3066 19.2081 64.1601 1.82062C54.8542 3.4154 46.6668 5.58132 39.6216 10.8766ZM12.7147 48.1971C6.58552 45.46 4.55098 36.0702 10.1564 27.443C13.2986 29.8698 14.8094 42.0807 12.7147 48.1971Z" fill="#586C52"/>
</svg>
