<svg width="171" height="80" viewBox="0 0 171 80" fill="none" xmlns="http://www.w3.org/2000/svg">
<path d="M55.5228 70.3883H52.9268V64.6367H55.2625C56.3509 64.6367 56.9672 65.2604 56.9672 66.0969C56.9672 66.6806 56.6911 67.1072 56.1697 67.3508C56.9039 67.6352 57.219 68.0534 57.219 68.7477C57.219 69.6939 56.5563 70.3883 55.5228 70.3883ZM55.0803 65.2836H53.6601V67.1137H55.0803C55.8936 67.1137 56.2319 66.7819 56.2319 66.1982C56.2329 65.6145 55.8936 65.2836 55.0803 65.2836ZM55.4521 67.7607H53.661V69.7413H55.4521C56.1464 69.7413 56.4857 69.3073 56.4857 68.7552C56.4848 68.1947 56.1464 67.7607 55.4521 67.7607Z" fill="#586C52"/>
<path d="M59.0664 70.3883V64.6367H63.051V65.2836H59.8007V67.1221H62.933V67.769H59.8007V69.7413H63.1932V70.3883H59.0664Z" fill="#586C52"/>
<path d="M68.7404 70.3883L68.1484 68.6604H65.9316L65.3237 70.3883H64.543L66.5943 64.6367H67.5414L69.5612 70.3883H68.7404ZM67.059 65.4249L66.1119 68.0441H67.942L67.059 65.4249Z" fill="#586C52"/>
<path d="M73.0574 70.5304C71.6929 70.5304 70.8555 69.8045 70.8555 68.6371V64.6367H71.5897V68.6371C71.5897 69.4736 72.1976 69.8835 73.0574 69.8835C73.9803 69.8835 74.5408 69.4104 74.5408 68.6371V64.6367H75.2742V68.6371C75.2742 69.7887 74.407 70.5304 73.0574 70.5304Z" fill="#586C52"/>
<path d="M79.4646 65.2836V70.3883H78.7312V65.2836H76.8379V64.6367H81.3504V65.2836H79.4646Z" fill="#586C52"/>
<path d="M85.4931 68.1319V70.3887H84.7597V68.1319L82.543 64.6362H83.4501L85.139 67.4376L86.7804 64.6362H87.656L85.4931 68.1319Z" fill="#586C52"/>
<path d="M95.6418 70.388L95.1529 69.7727C94.4902 70.4196 94.1667 70.5692 93.504 70.5692C92.5336 70.5692 91.8867 69.9465 91.8867 68.9993C91.8867 68.2818 92.1869 67.8868 93.1647 67.3189C92.6758 66.7036 92.5262 66.4033 92.5262 66.0334C92.5262 65.3391 93.1257 64.7944 93.8748 64.7944C94.624 64.7944 95.1603 65.3075 95.1603 66.0334C95.1603 66.6013 94.8926 66.9406 94.0719 67.4062L95.1213 68.6926C95.2793 68.4082 95.3657 68.0457 95.3657 67.7538H95.9968C95.9968 68.2269 95.8314 68.7484 95.5386 69.1982L96.5015 70.3898H95.6418V70.388ZM93.5114 67.7288C92.7929 68.187 92.5485 68.5021 92.5485 68.9445C92.5485 69.4966 93.0142 69.9548 93.5821 69.9548C93.992 69.9548 94.3321 69.7736 94.7736 69.3079L93.5114 67.7288ZM93.8516 65.3465C93.4417 65.3465 93.1731 65.6142 93.1731 66.025C93.1731 66.3011 93.2447 66.4349 93.7261 66.988C94.3414 66.6013 94.5385 66.3717 94.5385 66.0176C94.5376 65.63 94.2457 65.3465 93.8516 65.3465Z" fill="#586C52"/>
<path d="M103.162 70.5309C101.805 70.5309 100.89 69.8756 100.89 68.5186H101.584C101.584 69.3393 102.12 69.884 103.21 69.884C104.204 69.884 104.677 69.5131 104.677 68.882C104.677 68.4321 104.345 68.1403 103.62 67.9507L102.193 67.5724C101.435 67.3753 101.064 66.9338 101.064 66.2312C101.064 65.1902 101.846 64.4958 103.108 64.4958C104.434 64.4958 105.214 65.1502 105.214 66.2786H104.52C104.52 65.5294 104 65.1112 103.084 65.1112C102.311 65.1112 101.798 65.5452 101.798 66.1289C101.798 66.5704 102.051 66.8 102.745 66.9812L104.189 67.3679C104.971 67.5807 105.412 68.1012 105.412 68.8114C105.411 69.8366 104.621 70.5309 103.162 70.5309Z" fill="#586C52"/>
<path d="M109.822 67.9503H108.016V70.3883H107.282V64.6367H109.657C110.793 64.6367 111.432 65.2446 111.432 66.3256C111.432 67.2792 110.77 67.9503 109.822 67.9503ZM109.546 65.2836H108.016V67.3033H109.546C110.249 67.3033 110.666 66.9251 110.666 66.293C110.666 65.661 110.249 65.2836 109.546 65.2836Z" fill="#586C52"/>
<path d="M116.317 70.3883L115.725 68.6604H113.508L112.9 70.3883H112.119L114.17 64.6367H115.118L117.137 70.3883H116.317ZM114.636 65.4249L113.689 68.0441H115.519L114.636 65.4249Z" fill="#586C52"/>
<path d="M70.6651 79.9994C69.3081 79.9994 68.3926 79.3451 68.3926 77.9881H69.0869C69.0869 78.8088 69.6232 79.3525 70.7125 79.3525C71.707 79.3525 72.1801 78.9816 72.1801 78.3505C72.1801 77.9007 71.8483 77.6088 71.1233 77.4201L69.6948 77.0419C68.9372 76.8448 68.5664 76.4024 68.5664 75.7006C68.5664 74.6596 69.3471 73.9653 70.6094 73.9653C71.9348 73.9653 72.7165 74.6206 72.7165 75.749H72.0221C72.0221 74.9989 71.5016 74.5816 70.5861 74.5816C69.8128 74.5816 69.3007 75.0156 69.3007 75.5993C69.3007 76.0408 69.5535 76.2695 70.2478 76.4517L71.6912 76.8383C72.472 77.0512 72.9144 77.5726 72.9144 78.2827C72.9135 79.3051 72.1253 79.9994 70.6651 79.9994Z" fill="#586C52"/>
<path d="M76.6237 74.7531V79.8577H75.8894V74.7531H73.9961V74.1062H78.5086V74.7531H76.6237Z" fill="#586C52"/>
<path d="M82.3132 79.9999C80.9488 79.9999 80.1113 79.274 80.1113 78.1066V74.1062H80.8456V78.1066C80.8456 78.9431 81.4535 79.353 82.3132 79.353C83.2362 79.353 83.7967 78.8799 83.7967 78.1066V74.1062H84.53V78.1066C84.53 79.2582 83.6628 79.9999 82.3132 79.9999Z" fill="#586C52"/>
<path d="M88.8476 79.8577H86.6309V74.1062H88.8476C90.3078 74.1062 91.1908 75.1946 91.1908 76.9783C91.1908 78.7693 90.2995 79.8577 88.8476 79.8577ZM88.7212 74.7531H87.3642V79.2108H88.7212C89.857 79.2108 90.4565 78.4375 90.4565 76.9857C90.4565 75.5181 89.857 74.7531 88.7212 74.7531Z" fill="#586C52"/>
<path d="M93.2041 79.8577V74.1062H93.9384V79.8577H93.2041Z" fill="#586C52"/>
<path d="M98.4755 80.0003C96.8182 80.0003 95.6982 78.8245 95.6982 77.026C95.6982 75.2275 96.8183 73.9644 98.4681 73.9644C100.156 73.9644 101.253 75.2191 101.253 77.0734C101.253 78.7613 100.163 80.0003 98.4755 80.0003ZM98.4671 74.6113C97.2514 74.6113 96.4316 75.6049 96.4316 77.0251C96.4316 78.4453 97.2523 79.3525 98.4755 79.3525C99.6903 79.3525 100.519 78.4453 100.519 77.0567C100.518 75.6058 99.7135 74.6113 98.4671 74.6113Z" fill="#586C52"/>
<path d="M165.206 67.0515H130.027V68.2635H165.206V67.0515Z" fill="#586C52"/>
<path d="M40.0358 67.0515H4.85742V68.2635H40.0358V67.0515Z" fill="#586C52"/>
<path d="M24.1295 38.5883C23.24 37.8122 22.2083 37.4246 21.0353 37.4246C19.4831 37.4246 17.9932 37.8076 16.5646 38.5744C15.1351 39.3412 13.844 40.3673 12.6896 41.6546C11.5353 42.9419 10.5937 44.3937 9.865 46.0119C9.1363 47.6301 8.69666 49.2902 8.54516 50.9939C6.74664 50.7104 5.37476 50.057 4.42949 49.0355C3.48329 48.014 2.99068 46.7462 2.9535 45.2321C2.93398 43.7747 3.35503 42.2801 4.21664 40.7475C5.07733 39.2148 6.23637 37.7815 7.69377 36.4468C9.15117 35.113 10.7777 33.9967 12.5763 33.097C14.3738 32.1982 16.2002 31.6452 18.0545 31.4361C18.8873 32.307 19.8186 32.9929 20.8504 33.4939C21.8811 33.9958 22.8134 34.2458 23.6462 34.2458C24.6296 34.2458 25.1222 33.9438 25.1222 33.3378C25.1027 32.7513 24.6156 32.1834 23.6601 31.635C22.7046 31.0866 21.2993 30.7176 19.445 30.528C18.9719 29.8086 18.6596 29.0994 18.5081 28.3986C19.8893 28.5882 21.4415 28.6821 23.1638 28.6821C25.8323 28.6821 28.3586 28.4125 30.7426 27.8734C33.1267 27.3343 35.232 26.587 37.0584 25.6306C38.8848 24.6751 40.3227 23.5588 41.3729 22.2808C42.4232 21.0037 42.9484 19.6365 42.9484 18.1791C42.9484 16.23 42.097 14.7113 40.3933 13.6229C38.6905 12.5345 36.3055 11.9907 33.2401 11.9907C31.2715 11.9907 29.2657 12.3318 27.2218 13.0122C25.1779 13.6926 23.2995 14.6778 21.5874 15.9642C19.8744 17.2515 18.5025 18.7888 17.4717 20.5771C16.44 22.3654 15.9344 24.3666 15.953 26.5805C15.953 26.8835 15.9623 27.101 15.9818 27.233C10.7015 26.1539 7.21045 23.675 5.50767 19.7954C5.31806 19.3409 5.11915 19.1141 4.91188 19.1141C4.76038 19.1141 4.68509 19.2275 4.68509 19.4543C4.68509 19.511 4.69439 19.6105 4.71391 19.7527C4.7325 19.8949 4.7799 20.0325 4.85611 20.1644C5.66939 21.9816 7.01341 23.5802 8.88721 24.9614C10.761 26.3426 13.1739 27.3557 16.1259 27.9989C16.3527 28.907 16.7217 29.7119 17.2329 30.4118H17.0628C14.622 30.4118 12.3597 30.7854 10.2786 31.5327C8.19661 32.281 6.37951 33.3071 4.82823 34.613C3.27602 35.9189 2.07515 37.4042 1.22283 39.0698C0.371445 40.7354 -0.0356616 42.4856 0.00244647 44.3212C0.0405545 46.2517 0.815726 47.8978 2.32983 49.2604C3.84392 50.623 5.89712 51.4465 8.48939 51.73V52.5535C8.5275 53.2729 8.60743 54.0955 8.73105 55.0231C8.85374 55.9498 9.03871 56.8207 9.28502 57.6349C9.53039 58.4482 9.8334 59.0542 10.1931 59.452C10.3632 59.6407 10.5008 59.7541 10.6049 59.7931C10.709 59.8312 10.7991 59.8498 10.8744 59.8498C11.1012 59.8498 11.2146 59.7643 11.2146 59.5942C11.2146 59.518 11.1198 59.3767 10.9311 59.1685C10.6095 58.7893 10.3251 58.2223 10.0797 57.4658C9.8334 56.7082 9.64379 55.8903 9.51181 55.0101C9.37889 54.1299 9.3129 53.3398 9.3129 52.64C9.3129 52.4885 9.3129 52.3416 9.3129 52.2003C9.3129 52.0581 9.32219 51.9206 9.34171 51.7886C9.5118 51.7886 9.67725 51.7932 9.83805 51.8025C9.99885 51.8118 10.1736 51.8165 10.3632 51.8165C13.1832 51.8165 15.7327 51.3582 18.0136 50.4399C20.2936 49.5225 22.1061 48.2687 23.4491 46.6784C24.7922 45.089 25.4642 43.31 25.4642 41.3414C25.4633 40.2818 25.0181 39.3644 24.1295 38.5883ZM23.2205 32.1304C24.0719 32.5561 24.5069 32.9297 24.5264 33.2513C24.5264 33.4781 24.3749 33.5915 24.0719 33.5915C23.4287 33.5915 22.7474 33.3879 22.028 32.9808C21.3086 32.5737 20.6561 32.0393 20.0696 31.3766C21.3188 31.4537 22.3691 31.7047 23.2205 32.1304ZM18.3956 27.234C18.3956 25.7961 18.8501 24.2392 19.7582 22.5643C20.6663 20.8894 21.8774 19.3047 23.3915 17.8092C24.9056 16.3146 26.6084 15.0886 28.5008 14.1331C30.3932 13.1777 32.3134 12.6999 34.2635 12.6999C36.629 12.6999 38.4935 13.1498 39.8551 14.0486C41.2177 14.9474 41.899 16.0404 41.899 17.3268C41.899 18.9543 41.307 20.4163 40.1247 21.7129C38.9415 23.0095 37.3902 24.1165 35.469 25.0339C33.5478 25.9522 31.4621 26.6521 29.21 27.1345C26.9579 27.6169 24.7718 27.8586 22.6526 27.8586C21.8951 27.8586 21.1627 27.84 20.4525 27.8019C19.7424 27.7638 19.0565 27.7071 18.3947 27.6318V27.234H18.3956ZM22.8942 43.8677C22.0521 45.0788 20.9498 46.2378 19.5872 47.3448C18.2246 48.4518 16.7486 49.3599 15.1592 50.07C13.5699 50.7792 12.0269 51.1342 10.5324 51.1342C10.3427 51.1342 10.1494 51.1296 9.95051 51.1203C9.75161 51.111 9.55735 51.0971 9.36867 51.0775C9.63357 48.4657 10.405 46.1904 11.6821 44.2506C12.9592 42.3108 14.4538 40.8069 16.1668 39.7371C17.8789 38.6682 19.5212 38.1329 21.092 38.1329C21.962 38.1329 22.6907 38.3457 23.2781 38.7714C23.8646 39.1971 24.1583 39.7985 24.1583 40.5736C24.1574 41.5589 23.7363 42.6575 22.8942 43.8677Z" fill="#586C52"/>
<path d="M150.079 26.8926C150.779 26.8926 151.428 26.6277 152.024 26.0979C152.619 25.5681 152.918 24.9528 152.918 24.2529C152.918 23.7612 152.762 23.3401 152.449 22.9897C152.137 22.6393 151.716 22.4646 151.186 22.4646C150.41 22.4646 149.743 22.7444 149.185 23.302C148.626 23.8607 148.348 24.4704 148.348 25.1331C148.348 25.6443 148.504 26.0653 148.816 26.3962C149.128 26.7271 149.549 26.8926 150.079 26.8926Z" fill="#586C52"/>
<path d="M169.438 40.2338C169.343 40.3286 169.008 40.7589 168.43 41.5257C167.853 42.2925 167.068 43.2099 166.074 44.2788C165.081 45.3486 163.912 46.4036 162.568 47.4436C161.224 48.4846 159.739 49.3555 158.112 50.0554C156.484 50.7562 154.752 51.1057 152.917 51.1057C151.952 51.1057 151.161 50.8074 150.547 50.2116C149.931 49.6158 149.624 48.9103 149.624 48.097C149.624 47.2642 149.812 46.3227 150.192 45.2724C150.57 44.2221 151.28 43.0064 152.321 41.6252C154.554 38.7113 156.555 36.554 158.324 35.1533C160.094 33.7526 161.612 33.0527 162.881 33.0527C163.657 33.0527 164.21 33.2042 164.542 33.5072C164.872 33.8102 165.038 34.2071 165.038 34.6997V34.8131C164.527 34.5863 164.044 34.4822 163.59 34.5008C163.003 34.5203 162.497 34.709 162.071 35.0687C161.645 35.4284 161.442 35.8736 161.46 36.4025C161.479 36.9518 161.683 37.3673 162.071 37.6517C162.459 37.9352 162.87 38.0774 163.306 38.0774C164.044 38.0774 164.74 37.7605 165.393 37.1266C166.045 36.4927 166.353 35.7686 166.316 34.9553C166.296 34.3502 166.036 33.7684 165.535 33.2098C165.033 32.6521 164.148 32.3538 162.881 32.3157C161.215 32.259 159.233 32.7088 156.934 33.6643C154.634 34.6198 152.453 36.3096 150.39 38.7308C149.243 40.0971 148.381 41.4411 147.803 42.7638C147.373 43.2266 146.898 43.7276 146.373 44.2658C145.342 45.3263 144.225 46.371 143.024 47.4027C141.822 48.4344 140.615 49.2951 139.404 49.9857C138.193 50.6772 137.077 51.0221 136.054 51.0221C135.733 51.0221 135.306 50.984 134.777 50.9087C134.248 50.8334 133.983 50.549 133.983 50.0573C133.983 49.6595 134.162 49.1306 134.522 48.4679C134.881 47.8061 135.534 46.8497 136.48 45.6005C137.426 44.3513 138.775 42.6764 140.525 40.5758C142.275 38.4752 144.532 35.7974 147.295 32.5424C147.144 32.562 146.988 32.5759 146.827 32.5852C146.666 32.5945 146.424 32.5991 146.103 32.5991C145.743 32.5991 145.241 32.5898 144.598 32.5703C143.955 32.5517 143.548 32.5322 143.378 32.5136C140.861 35.447 138.831 37.8832 137.289 39.8229C136.47 40.8528 135.756 41.7785 135.145 42.603C135.025 42.7415 134.903 42.8846 134.776 43.0305C133.755 44.2137 132.6 45.4146 131.313 46.6359C130.026 47.8563 128.687 48.888 127.297 49.7301C125.907 50.5722 124.558 51.0035 123.252 51.0221C122.306 50.984 121.833 50.681 121.833 50.114C121.833 49.9058 121.932 49.5842 122.131 49.1492C122.33 48.7142 122.708 48.0515 123.267 47.162C123.825 46.2725 124.643 45.0614 125.722 43.5287C126.802 41.996 128.23 40.0376 130.009 37.6526L137.503 27.5475H145.537C146.01 27.5475 146.247 27.4053 146.247 27.1218C146.247 26.8569 145.982 26.724 145.452 26.724H138.129L143.607 19.3431C143.171 19.4193 142.765 19.4565 142.387 19.4565C141.629 19.476 141.048 19.4704 140.641 19.4426C140.234 19.4137 139.908 19.3812 139.662 19.3431L134.41 26.724H131.827C131.108 26.724 130.748 26.8755 130.748 27.1785C130.748 27.4248 131.032 27.5475 131.599 27.5475H133.842L126.519 37.8515C125.702 39.005 124.978 40.0376 124.343 40.9513C124.169 41.1595 123.968 41.4086 123.737 41.6977C123.113 42.4831 122.308 43.4004 121.324 44.4507C120.34 45.501 119.199 46.5374 117.904 47.5589C116.607 48.5804 115.179 49.428 113.617 50.0991C112.056 50.7711 110.385 51.1066 108.607 51.1066C107.793 51.1066 107.089 50.8613 106.493 50.3687C105.897 49.877 105.599 49.1864 105.599 48.2969C105.599 47.6918 105.712 47.0049 105.939 46.239C106.166 45.4722 106.61 44.5595 107.273 43.4999C111.038 42.2507 113.972 41.0582 116.073 39.9233C118.173 38.7875 119.645 37.7335 120.487 36.7585C121.329 35.7844 121.722 34.9274 121.664 34.1894C121.645 33.6978 121.404 33.2628 120.94 32.8836C120.477 32.5053 119.667 32.3157 118.514 32.3157C117.321 32.3157 115.945 32.6047 114.383 33.181C112.821 33.7582 111.227 34.6616 109.6 35.8922C107.972 37.1228 106.458 38.7122 105.059 40.6613C104.661 41.2181 104.277 41.9821 103.906 42.9524C103.883 42.9794 103.861 43.0045 103.837 43.0314C102.816 44.2147 101.66 45.4155 100.374 46.6368C99.0868 47.8572 97.7484 48.8889 96.3579 49.731C94.9674 50.5731 93.6187 51.0044 92.3128 51.023C91.3666 50.9849 90.8935 50.6819 90.8935 50.1149C90.8935 49.9067 90.993 49.5851 91.1919 49.1501C91.3908 48.7151 91.7691 48.0524 92.3277 47.1629C92.8854 46.2734 93.7043 45.0623 94.7834 43.5296C95.8625 41.997 97.2911 40.0386 99.0701 37.6536L106.564 27.5484H114.598C115.071 27.5484 115.308 27.4062 115.308 27.1227C115.308 26.8578 115.043 26.7249 114.513 26.7249H107.19L112.668 19.344C112.232 19.4202 111.826 19.4574 111.448 19.4574C110.69 19.4769 110.108 19.4714 109.702 19.4435C109.295 19.4147 108.969 19.3821 108.723 19.344L103.471 26.7249H100.888C100.169 26.7249 99.809 26.8764 99.809 27.1794C99.809 27.4257 100.092 27.5484 100.66 27.5484H102.903L95.5799 37.8525C94.6439 39.1742 93.8288 40.3379 93.1317 41.3445C93.049 41.4439 92.9625 41.5462 92.8696 41.6558C92.2924 42.3371 91.6157 43.0565 90.8396 43.8131C90.0635 44.5706 89.2828 45.2231 88.4974 45.7715C87.712 46.3208 87.0167 46.595 86.4107 46.595C86.2025 46.595 85.9469 46.5764 85.6439 46.5383C86.0417 45.4406 86.2118 44.145 86.1551 42.6494C86.0984 41.6465 85.9748 40.5916 85.7861 39.4846C85.5965 38.3776 85.4218 37.318 85.261 36.3049C85.1002 35.2927 85.0286 34.446 85.0481 33.7647C85.0481 33.4812 85.0667 33.2498 85.1048 33.0694C85.143 32.8901 85.4171 32.4969 85.9283 31.8918C86.7797 30.9084 87.2147 30.2364 87.2342 29.8767C87.2342 29.2521 86.855 28.9398 86.0984 28.9398C85.682 28.9398 85.3604 29.1666 85.1337 29.6211C84.9069 30.0756 84.7358 30.5859 84.6224 31.1538C83.8844 32.1 83.0089 33.1884 81.9967 34.4181C80.9845 35.6487 80.0235 36.8022 79.1154 37.8813C78.2073 38.9604 77.5353 39.7458 77.1003 40.2375C77.0594 40.2886 77.0185 40.3379 76.9785 40.3871C76.7452 40.6344 76.38 41.0712 75.8799 41.6986C75.2553 42.484 74.4504 43.4014 73.467 44.4517C73.2867 44.6441 73.0989 44.8355 72.9084 45.027C72.7718 45.0791 72.6277 45.1367 72.4734 45.2036C71.7735 45.5066 71.135 45.9658 70.5578 46.5802C70.2566 46.9008 70.0354 47.267 69.8914 47.6778C68.6366 48.6463 67.26 49.455 65.7608 50.1C64.1993 50.772 62.5291 51.1076 60.751 51.1076C59.9368 51.1076 59.2322 50.8622 58.6365 50.3696C58.0407 49.8779 57.7423 49.1873 57.7423 48.2978C57.7423 47.6927 57.8557 47.0058 58.0825 46.24C58.3093 45.4732 58.7536 44.5604 59.4163 43.5008C63.1815 42.2516 66.1159 41.0591 68.2165 39.9243C70.317 38.7884 71.7884 37.7344 72.6305 36.7594C73.4726 35.7853 73.8657 34.9284 73.8081 34.1904C73.7886 33.6987 73.5479 33.2637 73.0841 32.8845C72.822 32.6707 72.4492 32.5173 71.9668 32.4244C72.0403 32.3835 72.1118 32.3398 72.1806 32.2915C73.6232 31.2793 74.8724 29.9576 76.0788 28.6545C76.8001 27.8728 77.236 26.8355 77.8727 25.9693C80.3283 22.6594 83.2199 20.2345 87.6144 19.6889C90.506 19.331 93.4282 18.3978 96.0828 17.1672C102.763 14.0693 105.424 7.91068 104.255 0C99.9809 0.545596 95.8764 1.59403 92.2032 3.92792C87.4387 6.95891 84.8688 11.3051 85.0928 16.9971C85.1597 18.8096 84.8567 19.7985 83.0684 20.465C81.8006 20.9436 80.7466 21.9986 79.4732 22.8834C81.3888 18.2463 80.3162 14.7302 76.2238 12.584C74.8724 14.7608 73.9633 17.052 74.1446 19.6889C74.3147 22.1436 75.7693 23.7804 77.6487 25.2359C75.7163 28.1609 74.1483 31.3695 70.6628 32.3166C70.661 32.3166 70.6591 32.3166 70.6572 32.3166C69.4647 32.3166 68.0882 32.6056 66.5267 33.1819C64.9652 33.7591 63.3712 34.6626 61.7437 35.8932C60.1162 37.1238 58.6021 38.7132 57.2023 40.6622C56.8417 41.1669 56.4922 41.8417 56.1548 42.6866C55.638 43.2415 55.0599 43.8438 54.4204 44.4944C53.3989 45.5354 52.2817 46.5523 51.0706 47.5459C49.8595 48.5395 48.6336 49.3676 47.3946 50.0294C46.1547 50.6921 44.977 51.023 43.8608 51.023C42.9713 51.023 42.527 50.7107 42.527 50.0861C42.527 49.8593 42.5837 49.5898 42.6971 49.2775C42.8105 48.9652 43.0949 48.4447 43.5484 47.716C44.003 46.9873 44.7121 45.9277 45.6779 44.5363C46.6436 43.1448 47.9774 41.258 49.6801 38.873L73.0134 6.48395C72.7671 6.50347 72.545 6.52671 72.3461 6.55459C72.1472 6.5834 71.9724 6.59734 71.8209 6.59734C71.0634 6.61686 70.4816 6.60664 70.0754 6.56853C69.6683 6.53043 69.3327 6.50254 69.0678 6.48302L47.125 37.8497C46.5265 38.7132 45.979 39.5079 45.4799 40.2356L45.4789 40.2347C45.2522 40.4429 44.7837 40.9448 44.0736 41.7395C43.3635 42.5342 42.4982 43.4525 41.4767 44.4926C40.4552 45.5336 39.338 46.5504 38.1269 47.544C36.9158 48.5376 35.6898 49.3658 34.4508 50.0275C33.2109 50.6902 32.0333 51.0211 30.917 51.0211C30.0275 51.0211 29.5832 50.7088 29.5832 50.0842C29.5832 49.8574 29.6399 49.5879 29.7533 49.2756C29.8667 48.9633 30.1511 48.4428 30.6047 47.7141C31.0592 46.9854 31.7684 45.9258 32.7341 44.5344C33.6998 43.143 35.0336 41.2562 36.7364 38.8712L60.0697 6.48209C59.8234 6.50161 59.6012 6.52485 59.4023 6.55273C59.2034 6.58154 59.0287 6.59548 58.8772 6.59548C58.1197 6.615 57.5378 6.60478 57.1317 6.56667C56.7245 6.52857 56.389 6.50068 56.1241 6.48116L34.1813 37.8478C32.6858 40.0051 31.5035 41.7367 30.6326 43.0426C29.7617 44.3485 29.1139 45.3849 28.6882 46.1507C28.2625 46.9175 27.9883 47.5412 27.8647 48.0245C27.742 48.5069 27.6797 49.0042 27.6797 49.5145C27.6797 50.1577 27.9399 50.7023 28.4604 51.1466C28.9809 51.5918 29.6381 51.814 30.4337 51.814C31.7015 51.814 33.012 51.4784 34.3653 50.8064C35.7177 50.1354 37.0338 49.2877 38.3109 48.2662C39.588 47.2447 40.7666 46.1991 41.8447 45.1293C42.2202 44.7575 42.5734 44.4015 42.9071 44.0604C42.3652 44.8988 41.9395 45.5958 41.6319 46.1507C41.2062 46.9175 40.932 47.5412 40.8084 48.0245C40.6857 48.5069 40.6234 49.0042 40.6234 49.5145C40.6234 50.1577 40.8837 50.7023 41.4042 51.1466C41.9247 51.5918 42.5818 51.814 43.3774 51.814C44.6452 51.814 45.9558 51.4784 47.3091 50.8064C48.6614 50.1354 49.9776 49.2877 51.2546 48.2662C52.5317 47.2447 53.7103 46.1991 54.7885 45.1293C55.0655 44.8551 55.3313 44.5892 55.586 44.3308C55.3238 45.2668 55.2002 46.134 55.2151 46.9315C55.2532 48.3322 55.6696 49.5145 56.4643 50.4802C57.259 51.445 58.5835 51.9283 60.4387 51.9283C62.3125 51.9283 64.0673 51.5872 65.7041 50.9068C67.1494 50.3055 68.4814 49.5702 69.698 48.7021C69.6943 48.7737 69.6924 48.8462 69.6924 48.9196C69.6924 49.9606 70.0568 50.7274 70.7855 51.2191C71.5142 51.7117 72.3424 52.0324 73.269 52.1839C74.1957 52.3354 74.9532 52.4107 75.5397 52.4107C77.7351 52.4107 79.7028 52.037 81.4437 51.2898C83.1846 50.5425 84.4998 49.1845 85.3893 47.2159C85.5408 47.2354 85.6913 47.2494 85.8438 47.2587C85.9953 47.2689 86.1561 47.2726 86.3262 47.2726C87.0641 47.2726 87.8449 47.0031 88.6684 46.464C89.4083 45.9788 90.137 45.4016 90.8545 44.7333C90.505 45.2835 90.216 45.7622 89.9892 46.1656C89.5542 46.9417 89.2698 47.5803 89.1378 48.0812C89.0058 48.5832 88.9389 49.0888 88.9389 49.6C88.9389 50.2432 89.1991 50.7739 89.7196 51.1894C90.2401 51.6058 91.0209 51.814 92.0619 51.814C93.5193 51.814 94.9953 51.3697 96.4899 50.4802C97.9844 49.5907 99.4177 48.5069 100.79 47.2298C101.716 46.3682 102.569 45.5224 103.352 44.6906C103.155 45.4899 103.063 46.2372 103.076 46.9315C103.114 48.3322 103.531 49.5145 104.325 50.4802C105.12 51.445 106.444 51.9283 108.3 51.9283C110.173 51.9283 111.928 51.5872 113.565 50.9068C115.202 50.2255 116.692 49.3741 118.036 48.3517C119.271 47.412 120.373 46.4472 121.345 45.4601C121.189 45.7157 121.051 45.9518 120.931 46.1665C120.496 46.9426 120.212 47.5812 120.08 48.0822C119.948 48.5841 119.881 49.0897 119.881 49.6009C119.881 50.2441 120.141 50.7748 120.662 51.1903C121.182 51.6067 121.963 51.8149 123.004 51.8149C124.461 51.8149 125.937 51.3706 127.432 50.4811C128.926 49.5916 130.36 48.5079 131.732 47.2308C132.064 46.9213 132.387 46.6145 132.7 46.3097C132.46 46.7502 132.274 47.1434 132.144 47.4864C131.861 48.2346 131.718 48.8917 131.718 49.4596C131.718 50.179 132.074 50.7516 132.783 51.1773C133.493 51.603 134.424 51.8158 135.579 51.8158C136.828 51.8158 138.109 51.4747 139.425 50.7943C140.74 50.113 142.017 49.2617 143.257 48.2392C144.496 47.2178 145.636 46.1721 146.677 45.1023C146.847 44.9276 147.012 44.7575 147.173 44.5892C146.976 45.357 146.876 46.1005 146.876 46.82C146.876 48.2392 147.354 49.4457 148.309 50.4393C149.265 51.4329 150.746 51.9292 152.752 51.9292C154.683 51.9292 156.504 51.5695 158.217 50.8501C159.929 50.1307 161.485 49.2319 162.886 48.1537C164.286 47.0746 165.507 45.9871 166.548 44.8895C167.589 43.7918 168.412 42.8502 169.018 42.0648C169.623 41.2794 169.973 40.8296 170.068 40.7162L169.438 40.2338ZM109.032 40.9718C111 38.3795 112.722 36.4016 114.198 35.039C115.674 33.6764 117.046 32.9951 118.314 32.9951C119.297 32.9951 119.79 33.5249 119.79 34.5845C119.79 35.8337 118.729 37.1442 116.61 38.5161C114.49 39.888 111.595 41.2181 107.924 42.5044C108.247 42.0128 108.616 41.5016 109.032 40.9718ZM86.1505 12.5394C87.0298 9.50193 88.8236 7.08345 91.3397 5.19199C94.9284 2.49468 99.0989 1.39141 103.839 0.579055C100.348 9.43593 93.4254 14.4188 85.8419 19.0977C85.3326 16.7155 85.5566 14.6121 86.1505 12.5394ZM77.6338 24.2023C74.5117 22.8081 73.4754 18.0251 76.3307 13.6306C77.9312 14.8668 78.7008 21.0868 77.6338 24.2023ZM61.173 40.9718C63.1406 38.3795 64.8629 36.4016 66.3389 35.039C67.8149 33.6764 69.1868 32.9951 70.4546 32.9951C71.438 32.9951 71.9306 33.5249 71.9306 34.5845C71.9306 35.8337 70.8701 37.1442 68.7509 38.5161C66.6308 39.888 63.7355 41.2181 60.065 42.5044C60.3876 42.0128 60.7566 41.5016 61.173 40.9718ZM84.365 32.7395C83.8538 34.2155 83.5563 35.7584 83.4708 37.3664C83.3853 38.9753 83.2952 40.2338 83.2013 41.1418C82.8983 43.7155 82.2309 45.7501 81.2002 47.2447C80.1685 48.7402 79.0568 49.8045 77.8643 50.4384C76.6718 51.0723 75.6782 51.3892 74.8835 51.3892C74.5043 51.3892 73.9559 51.3372 73.2374 51.233C72.518 51.1289 71.8702 50.9022 71.293 50.5518C70.7158 50.2013 70.4277 49.6669 70.4277 48.9475C70.4277 48.5989 70.4927 48.2857 70.6182 48.0059C71.2019 47.5477 71.7531 47.083 72.2745 46.6127C72.3554 46.6684 72.4446 46.7307 72.5431 46.8042C72.7606 46.965 72.9827 47.0458 73.2105 47.0458C73.7031 47.0458 74.152 46.9185 74.5591 46.6629C74.9662 46.4073 75.1791 46.1284 75.1977 45.8254C75.1977 45.1478 74.8519 44.7891 74.1622 44.751C75.0034 43.855 75.7135 43.0491 76.2907 42.3344C76.5491 42.0137 76.7787 41.7376 76.9795 41.5034C77.131 41.364 77.3354 41.1418 77.5957 40.8342C77.6422 40.7896 77.6849 40.7496 77.724 40.7162L77.7072 40.7022C78.2537 40.0423 78.9072 39.243 79.6684 38.3033C80.4352 37.3571 81.2336 36.3728 82.0673 35.3513C82.9001 34.3298 83.6753 33.3743 84.3947 32.4839C84.3929 32.5982 84.3836 32.6828 84.365 32.7395Z" fill="#586C52"/>
</svg>
