<svg width="15" height="15" viewBox="0 0 15 15" fill="none" xmlns="http://www.w3.org/2000/svg">
<path fill-rule="evenodd" clip-rule="evenodd" d="M3.7807 6.52323C3.58747 5.55706 4.68246 5.04177 5.39099 4.59089C5.77745 4.33325 5.84187 3.94678 5.71304 3.56031C5.32657 2.46531 4.61805 1.49914 4.16717 0.404148C4.10276 0.210914 3.90952 0.0820913 3.71629 0.0176799C1.84836 -0.175554 0.495717 1.2415 0.109249 2.98061C-1.05016 8.13352 6.80804 15.9917 12.0254 14.8967C13.7645 14.5103 15.1815 13.1576 14.9883 11.2897C14.9239 11.0964 14.7951 10.9032 14.6018 10.8388C13.5068 10.3879 12.5407 9.67939 11.4457 9.29293C11.0592 9.1641 10.6727 9.22851 10.4151 9.61498C9.9642 10.3235 9.44891 11.4185 8.48273 11.2253C6.80804 10.9032 4.03835 8.13352 3.7807 6.52323Z" fill="#586C52"/>
</svg>
