<svg width="97" height="126" viewBox="0 0 97 126" fill="none" xmlns="http://www.w3.org/2000/svg">
<path d="M53.2752 1H11C5.47715 1 1 5.47715 1 11V115.405C1 120.928 5.47715 125.405 11 125.405H86C91.5228 125.405 96 120.928 96 115.405V43.3854C96 40.7152 94.9321 38.1559 93.0341 36.2776L60.3093 3.89218C58.4371 2.03931 55.9093 1 53.2752 1Z" stroke="#586C52"/>
<path fill-rule="evenodd" clip-rule="evenodd" d="M22.9034 97.4048L22 96.8617C25.9637 95.2911 28.2333 91.7083 30.5472 88.0556C30.9585 87.4063 31.3712 86.7548 31.7951 86.112C28.8435 83.8218 26.5589 81.2464 26.2918 77.384C26.0072 73.235 27.4348 69.6301 29.5573 66.205C35.9846 69.5818 37.6691 75.1143 34.6606 82.4105C35.2898 81.9725 35.8849 81.508 36.4671 81.0535C37.7353 80.0635 38.9423 79.1214 40.3069 78.6052C43.1155 77.5566 43.5914 76.0005 43.4863 73.1488C43.1345 64.1927 47.1707 57.3542 54.6534 52.5851C60.4224 48.9129 66.8686 47.2632 73.5806 46.4048C75.417 58.8518 71.2377 68.542 60.7464 73.4164C56.5774 75.3527 51.9879 76.821 47.4466 77.384C40.5449 78.2425 36.0036 82.0581 32.1469 87.2659C31.7381 87.8232 31.3819 88.4254 31.0264 89.0268C30.5122 89.8962 29.9992 90.7639 29.3295 91.4909C27.4348 93.5413 25.4729 95.6209 23.2073 97.2135C23.1093 97.2826 23.0076 97.3456 22.9034 97.4048ZM53.2973 54.5741C49.3457 57.5502 46.5284 61.3555 45.1475 66.1348C44.2147 69.3961 43.8629 72.7056 44.6628 76.4539C56.573 69.0919 67.4452 61.2516 72.9281 47.3159C65.4833 48.5941 58.9334 50.33 53.2973 54.5741ZM31.7717 84.4857C26.8684 82.2921 25.2408 74.7662 29.7252 67.8517C32.2389 69.7968 33.4475 79.5836 31.7717 84.4857Z" fill="#586C52"/>
</svg>
