<svg width="20" height="18" viewBox="0 0 20 18" fill="none" xmlns="http://www.w3.org/2000/svg">
<path fill-rule="evenodd" clip-rule="evenodd" d="M18.0145 0.666617C17.2268 0.879371 8.33064 3.37971 1.08704 5.40119C0.510457 5.57859 0.093898 6.03233 0.0121594 6.53105C-0.0695792 7.02976 0.270902 7.45777 0.729434 7.58307C1.121 7.69938 5.0469 8.80013 5.0469 8.80013L5.16355 15.187L9.22352 12.8636L6.0196 8.29367L14 5.52273L7.28847 9.73835L9.22352 12.5468C9.33702 12.6894 11.7056 16.1932 11.8758 16.4072C12.1596 16.7639 12.5931 17.4592 12.861 17.4952C13.3297 17.5582 13.9007 16.9977 14.2548 16.0896C14.5987 15.2438 16.9291 9.3768 19.9212 1.55986C20.2652 0.714089 19.4559 0.223118 18.0145 0.666617Z" fill="#409EE2"/>
</svg>
