<svg width="70" height="70" viewBox="0 0 70 70" fill="none" xmlns="http://www.w3.org/2000/svg">
<path d="M34.9996 0.714355C53.9351 0.714355 69.2853 16.0646 69.2853 35.0001C69.2853 53.9355 53.9351 69.2858 34.9996 69.2858C16.0641 69.2858 0.713867 53.9355 0.713867 35.0001C0.713867 16.0646 16.0641 0.714355 34.9996 0.714355ZM34.9996 6.42864C19.22 6.42864 6.42815 19.2205 6.42815 35.0001C6.42815 50.7796 19.22 63.5715 34.9996 63.5715C50.7791 63.5715 63.571 50.7796 63.571 35.0001C63.571 19.2205 50.7791 6.42864 34.9996 6.42864ZM47.2567 24.4001C48.3725 23.2843 50.1981 23.2843 51.3139 24.4001C52.4296 25.5159 52.4296 27.3414 51.3139 28.4572L31.3056 48.4489C30.1898 49.5647 28.3808 49.5647 27.265 48.4489L17.265 38.4489C16.1492 37.3332 16.1492 35.5241 17.265 34.4083C18.3808 33.2925 20.1898 33.2925 21.3056 34.4083L29.2853 42.388L47.2567 24.4001Z" fill="#1A1A1A"/>
</svg>
