<svg width="89" height="34" viewBox="0 0 89 34" fill="none" xmlns="http://www.w3.org/2000/svg">
<path d="M50.0075 16.2643L45.2452 10.0049H41V24.2524H45.324V16.6829L49.4855 21.8885H50.5197L54.6565 16.6829V24.2524H59.0101V10.0049H54.7058L50.0075 16.2643Z" fill="#1A1A1A"/>
<path d="M74.1786 16.0772C73.5767 15.6962 72.8858 15.479 72.1742 15.4469C71.7861 15.441 71.3981 15.4575 71.0119 15.4961C70.6986 15.5286 70.3877 15.5813 70.0811 15.6537L70.1944 13.7872H75.3605V10H65.8507L65.5404 17.141L66.3481 18.8154C66.8997 18.7169 67.4513 18.6431 68.0078 18.5987C68.6874 18.5396 69.2143 18.5052 69.5739 18.5052C69.881 18.4955 70.1876 18.5388 70.48 18.6332C70.7215 18.7044 70.9338 18.8511 71.0858 19.0518C71.2328 19.2768 71.3067 19.5417 71.2975 19.8103C71.307 20.0414 71.2375 20.2689 71.1006 20.4554C70.9633 20.6389 70.7748 20.7777 70.5588 20.8543C70.2853 20.9503 69.9966 20.9954 69.7068 20.9873C69.1634 20.988 68.6233 20.9033 68.1063 20.7361C67.5571 20.5734 67.0321 20.3382 66.5451 20.0368L64.8657 23.2872C65.5737 23.8177 66.3835 24.1966 67.2444 24.4002C68.2222 24.6421 69.2266 24.7596 70.2338 24.7499C71.2776 24.7718 72.3134 24.5633 73.2675 24.1392C73.8527 23.8709 74.3782 23.4882 74.8131 23.0135C75.2479 22.5389 75.5834 21.982 75.7996 21.3756C76.0158 20.7693 76.1083 20.1258 76.0718 19.4831C76.0353 18.8404 75.8705 18.2115 75.5871 17.6335C75.2621 17.0068 74.7759 16.4781 74.1786 16.1019" fill="#1A1A1A"/>
<path d="M87.1359 16.4366C86.6104 16.0429 86.0132 15.7552 85.3778 15.5896L88.0372 13.0237L87.7959 10.0146H78.4978V13.7674H82.2899L80.1771 16.087V18.51C80.2689 18.5025 80.3612 18.5025 80.4529 18.51C80.5694 18.5173 80.6862 18.5173 80.8026 18.51C81.3308 18.5059 81.8587 18.5339 82.3835 18.5937C82.7476 18.6316 83.0965 18.7602 83.398 18.968C83.5303 19.0697 83.6354 19.2024 83.7042 19.3545C83.7729 19.5065 83.803 19.6732 83.792 19.8397C83.7967 20.0683 83.737 20.2936 83.6196 20.4897C83.485 20.6732 83.3028 20.8162 83.0926 20.9034C82.8518 21.0077 82.5917 21.0597 82.3293 21.0561C81.7655 21.0267 81.2086 20.919 80.6746 20.736C80.0958 20.5755 79.5398 20.3422 79.0198 20.0416L77.3848 23.2132C78.1131 23.7341 78.9239 24.1287 79.7832 24.3804C80.7683 24.668 81.7907 24.8074 82.8168 24.7941C83.8467 24.8101 84.8689 24.6157 85.821 24.2228C86.668 23.877 87.3931 23.2874 87.9042 22.5286C88.4212 21.7253 88.6838 20.7847 88.6577 19.8298C88.6679 19.1669 88.5334 18.5098 88.2637 17.9042C88.0068 17.3423 87.6142 16.8532 87.1212 16.4809" fill="#1A1A1A"/>
<g clip-path="url(#clip0_404_14005)">
<path d="M0 0L10.6131 5.18857V34L0 28.2286V0Z" fill="#587B6B"/>
<path d="M0 28.2286L10.6131 34.0001L32 20.3848L22.1047 14.9448L0 28.2286Z" fill="#1A1A1A"/>
</g>
<defs>
<clipPath id="clip0_404_14005">
<rect width="32" height="34" fill="white"/>
</clipPath>
</defs>
</svg>
