<svg width="47" height="42" viewBox="0 0 47 42" fill="none" xmlns="http://www.w3.org/2000/svg">
<path d="M12 2.79999C12 1.41928 13.1193 0.299988 14.5 0.299988L32.5 0.299988C33.8807 0.299988 35 1.41928 35 2.79999V7.29999H12V2.79999Z" fill="black"/>
<path fill-rule="evenodd" clip-rule="evenodd" d="M0.600098 13.5C0.600098 11.2909 2.39096 9.5 4.6001 9.5H42.6001C44.8092 9.5 46.6001 11.2909 46.6001 13.5V28.2C46.6001 30.4091 44.8092 32.2 42.6001 32.2H39.4002V26.5C39.4002 23.4624 36.9378 21 33.9002 21H13.1002C10.0627 21 7.60024 23.4624 7.60024 26.5V32.2H4.6001C2.39096 32.2 0.600098 30.4091 0.600098 28.2V13.5ZM33.8001 16.15C33.8001 15.5148 34.315 15 34.9501 15H39.8501C40.4852 15 41.0001 15.5148 41.0001 16.15C41.0001 16.7851 40.4852 17.3 39.8501 17.3H34.9501C34.315 17.3 33.8001 16.7851 33.8001 16.15Z" fill="black"/>
<path fill-rule="evenodd" clip-rule="evenodd" d="M9.80005 26.5C9.80005 24.7327 11.2327 23.3 13 23.3H34C35.7674 23.3 37.2 24.7327 37.2 26.5V38.4C37.2 40.1673 35.7674 41.6 34 41.6H13C11.2327 41.6 9.80005 40.1673 9.80005 38.4V26.5ZM14.2 30.3C14.2 29.6925 14.6924 29.2 15.3 29.2H31.6999C32.3075 29.2 32.8 29.6925 32.8 30.3C32.8 30.9075 32.3075 31.4 31.7 31.4H15.3C14.6924 31.4 14.2 30.9075 14.2 30.3ZM15.3 33.5C14.6924 33.5 14.2 33.9925 14.2 34.6C14.2 35.2075 14.6924 35.7 15.3 35.7H31.7C32.3075 35.7 32.8 35.2075 32.8 34.6C32.8 33.9925 32.3075 33.5 31.6999 33.5H15.3Z" fill="black"/>
</svg>
