<svg width="160" height="80" viewBox="0 0 160 80" fill="none" xmlns="http://www.w3.org/2000/svg">
<path fill-rule="evenodd" clip-rule="evenodd" d="M73.3063 46.7114C74.6104 46.7114 75.8745 46.3949 76.9596 45.7975L77.898 45.2861L80.6366 47.3003C78.831 49.2326 76.1668 50.2941 73.1154 50.2941C70.1988 50.2941 67.539 49.266 65.6255 47.3993C63.7185 45.5391 62.668 42.9609 62.668 40.1404C62.668 37.3329 63.7218 34.7923 65.6363 32.987C67.539 31.1914 70.2053 30.2031 73.1424 30.2031C75.8497 30.2031 78.2183 31.0245 79.9905 32.579L80.1911 32.7545L77.1559 34.9871C76.0439 34.1894 74.7495 33.7847 73.3063 33.7847C69.4913 33.7847 66.7214 36.5029 66.7214 40.248C66.7214 43.9932 69.4902 46.7114 73.3063 46.7114ZM93.608 38.0902H88.4577V33.7185H96.6799L101.111 30.4588H84.2252V50.0352H93.0623C98.0185 50.0352 100.862 47.7939 100.862 43.8851C100.862 40.1485 98.2849 38.0902 93.608 38.0902ZM92.8713 46.7755H88.4577V41.3488H92.8713C95.5582 41.3488 96.8094 42.2563 96.8094 44.0616C96.8083 45.9068 95.4837 46.7755 92.8713 46.7755ZM119.633 30.4588L115.202 33.7185H109.035V38.5047H118.074V41.7643H109.035V46.7755H119.633V50.0352H104.802V30.4588H119.633ZM123.573 30.4588H131.647C136.801 30.4588 140.001 33.1436 140.001 37.4648C140.001 41.7859 136.8 44.4901 131.647 44.4901H127.805V50.0352H123.573V30.4588ZM127.805 41.2304H131.557C134.27 41.2304 135.762 39.8966 135.762 37.4745C135.762 35.0523 134.269 33.7185 131.557 33.7185H127.805V41.2304Z" fill="#19191E"/>
<path d="M36.2965 39.7932L30.0933 35.9154V40.5804L36.2965 44.4582L51.1455 33.5463C50.6203 32.3914 49.9624 31.3085 49.1924 30.3159L36.2965 39.7932Z" fill="#19191E"/>
<path d="M52.5926 40.25C52.5926 39.2564 52.5031 38.2832 52.3316 37.339L48.8235 39.9166C48.8267 40.0274 48.8278 40.1382 48.8278 40.25C48.8278 47.14 43.2059 52.7459 36.2963 52.7459C29.3867 52.7459 23.7648 47.14 23.7648 40.25C23.7648 33.3601 29.3867 27.7541 36.2963 27.7541C38.9148 27.7541 41.3488 28.5596 43.3612 29.935L46.5307 27.6057C43.7332 25.3517 40.1733 24 36.2963 24C27.2957 24 20 31.2749 20 40.25C20 49.2251 27.2957 56.5 36.2963 56.5C45.297 56.5 52.5926 49.2251 52.5926 40.25Z" fill="#19191E"/>
</svg>
