<svg width="24" height="24" viewBox="0 0 24 24" fill="none" xmlns="http://www.w3.org/2000/svg">
<path d="M21.6753 5.82971L17.9228 2.15577C17.8228 2.05602 17.6874 2 17.5462 2C17.405 2 17.2696 2.05602 17.1697 2.15577L13.4198 5.83061C13.3696 5.88011 13.3297 5.93904 13.3023 6.00401C13.2749 6.06898 13.2606 6.13872 13.2603 6.20922C13.2599 6.27973 13.2734 6.34961 13.3001 6.41487C13.3268 6.48013 13.3661 6.53947 13.4158 6.5895L13.6663 6.84306C13.7155 6.89304 13.7741 6.9328 13.8387 6.96006C13.9033 6.98732 13.9727 7.00155 14.0429 7.00192C14.113 7.00229 14.1825 6.98881 14.2474 6.96224C14.3124 6.93566 14.3714 6.89653 14.4211 6.84708L16.8317 4.49584V20.6411C16.8317 20.7358 16.8694 20.8266 16.9363 20.8936C17.0033 20.9606 17.0942 20.9982 17.1889 20.9982H17.9031C17.9978 20.9982 18.0887 20.9606 18.1556 20.8936C18.2226 20.8266 18.2602 20.7358 18.2602 20.6411V4.50254L20.6682 6.83949C20.7685 6.93927 20.9043 6.99527 21.0458 6.99527C21.1874 6.99527 21.3231 6.93927 21.4235 6.83949L21.6753 6.58682C21.7756 6.48638 21.8319 6.35023 21.8319 6.20827C21.8319 6.06631 21.7756 5.93016 21.6753 5.82971Z" fill="#1A1A1A"/>
<path d="M11.1675 16.1583C11.1183 16.1083 11.0597 16.0685 10.995 16.0413C10.9304 16.014 10.861 15.9998 10.7909 15.9994C10.7207 15.999 10.6512 16.0125 10.5863 16.0391C10.5214 16.0657 10.4624 16.1048 10.4126 16.1543L8.00199 18.5055V2.35713C8.00199 2.26241 7.96437 2.17157 7.89739 2.1046C7.83042 2.03763 7.73958 2 7.64487 2H6.92972C6.835 2 6.74416 2.03763 6.67719 2.1046C6.61022 2.17157 6.57259 2.26241 6.57259 2.35713V18.4957L4.16466 16.1587C4.06429 16.0589 3.92852 16.0029 3.787 16.0029C3.64547 16.0029 3.5097 16.0589 3.40933 16.1587L3.15756 16.4114C3.10762 16.4612 3.06799 16.5203 3.04096 16.5854C3.01392 16.6505 3 16.7203 3 16.7908C3 16.8613 3.01392 16.9312 3.04096 16.9963C3.06799 17.0614 3.10762 17.1205 3.15756 17.1703L6.91008 20.8442C7.01001 20.944 7.14543 21 7.28662 21C7.42781 21 7.56324 20.944 7.66317 20.8442L11.413 17.1694C11.4632 17.1199 11.5031 17.061 11.5305 16.996C11.5579 16.931 11.5722 16.8613 11.5726 16.7908C11.5729 16.7203 11.5594 16.6504 11.5327 16.5851C11.506 16.5199 11.4667 16.4605 11.417 16.4105L11.1675 16.1583Z" fill="#1A1A1A"/>
</svg>
