<svg width="140" height="80" viewBox="0 0 140 80" fill="none" xmlns="http://www.w3.org/2000/svg">
<path d="M48.537 27.6039H25.2976L26.9717 23H50.2112L48.537 27.6039ZM47.6999 29.9059H24.45L22.7759 34.5098H46.0153L47.6999 29.9059ZM45.1887 36.7909H21.9388L20.2646 41.3948H43.4831L45.1887 36.7909Z" fill="#1A1A1A"/>
<path d="M103.91 52.9152H108.095C108.69 52.9862 109.293 52.9097 109.852 52.6926C110.41 52.4755 110.906 52.1243 111.297 51.67C111.871 50.9187 112.16 49.9881 112.113 49.0437C112.152 48.4427 112.042 47.8414 111.792 47.2935C111.542 46.7457 111.16 46.2685 110.68 45.9046C109.903 45.3963 108.979 45.1607 108.053 45.235H103.91V52.9152ZM98.4164 57.5505V29.9059H116.403L114.823 34.5413H103.91V40.6624H108.357C111.946 40.6624 113.808 41.5204 115.095 42.6191C116.015 43.4339 116.739 44.4465 117.212 45.5809C117.685 46.7153 117.895 47.9421 117.826 49.1692C117.897 50.4907 117.636 51.8088 117.068 53.0039C116.5 54.199 115.642 55.2331 114.572 56.0123C112.846 57.2052 111.035 57.54 107.352 57.54L98.4164 57.5505ZM82.491 57.5505V34.5308H74.4969V29.9059H96.6899L95.1099 34.5413H88.0366V57.5609L82.491 57.5505ZM60.3398 40.9763H63.4788C64.1208 41.0202 64.7658 40.9708 65.3936 40.8298C66.0466 40.6212 66.6093 40.197 66.9895 39.6267C67.3698 39.0563 67.5449 38.3737 67.4863 37.6908C67.5734 37.0122 67.4085 36.3252 67.0227 35.7601C66.637 35.195 66.0573 34.7911 65.3936 34.625C64.7081 34.4658 64.0039 34.4024 63.3009 34.4366H60.3398V40.9763ZM60.3398 45.7581V53.0093H64.1694C65.2248 53.13 66.286 52.8375 67.1306 52.1932C67.5198 51.8325 67.8247 51.3905 68.0237 50.8986C68.2226 50.4067 68.3107 49.8769 68.2816 49.3471C68.2982 48.5006 68.0414 47.6713 67.5491 46.9824C66.733 45.936 65.7285 45.7372 64.0125 45.7372L60.3398 45.7581ZM69.1919 42.8388V42.933C70.1248 43.2921 70.9966 43.7933 71.7764 44.4188C72.5646 45.0729 73.1875 45.9036 73.5948 46.8435C74.002 47.7834 74.182 48.806 74.1202 49.8284C74.1202 53.6057 72.1112 56.3367 68.8152 57.1529C67.5014 57.474 66.1482 57.6044 64.7972 57.54H54.8464V29.9059H63.6985C65.1045 29.8545 66.5113 29.9847 67.8839 30.2931C71.0858 31.1511 73.1889 33.3589 73.1889 36.8432C73.2151 37.674 73.0718 38.5013 72.7678 39.2749C72.4637 40.0484 72.0054 40.7519 71.4206 41.3425C70.7996 41.9731 70.0599 42.4745 69.2442 42.8179L69.1919 42.8388Z" fill="#1A1A1A"/>
</svg>
