<svg width="182" height="80" viewBox="0 0 182 80" fill="none" xmlns="http://www.w3.org/2000/svg">
<rect x="88.2599" y="6" width="6.93877" height="68" fill="#1A1A1A"/>
<path d="M20.2646 6H88.2646V74H20.2646V6Z" fill="white"/>
<path d="M40.9699 27.9684C41.7924 29.5364 43.0312 30.8473 44.5503 31.757C44.8752 31.9611 45.1148 32.2763 45.2246 32.6439C45.3344 33.0115 45.3067 33.4065 45.147 33.7554C44.7584 34.7407 43.9952 36.1701 44.3699 36.7668C44.874 37.1293 45.4677 37.3467 46.0867 37.3956C46.7056 37.4446 47.3261 37.323 47.8809 37.0443C48.1122 37.5488 48.3717 38.0399 48.658 38.5154C48.5291 38.6605 48.3562 38.7596 48.1658 38.7971C47.9753 38.8347 47.7778 38.8089 47.6033 38.7235C47.7804 38.8784 47.89 39.0963 47.9089 39.3308C47.9277 39.5652 47.8541 39.7978 47.7038 39.9788C47.5535 40.1599 47.3386 40.275 47.1046 40.2997C46.8706 40.3244 46.6364 40.2569 46.4515 40.1113C46.3218 40.0112 46.2256 39.8738 46.176 39.7176C46.1264 39.5613 46.1257 39.3937 46.174 39.237C45.9212 39.6304 45.5528 39.9359 45.1193 40.1113C44.8876 39.9373 44.7163 39.6952 44.6292 39.4191C44.5421 39.1428 44.5436 38.8462 44.6335 38.5709C44.4413 38.91 44.1735 39.2002 43.8511 39.4192C43.5286 39.6382 43.16 39.78 42.774 39.8337C42.5373 39.4822 42.429 39.0601 42.4668 38.638C42.5047 38.216 42.6867 37.82 42.9821 37.5162C42.6936 37.7317 42.3548 37.8702 41.9981 37.9188C41.6411 37.9673 41.2778 37.9243 40.9421 37.7937C40.9421 37.7937 40.734 37.1276 41.9274 36.1423C41.535 36.1283 41.1522 36.0155 40.815 35.8141C40.4778 35.6127 40.1969 35.3294 39.9984 34.9905C40.2793 34.7563 40.6054 34.5826 40.9564 34.4799C41.3074 34.3772 41.6757 34.3479 42.0384 34.3937C41.6203 34.2627 41.2458 34.0204 40.9549 33.6929C40.664 33.3653 40.4676 32.9648 40.387 32.5341C40.7834 32.3554 41.2234 32.297 41.6527 32.3659C42.0819 32.4351 42.4814 32.6286 42.8017 32.9227C42.5483 32.5624 42.2549 32.2319 41.9274 31.9374C41.4527 31.4008 41.1181 30.7549 40.9535 30.0575C40.7888 29.3602 40.7992 28.633 40.9838 27.9407L40.9699 27.9684ZM46.4237 43.8721C46.2099 43.6494 46.0445 43.3847 45.938 43.095C46.1462 45.0239 46.2156 46.2868 47.3258 47.5496C47.7355 46.6819 47.8097 45.6932 47.534 44.7741C47.342 44.6674 47.1426 44.5746 46.9372 44.4966C47.079 45.035 47.1168 45.5956 47.0482 46.148C46.7347 45.4339 46.5335 44.6755 46.4515 43.8999L46.4237 43.8721ZM44.7029 43.6917C44.4891 43.469 44.3237 43.2043 44.2172 42.9145C44.1062 44.0664 43.8286 46.9807 44.814 47.8688C44.814 47.8688 45.4801 47.3831 45.6882 43.095C45.4801 43.3031 45.4107 43.5807 45.2025 43.7611C45.302 44.5446 45.2067 45.3408 44.925 46.0786C44.925 46.0786 44.4393 45.8288 44.7168 43.6917H44.7029ZM42.3715 45.9398C43.2458 44.9545 43.4262 41.9709 43.4262 41.9709L43.8148 41.6933L43.9258 41.5823V41.8598C43.9243 43.4146 43.6616 44.9579 43.1486 46.4256C42.7531 47.0043 42.225 47.4801 41.6082 47.8133C40.6229 46.1619 41.8164 43.9137 42.7601 42.2623L43.1486 42.0541C42.7601 43.4419 42.094 44.8296 42.3715 45.9537V45.9398ZM40.054 40.7913C40.0394 40.9303 40.0792 41.0695 40.165 41.1799V41.2909C39.2353 42.2576 38.3903 43.3021 37.6393 44.4133C37.2837 44.887 36.831 45.2793 36.3117 45.564C35.7924 45.8488 35.2183 46.0195 34.6278 46.0647C34.753 44.7598 35.2928 43.5295 36.1682 42.5537C37.1226 41.5096 38.1935 40.5783 39.3601 39.7782C39.6679 39.9209 40.0136 39.9597 40.3454 39.8892H40.4564C40.3269 40.0182 40.2523 40.1922 40.2482 40.375C38.7682 41.0541 37.5016 42.1241 36.5846 43.4696C36.4042 43.6084 37.7364 43.2199 39.9846 40.8052L40.054 40.7913ZM38.5135 39.2647L38.6246 39.1537L38.7356 39.0427C37.9584 39.3203 35.2246 40.4305 34.3503 40.7913C33.6696 41.1694 33.0727 41.6817 32.5957 42.2971C32.1186 42.9125 31.7713 43.6183 31.5748 44.3717C32.1676 44.4225 32.7648 44.3554 33.3315 44.1743C33.8984 43.9934 34.4238 43.702 34.8776 43.317C36.418 42.0541 38.1805 40.3056 38.8466 39.7366L38.6384 39.5284C37.36 40.5691 35.9624 41.4542 34.4752 42.1652C34.8003 41.5613 35.2791 41.054 35.8629 40.6941C36.7003 40.0735 37.6395 39.6039 38.6384 39.3064L38.5135 39.2647ZM36.9176 37.9186L37.0287 37.7105C36.1544 37.9186 33.9062 38.1962 32.8654 38.4876C32.0344 38.7094 31.2586 39.1014 30.5874 39.6389C29.916 40.1765 29.3638 40.8478 28.9658 41.6101C28.9658 41.6101 30.5062 42.0958 33.5315 40.7358C34.9584 39.9851 36.4491 39.3629 37.9862 38.8762C37.6384 38.8762 37.2975 38.7801 37.0009 38.5986C35.629 39.267 34.1388 39.6583 32.6156 39.7505C33.0876 39.41 33.6003 39.1303 34.1421 38.9178C35.015 38.4543 35.9497 38.1179 36.9176 37.9186ZM36.9176 36.5309C37.1952 36.6492 37.4908 36.7196 37.7919 36.739C37.5688 36.8686 37.3674 37.0325 37.1952 37.2247C35.2852 37.7044 33.3332 37.9972 31.3666 38.099C29.8782 38.309 28.3627 38.2146 26.9119 37.8215C28.0948 37.1461 29.3717 36.6502 30.7005 36.3505C31.7552 36.1423 34.6695 36.1423 36.0295 35.9619C36.1505 36.0658 36.2805 36.1587 36.418 36.2394C34.864 36.2489 33.322 36.5113 31.8523 37.0166C33.5562 37.2109 35.2817 37.0455 36.9176 36.5309ZM36.7372 34.7823C36.9291 34.6756 37.1286 34.5827 37.334 34.5047C35.2033 33.7681 32.9888 33.302 30.7421 33.117C29.1502 32.9237 27.5372 32.994 25.9682 33.3252C27.3123 34.2082 28.7944 34.8602 30.3536 35.2541C32.2211 35.551 34.1174 35.6209 36.0017 35.4623C36.1093 35.284 36.2398 35.1206 36.3903 34.9766C34.5865 34.9662 32.7929 34.7046 31.0613 34.1994C32.9757 34.0505 34.9015 34.2384 36.7511 34.7545L36.7372 34.7823ZM36.7511 33.0337C36.9464 33.6249 37.3578 34.1206 37.9029 34.4215C35.7658 33.5472 31.6858 32.9505 29.4515 32.1039C26.4401 30.8411 25.9405 29.3284 25.9405 29.3284C28.0876 29.3451 30.2188 29.701 32.2548 30.3831C34.1838 30.9798 37.0286 32.0345 38.0833 32.5203C37.6674 32.5212 37.263 32.6576 36.9315 32.9088C35.8768 32.4231 34.6833 32.1317 33.6287 31.757C32.8508 31.4917 32.0358 31.3511 31.214 31.3407C31.9442 31.7785 32.7216 32.1324 33.5315 32.3954C34.614 32.6729 35.6686 32.8811 36.765 33.1031L36.7511 33.0337ZM36.654 30.855C36.765 31.0631 36.9315 31.3407 37.0425 31.5211C33.9273 30.8595 31.1089 29.2095 29.0074 26.8166C28.3123 25.643 28.0382 24.2674 28.2303 22.917C29.7636 23.6124 31.1453 24.6026 32.2964 25.8313C33.4621 27.0685 34.7294 28.2057 36.085 29.2313L36.4735 30.3831C35.4189 29.5088 34.0589 28.5235 33.2817 27.8574C32.5083 27.2579 31.659 26.7633 30.756 26.3864C31.2238 26.9778 31.7389 27.5302 32.2964 28.0378C33.0151 28.6319 33.7916 29.1526 34.614 29.5921C35.2307 30.1111 35.9294 30.5238 36.6817 30.8133" fill="#1A1A1A"/>
<path d="M46.0213 40L46.2989 39.7224C46.6874 40.2081 46.965 40.7077 47.2842 41.1934C47.4809 41.766 47.6432 42.35 47.7699 42.942C47.8738 43.5224 48.0756 44.0808 48.3666 44.5934C48.1061 44.5983 47.8477 44.5477 47.6083 44.4448C47.3691 44.3418 47.1544 44.1892 46.9789 43.9967C46.5162 43.4036 46.215 42.7008 46.1046 41.9567C45.9149 41.3174 45.8768 40.6426 45.9935 39.9861L46.0213 40ZM44.6058 40.0971L44.8833 40.3747L44.9944 40.4857H45.1054L45.3829 40.3747C45.5099 40.6148 45.5811 40.8804 45.5911 41.1518C45.6959 41.6366 45.6959 42.1381 45.5911 42.6228C45.46 43.0526 45.2321 43.4466 44.925 43.7747C44.6431 43.4646 44.4178 43.1077 44.2589 42.72C44.0479 42.1897 44.0479 41.5988 44.2589 41.0686C44.3976 40.6522 44.5087 40.3608 44.6058 40.0832V40.0971ZM42.8572 40.1526C43.3091 40.0867 43.7405 39.9209 44.1201 39.6669C44.1893 39.7825 44.2348 39.9109 44.2539 40.0442C44.273 40.1778 44.2652 40.3136 44.2311 40.4441C44.0991 40.845 43.8704 41.2073 43.565 41.4988C43.2862 41.7397 42.9623 41.9226 42.612 42.0369C42.2617 42.1513 41.8922 42.1949 41.525 42.1649C41.3862 42.2343 41.2058 41.6375 42.9127 40.1665L42.8572 40.1526ZM42.2466 39.1118C42.287 39.4352 42.4223 39.7394 42.6352 39.9861C42.3955 40.3759 42.0512 40.6905 41.6415 40.8942C41.2317 41.0978 40.7731 41.1823 40.3176 41.1379C40.2094 40.863 40.2111 40.557 40.3221 40.2832C40.4332 40.0094 40.6453 39.7888 40.9144 39.6669C41.3723 39.4865 41.7609 39.2783 42.3021 39.1118" fill="#1A1A1A"/>
<path d="M42.4688 38.1394C41.984 38.2442 41.4825 38.2442 40.9978 38.1394H40.7896V37.9174C40.0124 38.5141 39.2492 38.5835 38.93 39.1802C39.0847 39.397 39.2958 39.5673 39.5405 39.6725C39.7851 39.7777 40.0539 39.8139 40.3177 39.777C40.7339 39.7421 41.1386 39.622 41.5064 39.4238C41.874 39.2255 42.1969 38.9537 42.4549 38.6251C42.4135 38.5509 42.3919 38.4672 42.3919 38.3823C42.3919 38.2973 42.4135 38.2137 42.4549 38.1394H42.4688ZM40.8035 37.2651C40.901 36.9711 41.0676 36.7046 41.2892 36.488C40.6505 36.3829 39.9988 36.3829 39.3602 36.488C38.8576 36.4841 38.367 36.6427 37.9619 36.9404C37.5568 37.2379 37.2586 37.6586 37.112 38.1394C37.5753 38.4146 38.1223 38.5133 38.6524 38.417C39.0693 38.3846 39.4748 38.2654 39.8429 38.0671C40.2109 37.8687 40.5334 37.5956 40.7896 37.2651H40.8035ZM40.401 35.8774C40.1851 35.6319 39.9858 35.3722 39.8043 35.1002L39.6933 34.9476C38.9723 34.5969 38.1477 34.5228 37.3757 34.7394C36.899 34.8828 36.49 35.1931 36.2239 35.6137C36.7682 36.0257 37.4079 36.2931 38.0835 36.3908C38.8853 36.4962 39.6995 36.3353 40.401 35.9329V35.8774ZM40.6092 34.3508C40.7202 34.2398 40.8867 34.2398 41.0949 34.2398C40.6915 33.8404 40.4203 33.3271 40.3177 32.7688C39.805 32.889 39.2676 32.8503 38.7773 32.6578C38.5053 32.5584 38.2136 32.5255 37.9264 32.5617C37.6391 32.598 37.3648 32.7022 37.1259 32.8659C37.2269 33.1937 37.4187 33.4864 37.6791 33.7098C37.9393 33.9333 38.2576 34.0786 38.5969 34.1288C38.8906 34.3171 39.2243 34.434 39.5714 34.4702C39.9184 34.5063 40.269 34.4608 40.5953 34.337L40.6092 34.3508ZM40.1651 32.3664L40.3733 32.2553C40.6133 32.1284 40.879 32.0572 41.1504 32.0472C40.5133 31.5 39.8308 31.0077 39.1104 30.5761C38.2872 30.0988 37.399 29.7435 36.4737 29.5215C36.7347 30.3169 37.1656 31.0462 37.7365 31.6586C38.0249 32.001 38.4076 32.2506 38.8372 32.3765C39.2667 32.5023 39.7238 32.4989 40.1512 32.3664H40.1651ZM41.4141 31.7002C41.0931 31.2355 40.8668 30.712 40.748 30.1598C40.5398 29.4937 40.3594 28.6888 40.0818 28.0227C39.5979 27.138 38.7933 26.4726 37.8337 26.1631C37.6195 27.0937 37.7171 28.0689 38.1112 28.9386C38.9686 30.12 40.1026 31.073 41.4141 31.7141V31.7002ZM48.9912 38.6529C49.1641 38.8186 49.3665 38.9504 49.5879 39.0415C49.7173 39.3383 49.7747 39.6614 49.7555 39.9846C49.7362 40.3078 49.6407 40.6218 49.4769 40.901C49.0055 41.7391 48.6196 42.6224 48.3251 43.5378C48.3251 43.5378 48.0475 43.5378 47.7284 41.8864C47.6311 41.2734 47.3616 40.7007 46.9512 40.2349C47.1315 40.3493 47.3356 40.4205 47.548 40.4431H47.7561L47.8671 40.2349C48.0392 39.9368 48.1121 39.5918 48.0753 39.2496V38.9721C48.2425 39.0068 48.4161 38.9954 48.5774 38.9392C48.7386 38.883 48.8817 38.784 48.9912 38.6529Z" fill="#1A1A1A"/>
<path d="M37.4589 26.8163V27.6906C36.6818 26.7053 35.7104 25.4424 34.6834 24.2906C34.2049 23.6528 33.6233 23.0993 32.9626 22.653C33.3552 23.8755 34.0581 24.9751 35.0026 25.8448C35.7576 26.6117 36.5644 27.3259 37.4173 27.982L37.5283 28.2595C37.6393 28.5371 37.7365 28.8563 37.8059 29.0367C38.0156 29.4221 38.277 29.7769 38.583 30.0914C38.3055 29.9804 37.9863 29.8138 37.7087 29.7028H37.4589C35.0248 28.3227 33.0105 26.3084 31.6304 23.8742C30.9457 22.183 30.8527 20.3099 31.3667 18.5591C32.6269 19.7021 33.7663 20.9716 34.7667 22.3477C35.7903 23.7575 36.691 25.2524 37.4589 26.8163ZM71.7365 34.782C71.5445 34.6753 71.3451 34.5824 71.1397 34.5044C73.2704 33.7678 75.4849 33.3017 77.7316 33.1167C79.3235 32.9234 80.9364 32.9937 82.5054 33.3248C81.1614 34.2079 79.6793 34.8598 78.1201 35.2538C76.2526 35.5507 74.3563 35.6206 72.472 35.462C72.3644 35.2837 72.2338 35.1203 72.0834 34.9763C73.8872 34.9659 75.6807 34.7043 77.4124 34.1991C75.498 34.0502 73.5722 34.2381 71.7226 34.7542L71.7365 34.782ZM71.7226 33.0334C71.5273 33.6246 71.1159 34.1203 70.5708 34.4212C72.7079 33.5469 76.7879 32.9502 79.0222 32.1036C82.0336 30.8408 82.5332 29.3281 82.5332 29.3281C80.3861 29.3448 78.2549 29.7007 76.2189 30.3828C74.2899 30.9795 71.445 32.0342 70.3904 32.5199C70.8063 32.5209 71.2106 32.6573 71.5422 32.9085C72.5969 32.4228 73.7904 32.1314 74.845 31.7567C75.6284 31.5174 76.4408 31.3867 77.2597 31.3681C76.5295 31.8059 75.7521 32.1598 74.9422 32.4228C73.8597 32.6726 72.805 32.8808 71.7087 33.0889L71.7226 33.0334ZM71.9169 30.8408C71.8059 31.0489 71.6393 31.3265 71.5283 31.5069C74.6669 30.8631 77.5111 29.217 79.6328 26.8163C80.3279 25.6427 80.602 24.2671 80.4099 22.9167C78.8766 23.6121 77.495 24.6023 76.3438 25.831C75.1866 27.0768 73.9184 28.2147 72.5552 29.231L72.1667 30.3828C73.2214 29.5085 74.5814 28.5232 75.3585 27.8571C76.1319 27.2576 76.9812 26.763 77.8842 26.3861C77.4164 26.9775 76.9013 27.5297 76.3438 28.0375C75.6207 28.6323 74.8396 29.153 74.0124 29.5918C73.3632 30.0631 72.6708 30.4719 71.9446 30.813L71.9169 30.8408ZM71.0704 26.8163V27.6906C71.8475 26.7053 72.8189 25.4424 73.8459 24.2906C74.3244 23.6528 74.906 23.0993 75.5667 22.653C75.1741 23.8755 74.4712 24.9751 73.5267 25.8448C72.7717 26.6117 71.9649 27.3259 71.112 27.982L71.001 28.2595C70.8899 28.5371 70.7928 28.8563 70.7234 29.0367C70.5137 29.4221 70.2523 29.7769 69.9463 30.0914C70.2238 29.9804 70.543 29.8138 70.8206 29.7028L71.0981 29.5918C73.5322 28.2117 75.5466 26.1973 76.9267 23.7632C77.5927 22.0813 77.6758 20.2244 77.1626 18.4897C75.9024 19.6327 74.763 20.9022 73.7626 22.2783C72.7154 23.6981 71.787 25.202 70.9871 26.7746L71.0704 26.8163ZM40.4565 41.5404C39.4712 42.5257 37.334 44.8432 37.5422 47.2579C38.6673 46.9029 39.6431 46.1857 40.3177 45.2179C40.8041 44.2561 41.3559 43.3288 41.9691 42.4424H41.0949C40.5307 43.5905 39.7034 44.5891 38.6802 45.3567C38.6802 45.3567 38.472 44.2048 41.0949 41.6791C41.0949 41.5681 41.2059 41.471 41.303 41.4016C41.0201 41.4879 40.7243 41.5255 40.4287 41.5126L40.4565 41.5404ZM67.5177 27.9404C66.6952 29.5084 65.4563 30.8193 63.9373 31.7289C63.6317 31.9565 63.4184 32.2868 63.3368 32.659C63.2554 33.0313 63.3109 33.4205 63.4932 33.7551C63.8818 34.7404 64.645 36.1697 64.2704 36.7665C63.8957 37.3632 62.0222 37.6408 60.5928 37.044C60.3615 37.5485 60.102 38.0396 59.8157 38.5151C59.9446 38.6602 60.1175 38.7593 60.3079 38.7968C60.4984 38.8344 60.6959 38.8086 60.8704 38.7232C60.7842 38.9623 60.7495 39.2171 60.7686 39.4707C60.7878 39.7241 60.8602 39.9707 60.9814 40.1942C61.2693 40.1379 61.542 40.0209 61.7813 39.851C62.0207 39.681 62.2209 39.4622 62.3691 39.2089C62.6218 39.6024 62.9903 39.9078 63.4238 40.0832C63.6554 39.9092 63.8268 39.6672 63.9138 39.391C64.001 39.1147 63.9995 38.8181 63.9095 38.5428C64.1017 38.8818 64.3696 39.1722 64.692 39.3911C65.0145 39.6101 65.3831 39.752 65.7691 39.8057C66.0057 39.4541 66.1141 39.032 66.0762 38.61C66.0384 38.188 65.8564 37.7919 65.561 37.4881C65.8495 37.7036 66.1882 37.8421 66.545 37.8907C66.902 37.9393 67.2653 37.8962 67.601 37.7657C67.601 37.7657 67.8091 37.0995 66.6157 36.1142C67.0081 36.1002 67.3909 35.9874 67.7281 35.786C68.0653 35.5847 68.3462 35.3013 68.5446 34.9624C68.2638 34.7283 67.9376 34.5545 67.5867 34.4518C67.2357 34.3491 66.8674 34.3199 66.5046 34.3657C66.9189 34.2471 67.2877 34.0061 67.5627 33.6743C67.8376 33.3425 68.0056 32.9352 68.045 32.5061C67.6487 32.3273 67.2086 32.2689 66.7794 32.3379C66.3502 32.407 65.9507 32.6006 65.6304 32.8946C65.8838 32.5344 66.1771 32.2038 66.5046 31.9093C67.0241 31.3975 67.4057 30.7629 67.6144 30.0642C67.823 29.3654 67.8519 28.6254 67.6981 27.9126L67.5177 27.9404ZM62.1471 43.844C62.346 43.6101 62.5097 43.3482 62.6328 43.0669C62.4246 44.9959 62.3553 46.2587 61.245 47.5216C60.8354 46.6538 60.7611 45.6652 61.0369 44.7461C61.2288 44.6394 61.4282 44.5465 61.6336 44.4685C61.4918 45.007 61.4541 45.5675 61.5226 46.1199C61.8361 45.4057 62.0373 44.6474 62.1193 43.8718L62.1471 43.844ZM63.8679 43.6636C64.0818 43.4409 64.2472 43.1762 64.3536 42.8865C64.4646 44.0383 64.7422 46.9526 63.7569 47.8408C63.7569 47.8408 63.0908 47.355 62.8826 43.0669C63.0908 43.275 63.1601 43.5526 63.3683 43.733C63.2688 44.5165 63.3642 45.3127 63.6459 46.0506C63.6459 46.0506 64.1316 45.8008 63.854 43.6636H63.8679ZM66.1716 45.9118C65.2973 44.9265 65.1169 41.9428 65.1169 41.9428C65.0093 41.8229 64.8767 41.7281 64.7283 41.6653L64.6728 41.582V41.8595C64.6743 43.4142 64.937 44.9576 65.4499 46.4253C65.8184 47.027 66.3535 47.5091 66.9904 47.813C67.9757 46.1616 66.7822 43.9134 65.8385 42.262C65.6902 42.2358 65.554 42.1628 65.4499 42.0538C65.8385 43.4416 66.5324 44.8293 66.2271 45.9534L66.1716 45.9118ZM68.5724 40.791C68.587 40.93 68.5471 41.0692 68.4614 41.1795V41.2906C69.391 42.2573 70.236 43.3018 70.9871 44.413C71.3426 44.8867 71.7953 45.279 72.3146 45.5637C72.8339 45.8485 73.408 46.0192 73.9985 46.0644C73.8733 44.7595 73.3335 43.5291 72.4581 42.5534C71.5037 41.5093 70.4328 40.5779 69.2663 39.7779C68.9585 39.9206 68.6128 39.9594 68.281 39.8889H68.1699C68.2994 40.0178 68.3741 40.1919 68.3781 40.3746C69.8225 41.0684 71.0542 42.1371 71.9446 43.4693C72.125 43.6081 70.7512 43.2195 68.5446 40.8048L68.5724 40.791ZM69.9324 39.2644V39.0563L69.8214 38.9453C70.5985 39.2228 73.3324 40.333 74.2067 40.6938C74.8874 41.072 75.4842 41.5842 75.9612 42.1997C76.4383 42.815 76.7857 43.5208 76.9822 44.2742C76.3893 44.325 75.7922 44.258 75.2253 44.0769C74.6585 43.8959 74.1331 43.6045 73.6793 43.2195C72.2083 41.9567 70.3765 40.2081 69.7104 39.6391L69.9185 39.431C71.1969 40.4716 72.5945 41.3568 74.0818 42.0677C73.7566 41.4639 73.2779 40.9564 72.694 40.5967C71.8383 40.0065 70.9041 39.5394 69.9185 39.2089L69.9324 39.2644ZM71.6116 37.9183C71.6116 37.8073 71.5006 37.8073 71.5006 37.7102C72.3748 37.9183 74.623 38.1959 75.6638 38.4873C76.4948 38.7091 77.2706 39.1011 77.9418 39.6386C78.6132 40.1762 79.1654 40.8474 79.5634 41.6097C79.5634 41.6097 78.023 42.0955 74.9977 40.7355C73.5708 39.9848 72.0801 39.3626 70.543 38.8759C70.8908 38.8759 71.2318 38.7798 71.5283 38.5983C72.9002 39.2667 74.3904 39.658 75.9136 39.7502C75.4416 39.4097 74.9289 39.13 74.3871 38.9175C73.5028 38.4801 72.5716 38.1449 71.6116 37.9183ZM71.6116 36.5306C71.334 36.6489 71.0384 36.7193 70.7373 36.7387C70.9604 36.8683 71.1618 37.0322 71.334 37.2244C73.244 37.704 75.196 37.9969 77.1626 38.0987C78.651 38.3087 80.1665 38.2143 81.6173 37.8212C80.4344 37.1458 79.1575 36.6499 77.8287 36.3502C76.774 36.142 73.8597 36.142 72.4997 35.9616C72.3787 36.0655 72.2487 36.1584 72.1112 36.2391C73.6652 36.2486 75.2072 36.511 76.6769 37.0163C74.973 37.2074 73.248 37.0419 71.6116 36.5306Z" fill="#1A1A1A"/>
<path d="M62.5077 39.9998L62.2302 39.7222C61.8755 40.172 61.5814 40.6666 61.3559 41.1933C61.1591 41.7659 60.9969 42.3498 60.8702 42.9418C60.7184 43.5082 60.5187 44.0607 60.2735 44.5933C60.5459 44.5956 60.8161 44.5441 61.0685 44.4417C61.3209 44.3393 61.5507 44.188 61.7445 43.9965C62.2072 43.4034 62.5083 42.7007 62.6188 41.9565C62.7489 41.3008 62.7106 40.6229 62.5077 39.9859V39.9998ZM63.8955 40.0969L63.6179 40.3745L63.5069 40.4855H63.3959L63.0073 40.3745C62.8804 40.6146 62.8092 40.8802 62.7992 41.1516C62.6944 41.6364 62.6944 42.1379 62.7992 42.6227C62.9303 43.0524 63.1582 43.4464 63.4653 43.7745C63.7471 43.4645 63.9725 43.1075 64.1314 42.7198C64.3424 42.1895 64.3424 41.5986 64.1314 41.0684C64.1332 40.7241 64.0473 40.3849 63.8816 40.0831L63.8955 40.0969ZM65.6302 40.1525C65.1783 40.0865 64.7469 39.9207 64.3673 39.6667C64.2981 39.7823 64.2526 39.9107 64.2334 40.0441C64.2144 40.1776 64.2222 40.3134 64.2563 40.4439C64.3883 40.8448 64.6171 41.2071 64.9224 41.4986C65.2012 41.7395 65.5251 41.9224 65.8754 42.0367C66.2257 42.1511 66.5952 42.1947 66.9624 42.1647C67.0735 42.2341 67.2816 41.6374 65.5747 40.1663L65.6302 40.1525ZM66.2408 39.1116C66.2004 39.435 66.0651 39.7392 65.8522 39.9859C66.0919 40.3757 66.4362 40.6903 66.8459 40.8941C67.2557 41.0977 67.7143 41.1822 68.1698 41.1378C68.2779 40.8628 68.2764 40.5568 68.1653 40.283C68.0542 40.0092 67.8421 39.7886 67.573 39.6667C67.1151 39.4863 66.7265 39.2782 66.1853 39.1116H66.2408ZM66.0604 38.1402C66.5451 38.245 67.0467 38.245 67.5314 38.1402H67.7396V37.9182C68.5167 38.5149 69.28 38.5843 69.6686 39.181C69.5296 39.3832 69.3395 39.545 69.1176 39.6498C68.8959 39.7547 68.6502 39.7989 68.4057 39.7778C67.9894 39.7429 67.5848 39.6228 67.2171 39.4246C66.8495 39.2263 66.5265 38.9545 66.2686 38.6259C66.1378 38.4978 66.063 38.3233 66.0604 38.1402ZM67.7118 37.2659C67.6143 36.9719 67.4476 36.7054 67.2261 36.4888C67.8647 36.3837 68.5164 36.3837 69.1551 36.4888C69.6577 36.4849 70.1483 36.6435 70.5534 36.9412C70.9586 37.2387 71.2567 37.6594 71.4032 38.1402C70.94 38.4154 70.393 38.5141 69.8628 38.4178C69.4426 38.4003 69.0318 38.2874 68.6616 38.0879C68.2913 37.8883 67.9713 37.6073 67.7257 37.2659H67.7118ZM68.1143 35.8782C68.3513 35.6509 68.5525 35.3887 68.711 35.101L68.822 34.8929C69.543 34.5422 70.3676 34.4681 71.1396 34.6847C71.6163 34.8281 72.0252 35.1384 72.2914 35.559C71.7471 35.971 71.1074 36.2384 70.4318 36.3361C69.6364 36.3406 68.8483 36.1849 68.1143 35.8782ZM67.7951 34.2961C67.6841 34.1851 67.5175 34.1851 67.3094 34.1851C67.7081 33.767 68.0069 33.2641 68.1837 32.7141C68.6964 32.8343 69.2338 32.7955 69.7241 32.6031C69.9961 32.5037 70.2878 32.4708 70.575 32.507C70.8623 32.5433 71.1367 32.6475 71.3755 32.8112C71.2745 33.139 71.0827 33.4317 70.8223 33.6551C70.5621 33.8786 70.2438 34.0238 69.9045 34.0741C69.5915 34.266 69.239 34.3844 68.8736 34.4205C68.5084 34.4566 68.1395 34.4092 67.7951 34.2822V34.2961ZM68.3363 32.3671H68.1281C67.8881 32.2402 67.6224 32.169 67.351 32.159C67.9881 31.6118 68.6706 31.1196 69.391 30.688C70.192 30.1666 71.0881 29.8081 72.0277 29.6333C71.7258 30.4096 71.2992 31.1315 70.7649 31.7704C70.4789 32.1157 70.0961 32.3677 69.6658 32.4937C69.2356 32.6199 68.7773 32.6144 68.3502 32.4782L68.3363 32.3671ZM67.0873 31.812C67.4083 31.3473 67.6347 30.8238 67.7535 30.2716C67.9616 29.6055 68.142 28.8006 68.4196 28.1345C68.9035 27.2498 69.7081 26.5844 70.6677 26.2749C70.8819 27.2055 70.7843 28.1807 70.3902 29.0504C69.5414 30.2399 68.4051 31.1948 67.0873 31.8259V31.812ZM59.5102 38.7647C59.3373 38.9304 59.1349 39.0622 58.9135 39.1533C58.7841 39.4501 58.7267 39.7732 58.746 40.0964C58.7652 40.4196 58.8607 40.7336 59.0245 41.0129C59.4959 41.8509 59.8818 42.7342 60.1763 43.6496C60.1763 43.6496 60.4539 43.6496 60.7731 41.9982C60.8703 41.3852 61.1398 40.8125 61.5502 40.3467C61.3699 40.4611 61.1658 40.5323 60.9535 40.5549H60.7453L60.6343 40.3467C60.4622 40.0487 60.3893 39.7037 60.4261 39.3614V39.0839C60.2589 39.1129 60.0871 39.0987 59.9268 39.0429C59.7665 38.987 59.6232 38.8913 59.5102 38.7647Z" fill="#1A1A1A"/>
<path d="M67.9478 41.5404C68.9331 42.5257 71.0703 44.8432 70.8621 47.2579C69.7371 46.9029 68.7612 46.1857 68.0866 45.2179C67.6002 44.2561 67.0484 43.3288 66.4352 42.4424H67.3095C67.8736 43.5905 68.701 44.5891 69.7241 45.3567C69.7241 45.3567 69.9323 44.2048 67.3095 41.6791C67.3095 41.5681 67.1984 41.471 67.1013 41.4016C67.3843 41.4879 67.68 41.5255 67.9756 41.5126L67.9478 41.5404ZM47.4507 23.791C48.0764 23.5804 48.7539 23.5804 49.3797 23.791C48.7487 23.9668 48.0817 23.9668 47.4507 23.791ZM54.5421 22.653C54.5421 22.8612 54.4311 22.9306 54.2646 22.9306C54.2276 22.9325 54.1906 22.9268 54.156 22.9135C54.1215 22.9003 54.09 22.8799 54.0639 22.8537C54.0377 22.8276 54.0173 22.7961 54.0041 22.7615C53.9908 22.727 53.9851 22.6899 53.987 22.653C53.987 22.4448 54.098 22.3755 54.2646 22.3755C54.3015 22.3735 54.3385 22.3792 54.3731 22.3925C54.4076 22.4057 54.4391 22.4261 54.4652 22.4523C54.4915 22.4784 54.5119 22.5099 54.525 22.5445C54.5384 22.579 54.5441 22.6161 54.5421 22.653ZM52.6131 21.5983C52.2293 20.8299 51.9359 20.0196 51.7389 19.1836C51.8499 18.9755 51.947 18.7951 52.2246 18.7951C52.5021 18.7951 52.6131 18.684 52.7103 18.7951C53.0525 19.5966 53.2543 20.4509 53.307 21.3208C53.0632 21.3915 52.8262 21.4844 52.5993 21.5983H52.6131ZM53.5429 21.3902H53.9315C53.8312 20.6652 53.6687 19.9501 53.4458 19.253C53.4205 19.0871 53.3539 18.9302 53.2521 18.7968C53.1502 18.6634 53.0164 18.5578 52.8629 18.4897C52.9739 18.8783 53.1405 19.2669 53.2515 19.6416C53.39 20.2321 53.4966 20.8298 53.5707 21.4318L53.5429 21.3902ZM52.7935 23.4718C52.2867 23.7441 51.7172 23.8781 51.1421 23.8604C51.3642 23.4764 51.6615 23.1412 52.0164 22.8751C52.5038 22.5546 53.0887 22.417 53.6678 22.4865C53.4516 22.8746 53.1533 23.2109 52.7935 23.4718ZM51.9193 23.5828C52.3556 23.4114 52.7489 23.1462 53.0711 22.8057C52.5994 22.902 52.1851 23.1815 51.9193 23.5828Z" fill="#1A1A1A"/>
<path d="M47.2841 23.9718C47.9071 24.1716 48.559 24.2655 49.2131 24.2494C50.358 24.2587 51.4998 24.1282 52.6131 23.8608C52.5688 24.0008 52.4914 24.1281 52.3876 24.232C52.2836 24.3358 52.1564 24.4133 52.0163 24.4575C52.1991 24.4615 52.3731 24.5362 52.5021 24.6657C52.4415 24.7835 52.3573 24.8874 52.2546 24.9711C52.1519 25.0547 52.033 25.1161 51.9053 25.1514C52.3168 25.5593 52.8668 25.7971 53.4457 25.8175C53.2911 25.9545 53.1052 26.0514 52.9044 26.0998C52.7035 26.1481 52.494 26.1466 52.2939 26.0951C51.7942 25.9939 51.3466 25.7184 51.031 25.3179C51.1189 25.5039 51.157 25.7096 51.142 25.9147C51.0108 25.8973 50.8843 25.8539 50.77 25.7873C50.6556 25.7205 50.5557 25.6317 50.4759 25.5261C50.601 25.7268 50.6726 25.956 50.6841 26.1922C50.468 26.1882 50.259 26.1153 50.0874 25.9841C50.1731 26.1309 50.2118 26.3003 50.1984 26.4698C49.6741 26.2809 49.1789 26.0193 48.7274 25.6926V26.1783C48.8384 26.2894 47.3396 26.0673 47.3396 23.9302L47.2841 23.9718ZM49.8653 24.8045H48.1584C48.1757 24.9357 48.2192 25.0622 48.2858 25.1765C48.3525 25.2909 48.4413 25.3908 48.5469 25.4706C48.5469 24.8045 49.8098 24.8045 49.8098 24.8045H49.8653ZM47.0343 24.1383C47.0423 24.5735 47.1367 25.0028 47.3118 25.4012C47.0161 25.2157 46.7838 24.9446 46.6457 24.6241C46.5347 24.1383 46.5347 23.9163 47.0343 24.1383ZM47.3535 25.5261L48.1306 26.1228C47.8445 26.2311 47.5526 26.3238 47.2563 26.4004C46.9698 26.1622 46.6089 26.0319 46.2363 26.0319C45.8637 26.0319 45.5029 26.1622 45.2163 26.4004C45.0741 26.3254 44.9495 26.2209 44.8511 26.0937C44.7527 25.9666 44.6826 25.8197 44.6458 25.6632C44.6089 25.5067 44.6061 25.344 44.6375 25.1864C44.669 25.0286 44.7338 24.8794 44.8278 24.749C44.9991 24.5606 45.2263 24.4323 45.4761 24.3823C45.7258 24.3323 45.9849 24.3636 46.2155 24.4714C46.3226 24.7183 46.4806 24.9398 46.679 25.1216C46.8775 25.3032 47.112 25.441 47.3674 25.5261H47.3535ZM45.9796 25.7343C46.0208 25.7343 46.0611 25.722 46.0952 25.6991C46.1295 25.6762 46.1561 25.6438 46.1719 25.6058C46.1876 25.5677 46.1918 25.5258 46.1837 25.4854C46.1757 25.445 46.1558 25.408 46.1268 25.3789C46.0977 25.3498 46.0607 25.33 46.0203 25.322C45.9799 25.3139 45.938 25.3181 45.8999 25.3338C45.8619 25.3496 45.8294 25.3762 45.8065 25.4105C45.7836 25.4446 45.7714 25.4849 45.7714 25.5261C45.7714 25.6371 45.7714 25.7343 45.9796 25.7343ZM48.1861 26.2894C48.3917 26.5621 48.6143 26.8216 48.8523 27.0665C48.4397 27.0519 48.0326 27.1656 47.6872 27.3917C47.3418 27.6179 47.075 27.9454 46.9233 28.3294C46.7842 28.1283 46.7007 27.8942 46.6811 27.6505C46.6617 27.4068 46.7069 27.1623 46.8122 26.9416C46.9843 26.74 47.1967 26.5765 47.4356 26.4619C47.6747 26.3471 47.9351 26.2837 48.2 26.2755L48.1861 26.2894ZM49.8792 26.5947L50.5453 26.8028V26.4143C50.7535 26.4143 50.8229 26.5253 51.031 26.5253C51.1999 27.1301 51.4773 27.699 51.8498 28.2045C51.8272 28.4168 51.756 28.6209 51.6416 28.8012C51.4068 28.4014 51.1473 28.0167 50.8645 27.6494C50.6142 27.244 50.2463 26.9245 49.8098 26.7334L49.8792 26.5947ZM48.5469 26.5253C49.0442 26.6312 49.5157 26.8339 49.9347 27.122C50.1706 27.2693 50.3655 27.4735 50.5013 27.7161C50.6372 27.9588 50.7096 28.2317 50.7118 28.5098C50.4992 28.2081 50.2364 27.9452 49.9347 27.7326C49.3685 27.4741 48.8872 27.0603 48.5469 26.5392V26.5253ZM48.5469 21.5849C48.7551 21.5849 48.9355 21.6959 48.9355 21.8624C48.8176 22.2325 48.6544 22.5868 48.4498 22.9171C48.2255 22.5978 48.0611 22.2404 47.9641 21.8624C48.0278 21.7651 48.1174 21.6877 48.2229 21.6387C48.3284 21.5896 48.4454 21.571 48.5608 21.5849H48.5469ZM48.2416 23.4445C48.16 22.9697 48.0299 22.5047 47.8531 22.0567C47.6728 21.9424 47.4687 21.8712 47.2563 21.8485C47.1849 21.8548 47.1178 21.886 47.067 21.9368C47.0163 21.9876 46.985 22.0546 46.9788 22.1261V22.2371C47.2121 22.6734 47.4716 23.0952 47.7559 23.5C47.91 23.4385 48.0765 23.4146 48.2416 23.4306V23.4445ZM48.7274 23.4306C48.809 22.9558 48.9391 22.4908 49.1159 22.0428C49.2962 21.9285 49.5003 21.8573 49.7127 21.8347C49.7841 21.8409 49.8512 21.8721 49.9019 21.9229C49.9527 21.9737 49.984 22.0407 49.9902 22.1122V22.2232C49.7811 22.673 49.5203 23.0968 49.2131 23.4861C49.0597 23.4218 48.8925 23.3978 48.7274 23.4167V23.4306ZM49.2131 20.4053H48.6163V19.8779H48.3388V20.3636H47.7421V20.7522H48.3388V21.2657H48.6163V20.7106H49.2131V20.4053ZM43.2874 23.8747V22.931C43.0507 23.0091 42.8338 23.1376 42.6518 23.3078C42.4696 23.4779 42.3266 23.6855 42.2327 23.9163C42.2327 23.9163 43.0098 23.4306 43.2874 23.9163V23.8747ZM43.9535 25.1792C44.0645 24.7906 44.1616 24.3049 44.231 23.9163C44.3291 23.6278 44.3613 23.3209 44.3254 23.0184C44.2893 22.7157 44.1859 22.4252 44.0229 22.1677C43.8172 21.7352 43.7219 21.2583 43.7453 20.78L43.0792 21.0575C43.1093 21.5424 43.2417 22.0154 43.4678 22.4453C43.6072 22.8123 43.6455 23.2102 43.5788 23.5971C43.5252 23.8733 43.5322 24.1576 43.5992 24.4309C43.6663 24.704 43.7919 24.9593 43.9674 25.1792H43.9535ZM43.9674 21.0159V20.7383C44.3296 20.3309 44.8185 20.0571 45.3551 19.9612C45.6327 19.8502 45.8408 19.9612 46.1323 20.1694C45.9495 20.1734 45.7755 20.248 45.6465 20.3775C45.3497 20.643 45.0182 20.8671 44.6612 21.0436C44.4395 21.0271 44.2169 21.0271 43.9951 21.0436" fill="#1A1A1A"/>
<path d="M46.0906 20.071C46.3276 20.2747 46.4969 20.5459 46.5763 20.8481C46.4896 21.2596 46.3247 21.6507 46.0906 22C45.8545 22.2757 45.7178 22.6227 45.702 22.9853C45.702 23.1935 45.9102 23.3739 45.9796 23.582C45.7722 23.5236 45.5787 23.4249 45.4095 23.2916C45.2405 23.1582 45.0993 22.9928 44.9943 22.8049C44.9415 22.6203 44.9396 22.4251 44.9883 22.2395C45.0371 22.0538 45.1351 21.8849 45.2718 21.7502C45.4438 21.3694 45.668 21.0144 45.9379 20.6955C46.048 20.5018 46.0964 20.279 46.0767 20.0571L46.0906 20.071ZM51.2392 26.191C51.4039 26.7811 51.6666 27.3394 52.0163 27.8424C52.2583 28.2658 52.3918 28.7427 52.4049 29.2302C52.6067 28.7679 52.6785 28.2593 52.613 27.7592C52.3669 27.0857 51.8695 26.5336 51.2253 26.2188L51.2392 26.191ZM52.2106 26.3992C52.5117 26.4186 52.8073 26.489 53.0849 26.6073C53.532 26.9514 53.8419 27.4433 53.9592 27.9951C53.6505 27.9084 53.3561 27.7775 53.0849 27.6065C52.6909 27.2951 52.3886 26.8827 52.2106 26.413V26.3992ZM49.0881 27.6065C48.88 27.6065 48.6996 27.7175 48.4914 27.7175C48.7638 27.8183 49.0245 27.9486 49.2686 28.1061C49.4123 28.2286 49.5296 28.3792 49.613 28.5487C49.6965 28.7181 49.7447 28.9028 49.7543 29.0914C49.8892 29.6275 50.0896 30.1449 50.351 30.6318C50.3584 30.1066 50.4522 29.5861 50.6286 29.0914C50.4054 28.9619 50.204 28.7979 50.0318 28.6057C49.8436 28.1761 49.5092 27.827 49.0881 27.6204V27.6065ZM51.8637 29.0081C52.0831 29.4571 52.1924 29.9518 52.1828 30.4514C51.9573 30.9781 51.6633 31.4727 51.3086 31.9224C51.1878 31.3468 51.1182 30.7617 51.1004 30.1739C51.0907 29.9187 51.1517 29.6657 51.2765 29.4428C51.4014 29.2201 51.5854 29.036 51.8082 28.911L51.8637 29.0081ZM52.8628 28.911C53.1623 29.4321 53.3998 29.9862 53.5706 30.5624C53.6186 30.7424 53.6249 30.9312 53.5888 31.1139C53.5527 31.2967 53.4753 31.4689 53.3624 31.6171C53.0849 32.0057 52.7657 32.3943 52.4881 32.769C52.3032 32.5415 52.1705 32.2762 52.0996 31.9918C52.0756 31.6059 52.1036 31.2184 52.1828 30.84C52.4863 30.2238 52.7235 29.5773 52.8906 28.911H52.8628ZM53.2792 32.6996C52.9043 33.0822 52.5739 33.5059 52.2939 33.9624C52.1906 34.119 52.1355 34.3023 52.1355 34.4898C52.1355 34.6773 52.1906 34.8606 52.2939 35.0171C52.5994 35.4457 52.9919 35.8051 53.4457 36.0718C53.172 35.6623 53.0359 35.1762 53.0571 34.6841C53.1619 34.3464 53.2918 34.017 53.4457 33.6988C53.4628 33.3518 53.401 33.0054 53.2653 32.6857L53.2792 32.6996ZM51.8775 32.2C52.0664 32.4516 52.1644 32.7598 52.1551 33.0743C52.1364 33.4656 52.0664 33.8529 51.9469 34.2261C51.7377 34.7987 51.4776 35.3513 51.1698 35.8775C50.9688 35.6096 50.8054 35.3155 50.6841 35.0033C50.9616 34.6147 51.1698 34.2261 51.4612 33.8514C51.6409 33.3121 51.7801 32.7601 51.8775 32.2ZM51.6694 31.9224C51.4705 32.9571 51.0799 33.9456 50.5175 34.8367C50.3598 35.129 50.1401 35.3834 49.8742 35.5822C49.6081 35.7811 49.302 35.9197 48.9771 35.9886C48.6906 35.975 48.4154 35.873 48.1892 35.6964C47.9631 35.5201 47.7971 35.2779 47.7143 35.0033C47.6162 34.7498 47.5837 34.4756 47.6202 34.2063C47.6565 33.9369 47.7605 33.6811 47.9224 33.4628C47.9834 33.7079 48.1059 33.9334 48.2783 34.118C48.4508 34.3026 48.6674 34.4401 48.9077 34.5175C49.6432 34.4481 50.6286 33.5739 51.6832 31.9224" fill="#1A1A1A"/>
<path d="M50.7952 31.2558C50.8917 31.6196 50.8917 32.0023 50.7952 32.366C50.758 32.5673 50.6798 32.7588 50.5651 32.9284C50.4505 33.0978 50.302 33.2418 50.1291 33.3513C49.9037 33.4823 49.6383 33.5263 49.3826 33.4753C49.1271 33.4241 48.899 33.2814 48.7413 33.0738L48.6303 32.9628C49.1162 32.9136 49.5779 32.7269 49.9613 32.4246C50.3448 32.1222 50.6341 31.7168 50.7952 31.2558ZM53.1822 37.9171C53.5528 38.3814 53.8479 38.9013 54.0564 39.4575C54.0374 40.1777 53.8318 40.8806 53.4597 41.4975C53.0162 41.1285 52.6766 40.6501 52.4744 40.1097C52.4228 39.7146 52.4594 39.313 52.5818 38.9339C52.7042 38.5547 52.9093 38.2074 53.1822 37.9171ZM52.2385 38.5832C52.4074 38.113 52.6719 37.6829 53.0156 37.3203C53.1178 36.9051 53.0759 36.4677 52.8968 36.0794C52.7178 35.6911 52.4124 35.3751 52.0303 35.1832C51.6758 35.6427 51.4119 36.1654 51.2532 36.7236C51.1422 37.5285 51.9193 37.9171 52.2385 38.5832ZM50.4899 35.2803C50.2773 35.582 50.0145 35.8449 49.7128 36.0575V37.0428C49.8646 37.6091 50.0643 38.1616 50.3095 38.6942C50.6119 38.3208 50.8382 37.8918 50.9756 37.4313C51.0557 37.0528 51.0929 36.6664 51.0867 36.2795C50.914 35.9359 50.7145 35.6064 50.4899 35.2942V35.2803ZM48.8385 38.0697C48.4248 37.4806 48.1454 36.808 48.0197 36.0991C48.2293 36.2166 48.4619 36.2874 48.7014 36.3066C48.941 36.3257 49.1818 36.2928 49.4075 36.2101C49.5127 36.6245 49.5127 37.0586 49.4075 37.473C49.2254 37.7095 49.0258 37.9322 48.8107 38.1391L48.8385 38.0697ZM48.9218 38.3473L49.4075 37.9171C49.5185 37.806 49.8932 38.7913 50.0042 39.0689C49.796 39.0689 49.6156 39.0689 49.5185 38.9579C49.3382 38.7537 49.1384 38.5679 48.9218 38.4028V38.3473ZM51.1422 37.9171C50.8471 38.4025 50.5178 38.8663 50.1569 39.3048C50.2616 39.6425 50.3915 39.9719 50.5454 40.2901C50.78 40.7141 51.0744 41.1021 51.4197 41.442C51.6567 41.0791 51.8566 40.6931 52.0164 40.2901C52.178 39.9887 52.2364 39.6426 52.183 39.3048C51.9748 38.8191 51.4058 38.3195 51.1977 37.8338L51.1422 37.9171ZM52.183 40.5538C52.5049 40.9782 52.7665 41.4453 52.9601 41.9415C53.0281 42.2369 52.9887 42.5469 52.8491 42.8158C52.7381 43.024 52.4605 43.482 52.2524 43.8705C51.8609 43.574 51.5583 43.1755 51.3781 42.7187C51.3185 42.529 51.2977 42.3294 51.3167 42.1315C51.3359 41.9336 51.3945 41.7417 51.4891 41.5669C51.6973 41.2893 52.0858 41.0118 52.1969 40.5815L52.183 40.5538ZM50.2262 40.5122C50.4995 40.8641 50.7236 41.2516 50.8924 41.664C50.9948 41.8386 51.0489 42.0374 51.0489 42.2399C51.0489 42.4424 50.9948 42.6413 50.8924 42.8158C50.6842 43.2044 50.5038 43.482 50.4067 43.6901C50.1248 43.3801 49.8994 43.0232 49.7405 42.6354C49.6364 42.2585 49.6364 41.8605 49.7405 41.4836C49.9709 41.1936 50.1365 40.8576 50.2262 40.4983V40.5122ZM53.0017 43.2738C52.6048 43.8004 52.3256 44.4062 52.183 45.0501C52.3347 45.6481 52.5342 46.2328 52.7797 46.7987C53.0607 46.5142 53.2867 46.1802 53.4458 45.8134C53.6865 45.4392 53.7849 44.9911 53.7234 44.5505C53.7353 44.3114 53.6915 44.0727 53.5952 43.8535C53.4987 43.6343 53.3526 43.4406 53.1683 43.2877L53.0017 43.2738ZM51.3087 43.1767C51.6069 43.611 51.7754 44.1212 51.7944 44.6477C51.5865 45.1371 51.326 45.6024 51.0173 46.0354C50.8117 45.6714 50.6488 45.2849 50.5315 44.8836C50.5228 44.5627 50.5884 44.2443 50.7233 43.953C50.8581 43.6617 51.0585 43.4055 51.3087 43.2044V43.1767ZM61.134 23.7758C60.5083 23.5653 59.8308 23.5653 59.205 23.7758C59.836 23.9517 60.503 23.9517 61.134 23.7758ZM54.2646 20.6673C54.5109 20.0636 54.7105 19.4419 54.8613 18.8077C54.8613 18.6494 54.7985 18.4976 54.6866 18.3857C54.5746 18.2738 54.4228 18.2109 54.2646 18.2109C54.1064 18.2109 53.9546 18.2738 53.8426 18.3857C53.7307 18.4976 53.6679 18.6494 53.6679 18.8077C53.8032 19.4462 54.0032 20.0693 54.2646 20.6673ZM55.916 21.6526C56.2999 20.8842 56.5933 20.0739 56.7903 19.2379C56.6793 19.0297 56.5822 18.8493 56.4018 18.8493C56.2213 18.8493 56.0132 18.7383 55.916 18.8493C55.5738 19.6508 55.372 20.5052 55.3193 21.375C55.4303 21.4444 55.7079 21.5554 55.916 21.6526ZM54.9585 21.4305H54.5422C54.6425 20.7056 54.805 19.9905 55.0279 19.2934C55.0273 19.1108 55.0868 18.9332 55.1972 18.7877C55.3075 18.6423 55.4625 18.5372 55.6385 18.4885C55.5275 18.8771 55.3609 19.2656 55.2499 19.6403C55.1389 20.2371 55.0418 20.8338 54.9307 21.3889L54.9585 21.4305ZM55.0417 22.4713C55.6168 22.4536 56.1864 22.5876 56.6932 22.8599C57.0712 23.0999 57.3743 23.4412 57.5675 23.8452C56.9924 23.863 56.4228 23.7289 55.916 23.4567C55.7001 23.3777 55.5072 23.2463 55.3546 23.0743C55.2019 22.9024 55.0945 22.6952 55.0417 22.4713ZM55.4303 22.7489C55.7523 23.0897 56.1456 23.3551 56.5822 23.526C56.4581 23.3207 56.2909 23.1447 56.092 23.0105C55.893 22.8762 55.6672 22.7869 55.4303 22.7489ZM59.7046 26.2599V25.7742C59.2802 26.0962 58.8131 26.3578 58.3168 26.5513C58.3034 26.3819 58.3421 26.2125 58.4279 26.0656C58.2476 26.18 58.0435 26.2512 57.8311 26.2738C57.9422 26.0656 57.9422 25.7881 58.1087 25.6077C58.0312 25.7156 57.9319 25.8061 57.8171 25.8731C57.7024 25.94 57.5747 25.9821 57.4426 25.9962C57.4276 25.7911 57.4657 25.5855 57.5536 25.3995C57.2815 25.7946 56.87 26.0722 56.4018 26.1767C56.2016 26.2281 55.9921 26.2297 55.7913 26.1814C55.5905 26.1329 55.4045 26.0361 55.2499 25.8991C55.8304 25.8856 56.3829 25.6468 56.7903 25.233C56.5672 25.1034 56.3658 24.9395 56.1936 24.7473C56.3225 24.6178 56.4965 24.5431 56.6793 24.5391C56.5393 24.4948 56.412 24.4174 56.3081 24.3136C56.2043 24.2096 56.1268 24.0824 56.0826 23.9424C57.1948 24.2156 58.3374 24.3462 59.4826 24.3309C60.1356 24.3323 60.7854 24.2388 61.4115 24.0534C61.134 26.0934 59.6907 26.3015 59.6907 26.3015L59.7046 26.2599ZM59.9683 25.4273C60.0762 25.3498 60.1667 25.2505 60.2338 25.1357C60.3006 25.0209 60.3427 24.8933 60.3569 24.7611C59.7719 24.7763 59.1867 24.7391 58.6083 24.6501V24.7611C58.7193 24.8305 59.996 24.8305 59.996 25.4273H59.9683ZM61.5364 24.1644C61.5284 24.5996 61.434 25.0288 61.2589 25.4273C61.5546 25.2417 61.7869 24.9707 61.925 24.6501C62.036 24.2338 62.036 23.9424 61.5364 24.1644ZM62.5217 24.6224C62.7524 24.5145 63.0115 24.4833 63.2611 24.5333C63.5109 24.5832 63.7381 24.7117 63.9095 24.8999C64.0365 25.1794 64.0673 25.493 63.9969 25.792C63.9266 26.0907 63.7592 26.3579 63.5209 26.5513C63.2344 26.3132 62.8735 26.1829 62.5009 26.1829C62.1283 26.1829 61.7675 26.3132 61.4809 26.5513C61.2068 26.411 60.9114 26.3172 60.6066 26.2738C60.8245 26.0264 61.0885 25.8236 61.3838 25.6771C61.8814 25.4744 62.29 25.1003 62.5356 24.6224H62.5217ZM62.9242 25.7048C62.9242 25.6636 62.912 25.6234 62.8891 25.5892C62.8662 25.5549 62.8337 25.5283 62.7957 25.5125C62.7577 25.4968 62.7158 25.4926 62.6754 25.5007C62.635 25.5087 62.5979 25.5286 62.5688 25.5576C62.5398 25.5867 62.5199 25.6238 62.5119 25.6642C62.5038 25.7045 62.508 25.7464 62.5237 25.7845C62.5395 25.8225 62.5662 25.855 62.6004 25.8779C62.6346 25.9008 62.6748 25.913 62.716 25.913C62.827 25.913 62.9242 25.802 62.9242 25.7048ZM60.3985 26.3709C60.193 26.6436 59.9704 26.9031 59.7324 27.1481C60.1449 27.1335 60.552 27.2472 60.8974 27.4732C61.2428 27.6994 61.5097 28.0269 61.6613 28.4109C61.8004 28.2099 61.8839 27.9757 61.9035 27.732C61.9229 27.4884 61.8777 27.2438 61.7724 27.0232C61.6058 26.8152 61.3946 26.6472 61.1544 26.5321C60.9142 26.4167 60.6511 26.3569 60.3846 26.3571" fill="#1A1A1A"/>
<path d="M58.7192 26.7049L58.0531 26.913V26.5244C57.845 26.5244 57.7756 26.6355 57.5674 26.6355C57.3654 27.2061 57.0648 27.7369 56.6792 28.2036C56.7019 28.416 56.7731 28.6201 56.8874 28.8004C57.1222 28.4006 57.3817 28.0159 57.6646 27.6485C57.9354 27.2611 58.2976 26.9465 58.7192 26.7326V26.7049ZM59.9821 26.5244C59.4849 26.6303 59.0133 26.8331 58.5944 27.1212C58.3584 27.2684 58.1636 27.4727 58.0277 27.7153C57.8919 27.958 57.8194 28.231 57.8172 28.5089C58.0298 28.2072 58.2927 27.9444 58.5944 27.7318C59.1397 27.4419 59.6138 27.0342 59.9821 26.5383V26.5244ZM59.9821 21.584C59.7739 21.584 59.5935 21.6951 59.5935 21.8616C59.7115 22.2317 59.8747 22.586 60.0793 22.9163C60.3035 22.597 60.468 22.2396 60.565 21.8616C60.4065 21.6994 60.1943 21.6007 59.9682 21.584H59.9821ZM60.2458 23.4436C60.2759 22.9587 60.4083 22.4858 60.6343 22.0559C60.8146 21.9415 61.0188 21.8703 61.2311 21.8477C61.3421 21.8477 61.5086 21.9587 61.4392 22.1253V22.2363C61.206 22.6726 60.9465 23.0943 60.6621 23.4991C60.6621 23.4298 60.4539 23.4298 60.2458 23.4298V23.4436ZM59.7878 23.4298C59.7062 22.955 59.576 22.4901 59.3992 22.042C59.219 21.9276 59.0148 21.8565 58.8025 21.8338C58.731 21.8401 58.664 21.8713 58.6132 21.9221C58.5624 21.9729 58.5312 22.0399 58.525 22.1114V22.2224C58.7582 22.6587 59.0178 23.0805 59.3021 23.4853C59.4554 23.421 59.6227 23.397 59.7878 23.4159V23.4298ZM59.3021 20.4044H59.8572V19.8771H60.2458V20.3628H60.7315V20.7514H60.2458V21.2649H59.8572V20.7098H59.3021V20.4044ZM53.5707 17.2681H54.0564V16.6714H54.445V17.2681H54.9584V17.5457H54.4727V18.2534H54.0842V17.5457H53.5707V17.2681ZM65.2556 23.86V22.9163C65.4922 22.9944 65.7091 23.1229 65.8912 23.2931C66.0734 23.4632 66.2163 23.6708 66.3103 23.9016C66.3103 23.9016 65.5331 23.4159 65.2556 23.9016V23.86ZM64.5478 25.1644C64.4368 24.7759 64.3397 24.2902 64.2703 23.9016C64.0936 23.3246 64.1332 22.703 64.3813 22.153C64.6376 21.7388 64.7361 21.2461 64.6588 20.7653L65.325 21.0428C65.2948 21.5277 65.1625 22.0006 64.9364 22.4306C64.7969 22.7976 64.7586 23.1955 64.8254 23.5824C64.9324 23.8455 64.963 24.1335 64.9139 24.4133C64.8648 24.6932 64.7379 24.9534 64.5478 25.1644ZM64.5478 21.0012V20.7236C64.1856 20.3162 63.6967 20.0424 63.1601 19.9465C62.8825 19.8355 62.6743 19.9465 62.3829 20.1547C62.5657 20.1587 62.7397 20.2333 62.8686 20.3628C63.1655 20.6283 63.497 20.8524 63.8539 21.0289C64.0758 21.0163 64.2982 21.0163 64.5201 21.0289" fill="#1A1A1A"/>
<path d="M62.4107 20.071C62.1737 20.2747 62.0042 20.5459 61.925 20.8481C62.0117 21.2596 62.1766 21.6507 62.4107 22C62.6468 22.2757 62.7836 22.6227 62.7993 22.9853C62.7993 23.1935 62.5911 23.3739 62.5217 23.582C62.7289 23.5236 62.9227 23.4249 63.0918 23.2916C63.2609 23.1582 63.402 22.9928 63.5071 22.8049C63.5598 22.6203 63.5619 22.4251 63.513 22.2395C63.4642 22.0538 63.3662 21.8849 63.2295 21.7502C63.0576 21.3694 62.8333 21.0144 62.5634 20.6955C62.4533 20.5018 62.4049 20.279 62.4246 20.0571L62.4107 20.071ZM57.3038 26.191C57.1391 26.7811 56.8764 27.3394 56.5266 27.8424C56.2562 28.2843 56.121 28.7957 56.1381 29.3135C55.9363 28.8512 55.8643 28.3426 55.9299 27.8424C56.0054 27.4734 56.1719 27.129 56.4142 26.8406C56.6565 26.5522 56.9671 26.3289 57.3177 26.191H57.3038ZM56.3324 26.3714C56.0312 26.3908 55.7356 26.4612 55.4581 26.5796C55.0109 26.9236 54.7011 27.4156 54.5838 27.9673C54.8924 27.8806 55.1869 27.7497 55.4581 27.5788C55.8437 27.2594 56.1442 26.8494 56.3324 26.3853V26.3714ZM59.4548 27.5788C59.663 27.5788 59.8434 27.6898 60.0515 27.6898C59.779 27.7905 59.5185 27.9208 59.2744 28.0784C59.1306 28.2009 59.0134 28.3515 58.93 28.5209C58.8464 28.6904 58.7984 28.8751 58.7887 29.0637C58.6538 29.5998 58.4534 30.1171 58.1919 30.6041C58.1846 30.0788 58.0908 29.5584 57.9144 29.0637C58.1375 28.9342 58.3389 28.7702 58.5111 28.5779C58.5937 28.3584 58.7198 28.158 58.8821 27.9886C59.0442 27.8193 59.239 27.6845 59.4548 27.5926V27.5788ZM56.6793 28.9804C56.4507 29.4365 56.3365 29.9414 56.3462 30.4514C56.5717 30.9781 56.8658 31.4727 57.2205 31.9224C57.3412 31.3468 57.4109 30.7617 57.4287 30.1739C57.4244 29.9213 57.3575 29.6736 57.234 29.4532C57.1105 29.2328 56.9342 29.0465 56.7209 28.911L56.6793 28.9804ZM54.2646 30.6596C54.2646 30.271 55.1389 29.3967 55.1389 28.911C55.0706 28.7076 54.9561 28.5229 54.8044 28.3712C54.6528 28.2195 54.468 28.105 54.2646 28.0367C53.8924 28.2343 53.5879 28.5388 53.3903 28.911C53.3903 29.3967 54.2646 30.382 54.2646 30.6596ZM55.6524 28.911C55.3577 29.4327 55.1249 29.9869 54.9585 30.5624C54.9105 30.7424 54.9042 30.9312 54.9403 31.1139C54.9764 31.2967 55.0538 31.4689 55.1666 31.6171C55.4442 32.0057 55.7634 32.3943 56.0409 32.769C56.2259 32.5415 56.3586 32.2762 56.4295 31.9918C56.4535 31.6059 56.4255 31.2184 56.3462 30.84C56.0273 30.2306 55.7893 29.5821 55.6385 28.911H55.6524ZM54.2507 33.4767C54.5186 33.2787 54.7253 33.0095 54.8475 32.6996C54.9077 32.5736 54.9293 32.4324 54.9096 32.2942C54.8898 32.1559 54.8296 32.0265 54.7364 31.9224C54.5 31.6792 54.3323 31.3775 54.2507 31.0481C54.1294 31.3604 53.966 31.6545 53.765 31.9224C53.6702 32.0257 53.6089 32.155 53.589 32.2938C53.5692 32.4326 53.5918 32.574 53.654 32.6996C53.7853 33.0042 53.9904 33.2712 54.2507 33.4767ZM55.236 32.6996C55.6109 33.0822 55.9414 33.5059 56.2213 33.9624C56.3246 34.119 56.3797 34.3023 56.3797 34.4898C56.3797 34.6773 56.3246 34.8606 56.2213 35.0171C55.9158 35.4457 55.5233 35.8051 55.0695 36.0718C55.3432 35.6623 55.4793 35.1762 55.4581 34.6841C55.3533 34.3464 55.2234 34.017 55.0695 33.6988C55.0524 33.3518 55.1142 33.0054 55.2499 32.6857L55.236 32.6996ZM56.6377 32.2C56.4486 32.4516 56.3508 32.7598 56.3601 33.0743C56.3788 33.4656 56.4488 33.8529 56.5683 34.2261C56.7776 34.7987 57.0376 35.3513 57.3454 35.8775C57.5464 35.6096 57.7098 35.3155 57.8311 35.0033C57.5536 34.6147 57.3454 34.2261 57.054 33.8514C56.7626 33.4767 56.7348 32.6996 56.6377 32.2ZM56.9568 31.9224C57.1557 32.9571 57.5464 33.9456 58.1087 34.8367C58.2665 35.129 58.4861 35.3834 58.752 35.5822C59.0181 35.7811 59.3242 35.9197 59.6491 35.9886C59.9357 35.975 60.2109 35.873 60.4371 35.6964C60.6631 35.5201 60.8291 35.2779 60.9119 35.0033C61.0101 34.7498 61.0425 34.4756 61.006 34.2063C60.9697 33.9369 60.8657 33.6811 60.7038 33.4628C60.6429 33.7079 60.5203 33.9334 60.348 34.118C60.1755 34.3026 59.9588 34.4401 59.7185 34.5175C58.983 34.4481 57.9977 33.5739 56.943 31.9224" fill="#1A1A1A"/>
<path d="M57.734 31.2578C57.6376 31.6215 57.6376 32.0043 57.734 32.368C57.7712 32.5692 57.8495 32.7607 57.9641 32.9303C58.0788 33.0998 58.2273 33.2438 58.4002 33.3533C58.6255 33.4843 58.891 33.5283 59.1466 33.4772C59.4021 33.426 59.6303 33.2834 59.7879 33.0758L59.8989 32.9648C59.4116 32.9206 58.9474 32.7358 58.5631 32.4327C58.1787 32.1296 57.8907 31.7215 57.734 31.2578ZM54.2647 36.1011C54.517 36.0189 54.7297 35.8457 54.8614 35.6154C55.051 35.2615 55.1466 34.8649 55.1389 34.4635C55.0331 34.1443 54.8683 33.8478 54.6532 33.5892C54.5457 33.7091 54.413 33.8039 54.2647 33.8668C54.1437 33.7628 54.0136 33.67 53.8761 33.5892C53.6751 33.8572 53.5117 34.1513 53.3904 34.4635C53.3487 34.6641 53.3521 34.8714 53.4001 35.0705C53.448 35.2697 53.5396 35.4558 53.6679 35.6154C53.7789 35.9345 53.9871 36.0039 54.2647 36.1011ZM54.2647 39.0154C54.3757 38.5297 55.25 37.7525 55.25 37.2668C55.25 36.7811 54.6532 36.6701 54.2647 36.3925C53.8761 36.6701 53.4875 36.6007 53.2794 37.2668C53.2794 37.6554 54.1536 38.5297 54.2647 39.0154ZM55.3194 37.9607C54.9487 38.425 54.6536 38.9449 54.4451 39.5011C54.4641 40.2212 54.6697 40.9242 55.0418 41.5411C55.4853 41.1721 55.8249 40.6937 56.0271 40.1533C56.0939 39.7514 56.0644 39.3395 55.9415 38.9512C55.8184 38.563 55.6052 38.2092 55.3194 37.919V37.9607ZM56.3047 38.5852C56.1358 38.115 55.8713 37.6849 55.5275 37.3223C55.4254 36.9071 55.4673 36.4697 55.6463 36.0814C55.8253 35.6931 56.1308 35.3771 56.5128 35.1852C56.827 35.6689 57.0876 36.1853 57.29 36.7256C57.3594 37.5305 56.5822 37.919 56.3047 38.5852ZM58.0532 35.2823C58.2658 35.584 58.5287 35.8468 58.8304 36.0594V37.0448C58.6786 37.6111 58.4789 38.1636 58.2336 38.6962C57.9312 38.3227 57.7049 37.8938 57.5675 37.4333C57.4874 37.0547 57.4503 36.6684 57.4565 36.2815C57.5675 36.1705 57.8451 35.5737 58.0532 35.2962V35.2823ZM59.7047 38.0717C60.1134 37.4813 60.3881 36.8087 60.5096 36.1011C60.3 36.2186 60.0674 36.2894 59.8279 36.3085C59.5882 36.3277 59.3475 36.2948 59.1218 36.2121C59.0166 36.6265 59.0166 37.0606 59.1218 37.475C59.2939 37.7198 59.4941 37.9433 59.7185 38.1411L59.7047 38.0717ZM59.6075 38.3492C59.3994 38.1411 59.2189 38.0717 59.1218 37.8635C58.9136 38.2521 58.7332 38.6407 58.5251 39.0154C58.7332 39.0154 58.9136 39.0154 59.0108 38.9043C59.191 38.7002 59.3909 38.5142 59.6075 38.3492ZM57.3455 37.919C57.6405 38.4045 57.9698 38.8683 58.3308 39.3068C58.226 39.6444 58.0961 39.9739 57.9422 40.2921C57.7077 40.7161 57.4132 41.1041 57.0679 41.4439C56.8309 41.0809 56.6309 40.6951 56.4712 40.2921C56.3239 39.9858 56.2801 39.6401 56.3463 39.3068C56.5545 38.8211 57.1512 38.3215 57.3316 37.8358L57.3455 37.919ZM54.2647 44.0668C54.5153 43.6949 54.7469 43.3103 54.9585 42.915C55.0526 42.6453 55.0526 42.3518 54.9585 42.0823C54.8475 41.8048 54.3618 41.097 54.2924 40.9305C54.0235 41.2959 53.7823 41.681 53.5708 42.0823C53.4667 42.3644 53.4667 42.6745 53.5708 42.9566C53.7512 43.5533 54.2369 43.8309 54.2369 44.1084L54.2647 44.0668ZM56.1659 40.5974C55.8439 41.0218 55.5823 41.4889 55.3887 41.9852C55.3207 42.2805 55.3602 42.5904 55.4998 42.8594C55.6108 43.0676 55.8883 43.5256 56.0965 43.9141C56.488 43.6176 56.7905 43.2192 56.9708 42.7623C57.0303 42.5726 57.0511 42.373 57.0321 42.1751C57.013 41.9773 56.9544 41.7852 56.8598 41.6105C56.7487 41.3329 56.3741 41.0554 56.152 40.6252L56.1659 40.5974ZM58.192 40.5558C57.9188 40.9077 57.6946 41.2952 57.5259 41.7076C57.4235 41.8822 57.3693 42.0811 57.3693 42.2835C57.3693 42.486 57.4235 42.6849 57.5259 42.8594C57.734 43.248 57.9145 43.5256 58.0116 43.7337C58.2934 43.4237 58.5188 43.0668 58.6777 42.679C58.7818 42.3021 58.7818 41.9041 58.6777 41.5272C58.4743 41.2209 58.3109 40.8898 58.192 40.5419V40.5558ZM54.2647 49.715C54.6521 48.8791 54.914 47.9907 55.0418 47.0782C54.939 46.4041 54.6721 45.7655 54.2647 45.2186C53.8107 45.7378 53.5379 46.3905 53.4875 47.0782C53.5842 47.9971 53.8476 48.8905 54.2647 49.715ZM55.4165 43.2897C55.8513 43.8023 56.1687 44.4039 56.3463 45.0521C56.1946 45.6499 55.9951 46.2347 55.7496 46.8007C55.4685 46.5162 55.2426 46.1821 55.0834 45.8154C54.9492 45.6372 54.855 45.4321 54.8071 45.2142C54.7593 44.9963 54.7588 44.7705 54.8059 44.5525C54.7802 44.3119 54.8181 44.0687 54.9154 43.8472C55.0128 43.6256 55.1664 43.4334 55.361 43.2897H55.4165ZM57.2206 43.1786C56.9223 43.613 56.7539 44.1231 56.7349 44.6497C56.9427 45.1391 57.2032 45.6044 57.512 46.0374C57.7175 45.6734 57.8805 45.2869 57.9977 44.8856C58.0065 44.5647 57.9408 44.2462 57.8059 43.9549C57.6712 43.6636 57.4708 43.4075 57.2206 43.2064" fill="#1A1A1A"/>
<path d="M54.9584 51.6429C55.0841 50.9706 55.3087 50.3206 55.6245 49.714C55.6849 49.427 55.6813 49.1304 55.6141 48.845C55.5471 48.5596 55.4179 48.2925 55.2359 48.0625C54.9713 48.9279 54.642 49.7723 54.2506 50.5883C53.874 49.7659 53.5451 48.9227 53.2653 48.0625C53.0834 48.2925 52.9542 48.5596 52.8872 48.845C52.82 49.1304 52.8164 49.427 52.8768 49.714C53.1655 50.3347 53.3979 50.9804 53.5706 51.6429C53.557 51.9295 53.455 52.2047 53.2785 52.4309C53.1021 52.657 52.86 52.823 52.5853 52.9058C52.8274 53.0011 53.0939 53.0147 53.3444 52.9447C53.5951 52.8744 53.8157 52.7244 53.9731 52.5172C54.093 52.4097 54.1878 52.277 54.2506 52.1287C54.3546 52.2497 54.4474 52.3797 54.5282 52.5172C54.684 52.7262 54.9047 52.8778 55.1559 52.9481C55.4069 53.0184 55.6742 53.0035 55.9159 52.9058C55.6864 52.7674 55.487 52.5844 55.3296 52.3675C55.1722 52.1505 55.0602 51.9041 55 51.6429H54.9584ZM51.8082 45.5368C51.9192 45.8144 52.1968 46.5221 52.2939 46.6887C52.3316 46.9426 52.2872 47.202 52.1675 47.4292C52.0477 47.6562 51.8587 47.8393 51.6278 47.9515C51.3669 47.794 51.159 47.562 51.031 47.2854C50.9669 47.1602 50.9432 47.0184 50.963 46.8792C50.983 46.74 51.0455 46.6104 51.1421 46.5083C51.2926 46.1368 51.5195 45.8011 51.8082 45.5229V45.5368ZM53.1959 46.9107C53.1501 47.5091 53.0193 48.0978 52.8074 48.6593C52.6598 48.9704 52.4452 49.2452 52.1789 49.4635C51.9125 49.6819 51.601 49.8385 51.267 49.9221C50.9475 49.868 50.6469 49.7345 50.3927 49.5336C50.4172 49.3537 50.493 49.1847 50.6112 49.0469C50.7293 48.9089 50.8848 48.8082 51.0588 48.7564C51.942 48.3656 52.6868 47.7175 53.1959 46.8968V46.9107ZM51.3363 48.2846C51.2153 48.1806 51.0853 48.0878 50.9478 48.007C50.6029 48.1332 50.2725 48.296 49.9625 48.4927C49.5602 48.7896 49.2046 49.1451 48.9078 49.5474C49.2514 49.6533 49.6189 49.6533 49.9625 49.5474C50.0381 49.1886 50.2527 48.8742 50.5592 48.6732C50.791 48.495 51.0548 48.363 51.3363 48.2846ZM50.7951 47.7572C50.6063 47.5056 50.5083 47.1974 50.5176 46.8829L49.3657 47.6601C48.9947 47.9429 48.6633 48.2743 48.3804 48.6454C48.7579 48.5277 49.1426 48.435 49.5323 48.3678C50.018 48.1597 50.4066 47.9793 50.7951 47.7711V47.7572ZM49.2547 48.7564C48.5875 48.9681 47.9057 49.1304 47.2147 49.2421C46.74 49.447 46.3107 49.7441 45.9519 50.1164L47.0065 50.394C47.3668 50.1333 47.7527 49.9101 48.1584 49.7278C48.5807 49.474 48.9486 49.1392 49.2408 48.7425L49.2547 48.7564ZM48.2555 51.9344C48.4637 51.8234 48.4637 51.6568 48.3666 51.4487C48.2043 51.2176 47.9701 51.0468 47.7004 50.963C47.1037 50.7548 46.4376 50.5744 45.8408 50.3662C45.7369 50.4872 45.6441 50.6173 45.5633 50.7548C45.5633 50.8658 45.5633 50.963 45.7714 50.963H47.0343C47.1027 51.0211 47.1505 51.0998 47.1704 51.1873C47.1906 51.2749 47.1817 51.3665 47.1453 51.4487C47.3256 51.3343 47.5297 51.2631 47.7421 51.2405C47.8753 51.3141 47.9913 51.4154 48.0822 51.5373C48.1731 51.6595 48.2369 51.7995 48.2694 51.9483L48.2555 51.9344ZM47.2841 50.4078C47.6277 50.4949 47.9588 50.6254 48.2694 50.7964C48.3804 50.6854 48.4776 50.6854 48.547 50.5883C48.7294 50.2626 48.9984 49.9936 49.3241 49.8111C49.1547 49.8246 48.9852 49.7859 48.8384 49.7001C48.6302 49.8111 48.4498 49.8111 48.2417 49.9083C47.9039 50.0204 47.5855 50.1843 47.298 50.394L47.2841 50.4078ZM50.0735 49.7278C49.9625 49.8389 49.7959 49.8389 49.5878 49.8389C49.07 50.1476 48.692 50.645 48.5331 51.2266C48.4697 51.3941 48.4748 51.5799 48.5477 51.7437C48.6204 51.9073 48.7548 52.0357 48.9217 52.1009C49.1276 52.1914 49.3598 52.2017 49.5728 52.1298C49.786 52.0579 49.9646 51.909 50.0735 51.7123C50.0735 51.6013 50.1845 51.6013 50.1845 51.5042C50.1135 51.5616 50.0317 51.6044 49.9442 51.6303C49.8565 51.6561 49.7646 51.6645 49.6738 51.6547C49.5829 51.645 49.4949 51.6176 49.4146 51.574C49.3344 51.5303 49.2636 51.4711 49.2061 51.4001C49.0903 51.2566 49.036 51.0729 49.0556 50.8894C49.0751 50.7058 49.1667 50.5376 49.3102 50.4217C49.4212 50.4217 49.4212 50.3107 49.5184 50.3107C49.8317 50.1091 50.201 50.0118 50.5731 50.0332C50.3649 49.9221 50.1845 49.7556 50.0874 49.7556" fill="#1A1A1A"/>
<path d="M43.7732 57.3466C43.8926 56.8702 44.0552 56.4057 44.2589 55.9588C44.7447 54.9735 45.73 52.5588 47.9365 52.1703C48.1447 52.1703 47.7283 51.5735 47.4508 51.6846C47.1692 51.763 46.9054 51.8949 46.6736 52.0731V51.4764C46.6736 51.3654 46.5626 51.3654 46.4655 51.3654C46.1933 51.3702 45.9265 51.4417 45.6883 51.5735C44.9331 52.6028 44.3172 53.7275 43.8565 54.918C43.3708 56.0699 43.0794 56.4584 42.4687 56.3058C41.8581 56.1531 41.6916 55.5286 40.7202 55.709C40.3419 55.8106 40.0002 56.0175 39.7349 56.3058C39.7839 56.4165 39.8713 56.5056 39.981 56.5567C40.0908 56.6078 40.2154 56.6172 40.3316 56.5833C40.9149 56.599 41.4841 56.7664 41.983 57.069C42.5738 57.2064 43.1714 57.313 43.7732 57.3882V57.3466ZM52.6132 49.7417C52.68 50.1297 52.8475 50.4934 53.0989 50.7964C53.0989 50.7964 52.4328 53.9188 49.9765 54.1964C50.081 53.7282 50.3585 53.3167 50.7536 53.0446C51.5308 52.5588 52.6132 51.7817 52.5022 50.6299C52.2791 50.7595 52.0777 50.9234 51.9055 51.1156C51.5169 51.6013 50.8508 52.8641 49.5879 52.8641C49.7032 52.475 49.9358 52.1309 50.254 51.8788C50.8279 51.5663 51.3293 51.136 51.7251 50.616C51.9024 50.2292 52.2126 49.9191 52.5994 49.7417H52.6132ZM51.4475 61.1768L52.9185 63.3139L54.0704 61.2739L53.6818 60.6078L52.9047 62.0788L51.9193 60.6078L51.4336 61.1629" fill="#1A1A1A"/>
<path d="M51.0727 59.4003L47.6727 54.5709L48.2694 54.1823L46.5208 53.5162V55.4452L47.1176 54.9594L50.698 60.0109L51.0865 59.4141L51.0727 59.4003ZM38.8465 47.979C39.3323 47.4933 39.9984 47.868 40.7755 48.6452C41.5527 49.4223 42.0384 50.0329 41.5527 50.5047C41.0669 50.9766 40.4008 50.6158 39.6237 49.908C38.8465 49.2003 38.4718 48.5203 38.8465 47.979Z" fill="#1A1A1A"/>
<path d="M40.0957 56.4862C39.8751 56.2969 39.7003 56.0598 39.5849 55.7929C39.4696 55.526 39.4164 55.2363 39.4296 54.9458C39.4064 54.6646 39.4417 54.3818 39.5333 54.1151C39.6248 53.8482 39.7708 53.6034 39.9619 53.396C40.1529 53.1884 40.3849 53.0228 40.6433 52.9094C40.9016 52.7962 41.1807 52.7378 41.4626 52.7378C41.7448 52.7378 42.0237 52.7962 42.282 52.9094C42.5404 53.0228 42.7724 53.1884 42.9634 53.396C43.1545 53.6034 43.3004 53.8482 43.392 54.1151C43.4836 54.3818 43.5189 54.6646 43.4957 54.9458V55.3344C43.6302 54.9708 43.7927 54.6183 43.9814 54.2797C43.7959 53.6154 43.3587 53.0494 42.7628 52.7022C42.1668 52.355 41.459 52.2538 40.7896 52.4201C40.0782 52.648 39.4851 53.1464 39.1382 53.8078C39.2528 52.948 39.6198 52.1414 40.1929 51.4903C40.5381 51.2241 40.9282 51.0221 41.3447 50.8936C40.9893 50.8945 40.6382 50.8167 40.3166 50.6654C39.9951 50.5143 39.711 50.2935 39.4851 50.0193C38.9333 49.6257 38.5554 49.034 38.4304 48.3678C38.5166 48.8906 38.444 49.4271 38.2222 49.9083C37.6534 50.9854 37.4214 52.2086 37.5561 53.4193C37.8202 54.5772 38.43 55.6275 39.3047 56.4307C39.4009 56.5349 39.475 56.6575 39.5226 56.791C39.5703 56.9245 39.5906 57.0663 39.5822 57.2079H41.4418C41.4418 57.2079 41.8304 57.2078 41.8304 56.9303C41.8304 56.6527 41.6222 56.6527 41.4418 56.6527C40.9746 56.702 40.5023 56.6548 40.0541 56.514L40.0957 56.4862ZM48.0892 56.9303C47.1784 57.2085 46.2515 57.431 45.3137 57.5964C44.7676 57.6826 44.215 57.7198 43.6622 57.7074V57.985C43.6996 58.0207 43.7287 58.0638 43.7479 58.1117C43.767 58.1596 43.7756 58.2111 43.7733 58.2625C44.3582 58.2777 44.9434 58.2405 45.5218 58.1515C46.5629 58.0258 47.5813 57.7549 48.5471 57.3466L48.1308 56.8887L48.0892 56.9303ZM49.7128 56.8887C51.2063 56.1203 52.4488 54.9405 53.2933 53.4887L53.5014 53.2111C53.3982 53.2636 53.2841 53.2908 53.1684 53.2908C53.0526 53.2908 52.9385 53.2636 52.8353 53.2111L52.7243 53.4193C51.8644 54.6973 50.7316 55.7685 49.4075 56.5556L49.6851 56.9025L49.7128 56.8887ZM41.3586 57.4576H40.3039C40.2346 57.4368 40.1618 57.4304 40.09 57.439C40.0181 57.4475 39.9489 57.4707 39.8863 57.5072C39.8238 57.5435 39.7696 57.5925 39.7268 57.6508C39.6841 57.7091 39.6537 57.7757 39.6377 57.8462C39.5267 58.0544 39.6377 58.2348 39.8459 58.443C40.0541 58.6511 40.2345 58.554 40.3316 58.443C40.7302 58.2473 41.115 58.0247 41.4835 57.7768C41.5529 57.5687 41.6639 57.3605 41.3447 57.4576H41.3586ZM42.219 57.9434C42.0687 57.867 41.9019 57.8289 41.7333 57.8323C41.3479 58.042 40.993 58.3035 40.6786 58.6095C40.5675 58.8176 40.6786 58.887 40.8867 58.9981C40.9971 59.0838 41.1362 59.1236 41.2753 59.1091C41.4581 59.105 41.6321 59.0304 41.761 58.9009C41.872 58.7899 42.2467 58.3042 42.3577 58.2348C42.333 58.1329 42.2856 58.0381 42.219 57.9572V57.9434ZM42.33 58.443C42.219 58.554 41.8443 59.0397 41.8443 59.0397C41.8443 59.0397 41.8443 59.1507 41.9553 59.2478H42.0663C42.4141 59.2478 42.7551 59.1518 43.0516 58.9703C43.3708 58.7899 43.6484 58.3042 43.3292 58.1932C43.2491 58.1414 43.1592 58.1067 43.065 58.0913C42.9709 58.0757 42.8745 58.0799 42.7821 58.1034C42.6897 58.1268 42.603 58.169 42.5276 58.2274C42.4522 58.2859 42.3897 58.3593 42.3439 58.443H42.33ZM42.552 57.1801C42.4613 57.1278 42.3584 57.1002 42.2537 57.1002C42.1489 57.1002 42.0461 57.1278 41.9553 57.1801C41.8443 57.3883 41.9553 57.5687 42.2329 57.6658C42.3898 57.7606 42.5655 57.8196 42.7478 57.8389C42.9301 57.858 43.1143 57.8368 43.2875 57.7768C43.4263 57.6658 43.2182 57.3605 42.552 57.1801ZM56.9014 45.5368C56.7904 45.8144 56.5128 46.5221 56.4157 46.6887C56.3781 46.9426 56.4224 47.202 56.5421 47.4292C56.6619 47.6562 56.8509 47.8393 57.0818 47.9515C57.3427 47.794 57.5506 47.562 57.6786 47.2854C57.7427 47.1602 57.7664 47.0184 57.7466 46.8792C57.7266 46.74 57.6641 46.6104 57.5675 46.5083C57.29 46.0919 57.0818 45.8005 56.9014 45.5229V45.5368ZM55.4304 46.9107C55.4618 47.5221 55.6276 48.1192 55.9161 48.6593C56.0636 48.9704 56.2783 49.2452 56.5446 49.4635C56.8109 49.6819 57.1225 49.8385 57.4565 49.9221C57.776 49.868 58.0766 49.7345 58.3308 49.5336C58.3144 49.3594 58.25 49.1931 58.1446 49.0534C58.0392 48.9138 57.8971 48.8061 57.7341 48.7425C56.819 48.3559 56.0373 47.7094 55.4859 46.8829" fill="#1A1A1A"/>
<path d="M57.1789 48.2435C57.3 48.1395 57.43 48.0467 57.5675 47.9659C57.9124 48.0921 58.2428 48.2549 58.5528 48.4516C58.9551 48.7485 59.3107 49.104 59.6075 49.5063C59.2639 49.6122 58.8964 49.6122 58.5528 49.5063C58.4772 49.1475 58.2626 48.8331 57.9561 48.6321C57.8451 48.4516 57.5675 48.3545 57.1789 48.2435ZM57.7757 47.7578C57.9779 47.4706 58.0757 47.123 58.0532 46.7725L59.2051 47.5496C59.5761 47.8324 59.9075 48.1638 60.1904 48.5349C59.8129 48.4172 59.4282 48.3245 59.0385 48.2574C58.609 48.1369 58.2112 47.9237 57.8728 47.6329L57.7757 47.7578ZM59.2606 48.7153C59.9278 48.927 60.6096 49.0893 61.3006 49.201C61.7753 49.4059 62.2046 49.7031 62.5634 50.0753L61.5087 50.3529C61.1485 50.0922 60.7625 49.8691 60.3569 49.6867C59.9275 49.4426 59.5577 49.1061 59.2745 48.7014L59.2606 48.7153ZM60.2181 51.8933C60.01 51.7823 60.01 51.6157 60.1071 51.4076C60.2693 51.1765 60.5036 51.0057 60.7732 50.9218C61.37 50.7137 62.0361 50.5333 62.6328 50.3251C62.7368 50.4461 62.8296 50.5762 62.9104 50.7137C62.9104 50.8247 62.9104 50.9218 62.7022 50.9218H61.4393C61.3709 50.98 61.3232 51.0587 61.3032 51.1463C61.2831 51.2338 61.292 51.3254 61.3283 51.4076C61.1481 51.2932 60.9439 51.222 60.7316 51.1994C60.4718 51.3593 60.2831 51.6125 60.2042 51.9072L60.2181 51.8933ZM61.2451 50.4084C60.9015 50.4954 60.5703 50.626 60.2598 50.797C60.2056 50.7936 60.1546 50.7707 60.1163 50.7323C60.0778 50.694 60.0549 50.6429 60.0516 50.5888C59.8691 50.2631 59.6002 49.9941 59.2745 49.8116C59.4439 49.8251 59.6133 49.7864 59.7602 49.7006C59.9683 49.8116 60.1487 49.8116 60.3569 49.9088C60.6662 50.0363 60.9596 50.1992 61.2312 50.3945L61.2451 50.4084ZM58.4557 49.7284C58.5667 49.8394 58.7332 49.8394 58.9414 49.8394C59.4592 50.1482 59.8372 50.6455 59.9961 51.2272C60.0595 51.3947 60.0544 51.5805 59.9815 51.7442C59.9088 51.9079 59.7743 52.0364 59.6075 52.1014C59.4016 52.1919 59.1694 52.2022 58.9564 52.1303C58.7432 52.0584 58.5646 51.9095 58.4557 51.7129C58.4557 51.6018 58.3447 51.6019 58.3447 51.5047C58.4882 51.6206 58.6719 51.6748 58.8554 51.6553C59.0388 51.6358 59.2071 51.5441 59.323 51.4006C59.4389 51.2571 59.4932 51.0734 59.4736 50.8899C59.454 50.7065 59.3624 50.5381 59.2189 50.4223C59.1079 50.4223 59.1079 50.3112 59.0108 50.3112C58.6974 50.1096 58.3281 50.0123 57.9561 50.0337C58.1643 49.9227 58.3447 49.7561 58.4418 49.7561L58.4557 49.7284ZM64.8671 57.3472C64.7433 56.8703 64.576 56.4058 64.3675 55.9594C63.8818 54.9741 62.8965 52.5594 60.69 52.1708C60.4818 52.1708 60.8981 51.5741 61.1757 51.6851C61.4573 51.7635 61.7211 51.8955 61.9528 52.0737V51.477C61.9528 51.3659 62.0638 51.3659 62.161 51.3659C62.2978 51.3432 62.4381 51.3498 62.5722 51.3858C62.7062 51.4217 62.831 51.486 62.9381 51.5741C63.7074 52.6191 64.3327 53.7627 64.7977 54.9741C65.2834 56.1259 65.5749 56.5145 66.1855 56.3619C66.7961 56.2092 67.0598 55.5847 67.934 55.7651C68.3123 55.8667 68.654 56.0736 68.9193 56.3619C68.8704 56.4726 68.7829 56.5617 68.6732 56.6128C68.5634 56.6638 68.4388 56.6733 68.3226 56.6394C67.7393 56.6551 67.1701 56.8224 66.6712 57.1251C66.0421 57.2639 65.4454 57.3703 64.881 57.4443L64.8671 57.3472ZM55.9161 49.7145C55.8493 50.1025 55.6818 50.4662 55.4304 50.7692C55.4304 50.7692 56.0965 53.8916 58.5528 54.1692C58.4483 53.701 58.1708 53.2895 57.7757 53.0174C56.9985 52.5316 55.9161 51.7545 56.0271 50.6027C56.2503 50.7323 56.4516 50.8962 56.6238 51.0884C57.0124 51.5741 57.6785 52.837 58.9414 52.837C58.8261 52.4478 58.5935 52.1037 58.2753 51.8516C57.7014 51.5391 57.2 51.1088 56.8043 50.5888C56.6166 50.2094 56.3094 49.9021 55.93 49.7145H55.9161ZM54.2647 52.6982C54.6573 53.4731 55.152 54.192 55.7357 54.8353C56.1242 55.2239 57.1234 56.2231 57.6647 56.6949C56.8122 56.499 56.0181 56.1043 55.3471 55.5431C55.022 55.7353 54.6646 55.867 54.2924 55.9316C53.9165 55.8817 53.5562 55.7489 53.2377 55.5431C52.5798 56.124 51.7804 56.5212 50.9202 56.6949C51.4059 56.2092 52.4606 55.2239 52.8492 54.8353C53.4827 54.2497 53.9596 53.515 54.2369 52.6982" fill="#1A1A1A"/>
<path d="M54.2646 56.2087C54.5657 56.1892 54.8613 56.1189 55.1389 56.0005C54.9586 56.4573 54.6561 56.8558 54.2646 57.1523C53.8962 56.8334 53.5983 56.4411 53.3903 56.0005C53.6679 56.1189 53.9635 56.1892 54.2646 56.2087Z" fill="#1A1A1A"/>
<path d="M55.5275 63.3008L61.4533 55.0575L62.05 55.5432V53.6143L60.3014 54.2804L60.8982 54.6689L55.6663 62.0379L52.8908 57.1947L52.6133 57.6804L50.2957 61.2608L49.699 60.8722V62.8012L51.5586 62.1351L50.9618 61.7465L53.0018 58.6241L55.5275 63.2869" fill="#1A1A1A"/>
<path d="M56.582 59.9977L55.5967 58.4573C55.4857 58.7348 55.111 59.2344 54.8196 59.9283L54.431 59.1512L55.5829 57.1112L55.8604 57.5969L56.9151 59.4565L56.5682 59.9838L56.582 59.9977ZM57.831 60.4695L58.2196 61.1356L58.8163 60.7471V62.6761L56.9567 62.0099L57.5535 61.6214L57.2759 61.2328L57.831 60.4557V60.4695ZM69.6963 47.9659C69.2106 47.4801 68.5445 47.8548 67.7674 48.632C66.9902 49.4091 66.5045 50.0197 66.9902 50.4916C67.4759 50.9634 68.142 50.6026 68.9192 49.8948C69.6963 49.1871 70.071 48.5071 69.6963 47.9659Z" fill="#1A1A1A"/>
<path d="M68.5447 56.4872C68.7653 56.2979 68.94 56.0608 69.0555 55.7939C69.1708 55.527 69.224 55.2373 69.2108 54.9468C69.1686 54.4367 68.9361 53.961 68.5595 53.6142C68.1829 53.2674 67.6897 53.0749 67.1777 53.0749C66.6658 53.0749 66.1726 53.2674 65.7959 53.6142C65.4193 53.961 65.1868 54.4367 65.1447 54.9468V55.3354C65.0336 55.1272 64.6589 54.3501 64.6589 54.2807C64.8445 53.6164 65.2816 53.0506 65.8775 52.7034C66.4736 52.3562 67.1813 52.2549 67.8508 52.4211C68.5622 52.649 69.1553 53.1475 69.5022 53.8089C69.3876 52.949 69.0205 52.1426 68.4475 51.4913C68.1022 51.2253 67.7121 51.0231 67.2957 50.8946C67.6511 50.8955 68.0022 50.8177 68.3237 50.6664C68.6453 50.5153 68.9294 50.2945 69.1553 50.0203C69.7152 49.626 70.0987 49.0283 70.2238 48.355C70.1377 48.8777 70.2102 49.4143 70.432 49.8954C71.0009 50.9726 71.2329 52.1957 71.0981 53.4064C70.834 54.5644 70.2243 55.6146 69.3496 56.4178C69.2534 56.5221 69.1793 56.6446 69.1317 56.7781C69.0839 56.9116 69.0637 57.0534 69.072 57.195H67.1708C67.1708 57.195 66.7822 57.195 66.7822 56.9174C66.7822 56.6399 66.9904 56.6399 67.1708 56.6399C67.6379 56.678 68.1082 56.631 68.5585 56.5011L68.5447 56.4872ZM58.9414 56.9174C57.4701 56.1182 56.2351 54.9456 55.361 53.5174L55.1528 53.2399C55.2561 53.2923 55.3702 53.3197 55.4859 53.3197C55.6016 53.3197 55.7157 53.2923 55.819 53.2399L55.93 53.448C56.7875 54.7195 57.9153 55.7857 59.2328 56.5705L58.9553 56.9174H58.9414ZM60.343 56.9174C61.2538 57.1957 62.1807 57.4181 63.1185 57.5835C63.6646 57.6699 64.2172 57.7069 64.77 57.6946V57.9721C64.7326 58.0078 64.7035 58.0509 64.6843 58.0988C64.6652 58.1467 64.6566 58.1982 64.6589 58.2497C64.074 58.2648 63.4888 58.2276 62.9104 58.1387C61.8936 58.0111 60.8991 57.7449 59.9545 57.3476L60.3708 56.8897L60.343 56.9174ZM67.0736 57.4448H68.1283C68.4128 57.4381 68.6895 57.5371 68.9055 57.7223C68.9076 57.8465 68.884 57.9698 68.8362 58.0844C68.7885 58.199 68.7176 58.3025 68.6279 58.3884C68.4198 58.4995 68.2394 58.4995 68.1422 58.3884C67.7437 58.1928 67.3588 57.9702 66.9904 57.7223C66.921 57.6529 66.81 57.3338 67.1014 57.4448H67.0736ZM66.2271 57.9305C66.4131 57.8426 66.6187 57.8045 66.8239 57.8195C67.2092 58.0292 67.5641 58.2906 67.8785 58.5966C67.9896 58.8048 67.8785 58.8742 67.6704 58.9852C67.5601 59.0709 67.4209 59.1108 67.2818 59.0962C67.099 59.0922 66.925 59.0175 66.7961 58.888C66.6851 58.777 66.3104 58.2913 66.1994 58.2219C66.2184 58.1303 66.2184 58.036 66.1994 57.9444L66.2271 57.9305ZM66.0606 58.4578C66.1716 58.5689 66.5463 59.0546 66.5463 59.0546C66.5463 59.0546 66.5463 59.1656 66.4353 59.2627H66.3243C65.9765 59.2627 65.6355 59.1667 65.339 58.9852C65.0614 58.777 64.7422 58.3191 65.0614 58.208C65.1401 58.1518 65.2302 58.1135 65.3252 58.0956C65.4203 58.0779 65.5181 58.0809 65.6119 58.1047C65.7057 58.1284 65.7932 58.1724 65.8682 58.2333C65.9433 58.2944 66.0042 58.371 66.0467 58.4578H66.0606ZM65.8385 57.195C65.9293 57.1427 66.0321 57.115 66.1369 57.115C66.2417 57.115 66.3445 57.1427 66.4353 57.195C66.5463 57.4031 66.4353 57.5836 66.1577 57.6807C66.002 57.7783 65.8261 57.839 65.6433 57.8582C65.4605 57.8775 65.2757 57.8547 65.103 57.7917C64.9643 57.6807 65.1724 57.3754 65.8385 57.195Z" fill="#1A1A1A"/>
<path d="M92.6223 6H160.622V74H92.6223V6Z" fill="white"/>
<path d="M153.031 26.3852C152.754 23.7485 151.491 22.4163 148.576 22.4163H144.899L144.413 37.293H147.189C147.189 37.293 147.466 30.3542 147.466 30.1044H150.866C150.866 30.382 151.463 37.293 151.463 37.293H154.238C154.127 37.182 153.156 26.982 153.045 26.3852H153.031ZM147.494 27.5787C147.494 27.3012 147.605 25.164 147.605 24.8032H148.091C150.02 24.8032 150.408 25.1918 150.616 27.5787H147.494ZM120.294 46.813C120.016 44.1763 118.754 42.844 115.839 42.844H112.162L111.676 57.7208H114.452C114.452 57.7208 114.729 50.782 114.729 50.5322H118.129C118.129 50.8097 118.726 57.7208 118.726 57.7208H121.501C121.39 57.582 120.419 47.3681 120.308 46.813H120.294ZM114.757 47.9648C114.757 47.6873 114.868 45.5501 114.868 45.1893H115.354C117.283 45.1893 117.671 45.5779 117.879 47.9648H114.757ZM100.088 22.4163V37.2652H102.864V24.7755H106.167V37.2652H108.942V22.4163H100.088ZM128.967 27.5787H127.496C127.004 27.6 126.518 27.4638 126.109 27.1901C126.013 27.0859 125.938 26.9634 125.891 26.8299C125.844 26.6962 125.823 26.5546 125.831 26.413V22.4163H123.056V26.6906C123.04 27.156 123.136 27.6183 123.336 28.0386C123.537 28.459 123.836 28.8248 124.207 29.1052C124.982 29.7608 125.968 30.1112 126.983 30.0906H128.912V37.2791H131.687V22.4163H128.912V27.5787H128.967ZM134.671 22.4163V24.831H136.919V37.3208H139.695V24.831H141.943V22.4163H134.671ZM130.674 42.6914V47.4652H126.886V42.7052H124.18V57.582H126.886V50.0048H130.674V57.582H133.45V42.7052L130.674 42.6914ZM104.085 47.6318H102.822V45.2587H107.693V42.844H100.116V57.7208H104.279C104.934 57.7298 105.582 57.6034 106.186 57.3494C106.79 57.0953 107.334 56.7194 107.785 56.245C108.236 55.7705 108.584 55.2079 108.806 54.5926C109.03 53.9773 109.123 53.3225 109.081 52.6693C108.97 50.9901 108.415 47.6873 104.127 47.6873L104.085 47.6318ZM103.738 55.3338C103.461 55.3338 102.753 55.2228 102.753 55.2228V50.0048H103.238C104.626 50.0048 106.25 49.8938 106.25 52.6416C106.25 55.1673 104.501 55.3477 103.724 55.3477L103.738 55.3338ZM121.099 29.3134C121.118 27.6698 120.782 26.0412 120.114 24.5395C119.808 23.7875 119.284 23.1446 118.608 22.6942C117.932 22.2439 117.137 22.0069 116.325 22.0138H116.214C115.405 22.0215 114.617 22.2643 113.944 22.7128C113.271 23.1614 112.743 23.7961 112.425 24.5395C111.763 26.0433 111.428 27.6703 111.44 29.3134V29.7991C111.405 31.0111 111.569 32.2206 111.926 33.3795C112.703 36.391 114.34 37.4457 116.2 37.5428H116.311C118.171 37.5428 119.822 36.4881 120.585 33.3795C120.885 32.2087 121.048 31.0073 121.071 29.7991V29.3134H121.099ZM114.132 29.7991C114.132 25.8301 115.118 24.4701 116.172 24.4701C117.227 24.4701 118.212 25.8579 118.212 29.7991C118.212 33.7403 117.227 35.031 116.172 35.031C115.118 35.031 114.243 33.6432 114.132 29.7991ZM146.869 57.5542L143.567 48.8114C144.351 48.2166 144.913 47.3762 145.163 46.4244C145.371 45.4391 145.648 42.7469 145.648 42.7469H142.873C142.873 43.0244 142.762 43.8987 142.665 44.884C142.554 46.355 142.068 47.6595 140.736 47.6595H139.75V42.7746H136.975V57.582H139.75V50.0048H141.402L144.177 57.582L146.869 57.5542Z" fill="#1A1A1A"/>
</svg>
