<svg width="214" height="80" viewBox="0 0 214 80" fill="none" xmlns="http://www.w3.org/2000/svg">
<path d="M118.198 20L96.641 22.8205V29.2131L118.198 27.2856V20Z" fill="#1A1A1A"/>
<path d="M52.3296 43.2768C52.3296 47.1563 53.4837 48.5031 57.19 48.5031C60.8962 48.5031 62.0307 47.1563 62.0307 43.2768C62.0307 39.3974 60.9133 38.0505 57.19 38.0505C53.4666 38.0505 52.3296 39.3779 52.3296 43.2768ZM45.8175 43.2183C45.8175 36.1108 49.758 32.8608 57.1924 32.8608C64.6268 32.8608 68.5868 36.1108 68.5868 43.2183C68.5868 50.3258 64.6659 53.6904 57.1924 53.6904C49.7189 53.6904 45.8175 50.3258 45.8175 43.2183Z" fill="#1A1A1A"/>
<path d="M114.116 34.6466L96.641 22.8203V29.2031L102.089 32.8947L103.16 33.5218C101.211 33.5462 100.267 33.9439 99.3249 34.5124C96.6337 36.1374 95.238 38.997 95.238 43.2204C95.238 50.3279 99.159 53.6926 106.613 53.6926C114.067 53.6926 118.007 50.3279 118.007 43.2204C118.007 39.1092 116.675 36.296 114.118 34.649L114.116 34.6466ZM106.61 48.5029C102.904 48.5029 101.75 47.156 101.75 43.2766C101.75 39.3971 102.904 38.0503 106.61 38.0503C110.317 38.0503 111.451 39.3776 111.451 43.2766C111.451 47.1756 110.334 48.5029 106.61 48.5029Z" fill="#1A1A1A"/>
<path d="M34.5988 32.8267C31.0804 32.8267 28.2184 35.0006 27.5084 35.901V33.2854H21.2646V60H27.4718V50.5014C28.2013 51.4237 31.0438 53.5586 34.5793 53.5586C40.457 53.5586 43.6875 50.3672 43.6875 43.1817C43.6875 35.9961 40.457 32.8242 34.5988 32.8242V32.8267ZM32.376 48.3811C28.6698 48.3811 27.5157 47.0343 27.5157 43.1548C27.5157 39.2754 28.6698 37.9285 32.376 37.9285C36.0823 37.9285 37.2168 39.2558 37.2168 43.1548C37.2168 47.0538 36.0993 48.3811 32.376 48.3811Z" fill="#1A1A1A"/>
<path d="M160.716 33.3071V40.5586H152.473V33.3071H146.227V52.9314H152.473V45.5799H160.716V52.9314H166.962V33.3071H160.716Z" fill="#1A1A1A"/>
<path d="M120.155 43.1841C120.155 50.3697 123.385 53.5611 129.263 53.5611C132.801 53.5611 135.643 51.4261 136.37 50.5039V52.9316H142.577V33.2878H136.331V35.9034C135.621 35.0006 132.762 32.8291 129.241 32.8291C123.383 32.8291 120.152 36.0205 120.152 43.1865L120.155 43.1841ZM126.625 43.1548C126.625 39.2558 127.743 37.9285 131.466 37.9285C135.172 37.9285 136.326 39.2558 136.326 43.1548C136.326 47.0343 135.172 48.3811 131.466 48.3811C127.74 48.3811 126.625 47.0343 126.625 43.1548Z" fill="#1A1A1A"/>
<path d="M86.708 45.6802C86.2298 47.7321 84.9049 48.5031 82.0892 48.5031C78.383 48.5031 77.2289 47.1563 77.2289 43.2768C77.2289 39.3974 78.383 38.0505 82.0892 38.0505C84.9098 38.0505 86.2322 38.8142 86.7104 40.8735L93.225 40.3807C92.2515 35.2471 88.4452 32.8608 82.0892 32.8608C74.6548 32.8608 70.7144 36.1108 70.7144 43.2183C70.7144 50.3258 74.6353 53.6904 82.0892 53.6904C88.433 53.6904 92.2076 51.2529 93.2055 46.1706L86.708 45.6777V45.6802Z" fill="#1A1A1A"/>
<path d="M193.398 52.9289L183.512 42.6252L192.866 33.3071H185.142L176.758 41.8322V33.3071H170.622V52.9289H176.758V46.0679V44.3673V43.8939L185.369 52.9289H193.398Z" fill="#1A1A1A"/>
</svg>
