<svg width="156" height="64" viewBox="0 0 156 64" fill="none" xmlns="http://www.w3.org/2000/svg">
<path d="M141.826 1H1V63H141.826V1Z" stroke="white" stroke-width="2" stroke-miterlimit="10"/>
<path d="M15.8381 12.1808L23.2433 26.9743H23.4499L30.8662 12.1808H33.8093L25.9797 27.6316H20.7023L12.8895 12.1808H15.8381Z" fill="white"/>
<path d="M44.0907 12.1808L51.9259 27.6316H48.9828L46.1626 21.9963H46.0118V23.9515H36.909V21.9963H36.7638L33.9436 27.6316H31.0005L38.8133 12.1808H44.0907ZM37.0933 21.3389H45.8275L41.5553 12.8213H41.3711L37.0933 21.3389Z" fill="white"/>
<path d="M57.5382 12.1808V24.9966H69.2547V27.6316H54.9414V12.1808H57.5382Z" fill="white"/>
<path d="M75.0348 12.1808V19.5691H75.4872L86.1202 12.1808H90.6996L79.5918 19.895L90.6996 27.6316H86.1202L75.4872 20.2265H75.0348V27.6316H72.438V12.1808H75.0348Z" fill="white"/>
<path d="M109.631 20.0186C109.631 24.3617 105.56 27.8788 100.528 27.8788C95.4743 27.8788 91.4088 24.3617 91.4088 20.0186C91.4088 15.698 95.4799 12.1808 100.528 12.1808C105.56 12.1808 109.631 15.698 109.631 20.0186ZM94.0056 20.0186C94.0056 22.9177 96.9319 25.2662 100.528 25.2662C104.108 25.2662 107.034 22.9233 107.034 20.0186C107.034 17.1363 104.108 14.7934 100.528 14.7934C96.9319 14.7934 94.0056 17.1419 94.0056 20.0186Z" fill="white"/>
<path d="M112.932 12.1808L120.337 26.9743H120.544L127.965 12.1808H130.909L123.073 27.6316H117.796L109.983 12.1808H112.932Z" fill="white"/>
<path d="M31.4137 36.8741V39.4867H19.6916V43.2736H28.9341V45.9087H19.6916V49.6955H31.4081V52.3306H17.0948V36.8798H31.4137V36.8741Z" fill="white"/>
<path d="M37.7131 36.8741L45.1183 51.6676H45.3249L52.7468 36.8741H55.6899L47.8547 52.325H42.5773L34.7645 36.8741H37.7131Z" fill="white"/>
<path d="M73.5828 36.8741V39.4867H61.8664V43.2736H71.1088V45.9087H61.8664V49.6955H73.5828V52.3306H59.2695V36.8798H73.5828V36.8741Z" fill="white"/>
<path d="M84.6905 36.8741L92.6039 51.9373H92.7881V36.8741H95.385V52.325H89.6831L81.7698 37.2618H81.5855V52.325H78.9886V36.8741H84.6905Z" fill="white"/>
<path d="M115.222 36.8741V39.4867H108.715V52.325H106.096V39.4867H99.5903V36.8741H115.222Z" fill="white"/>
<path d="M141.782 25.6932L143.351 34.1659C143.747 36.0144 144.284 37.8854 147.578 38.4191L156 39.9979V40.0035L147.578 41.5823C144.284 42.1161 143.747 43.987 143.351 45.8355L141.782 54.3082L140.212 45.8355C139.816 43.987 139.28 42.1161 135.985 41.5823L127.563 40.0035V39.9979L135.985 38.4191C139.28 37.8854 139.816 36.0144 140.212 34.1659L141.782 25.6932Z" fill="white"/>
</svg>
