<svg width="192" height="136" viewBox="0 0 192 136" fill="none" xmlns="http://www.w3.org/2000/svg">
<path d="M4.23132 103.816L0.832198 115.047L11.3406 135.954L33.0018 125.066L29.1806 117.464L14.7398 124.722L4.23132 103.816Z" fill="#2C2A29"/>
<path d="M35.4457 111.934L38.8448 100.702L28.3363 79.7959L8.4803 89.7764L5.08114 101.008L24.9656 90.934L35.4457 111.934Z" fill="#2C2A29"/>
<path d="M14.3177 105.888L21.5381 102.259L25.3594 109.862L18.139 113.491L14.3177 105.888Z" fill="#2C2A29"/>
<path d="M48.3566 68.0861C50.6069 66.955 52.8469 66.7696 55.0771 67.5296C57.3261 68.2802 59.0236 69.7956 60.1697 72.0759C61.3159 74.3561 61.5239 76.6318 60.7939 78.903C60.0551 81.1554 58.5693 82.8427 56.3377 83.9644C54.8069 84.7338 53.2232 85.0074 51.5866 84.785L54.7176 91.0139L50.6784 93.0442L40.405 72.6054L43.0885 71.2566L44.465 72.2715C45.1967 70.4175 46.4939 69.0224 48.3566 68.0861ZM50.5573 80.5999C51.7233 80.9891 52.8873 80.8917 54.0492 80.3077C55.2297 79.7143 56.0116 78.8336 56.3946 77.6658C56.7781 76.4977 56.6714 75.3205 56.075 74.1341C55.6836 73.3555 55.1541 72.7391 54.4871 72.2849C53.82 71.8307 53.0842 71.5851 52.2799 71.5481C51.4943 71.5018 50.7143 71.6732 49.9396 72.0627C49.1649 72.452 48.5526 72.9804 48.1026 73.6478C47.6525 74.3153 47.4107 75.0522 47.3771 75.8587C47.3619 76.6558 47.55 77.4438 47.9414 78.2224C48.5378 79.4088 49.4097 80.2014 50.5573 80.5999ZM70.066 57.6617L73.0815 56.146L80.6294 71.1623L77.4481 72.7613L76.445 71.5935C75.6767 73.4659 74.3609 74.8703 72.4983 75.8066C70.248 76.9377 67.9984 77.1279 65.75 76.377C63.5105 75.5985 61.8174 74.0693 60.6712 71.789C59.5344 69.5273 59.3266 67.2747 60.0472 65.0314C60.786 62.7791 62.2809 61.0872 64.5312 59.9561C66.4307 59.0013 68.3703 58.7927 70.3506 59.33L70.066 57.6617ZM67.3818 72.1083C68.5475 72.4977 69.7117 72.4003 70.8737 71.8162C72.054 71.2229 72.8358 70.3422 73.2188 69.1744C73.6023 68.0063 73.4956 66.8291 72.8992 65.6427C72.3029 64.4562 71.4218 63.6683 70.2556 63.2792C69.0899 62.8897 67.9257 62.9872 66.7637 63.5713C65.9893 63.9605 65.3814 64.4983 64.9411 65.1841C64.5095 65.8422 64.2768 66.5746 64.2433 67.381C64.2 68.1691 64.3746 68.9522 64.766 69.7308C65.3623 70.9173 66.2343 71.7098 67.3818 72.1083ZM83.1914 50.9947L84.5192 50.3273L86.4481 54.1647L84.7053 55.0407C83.5614 55.6157 82.8762 56.2969 82.648 57.085C82.4391 57.8635 82.6416 58.8647 83.2566 60.0883L87.1842 67.9023L83.1451 69.9325L75.5973 54.9163L78.1979 53.6091L79.8397 55.0829C80.2112 53.2939 81.3282 51.9312 83.1914 50.9947ZM97.3423 43.9515L100.358 42.4357L107.906 57.452L104.724 59.0511L103.721 57.8832C102.953 59.7557 101.637 61.1601 99.7746 62.0963C97.5243 63.2274 95.2753 63.4174 93.0263 62.6668C90.7868 61.8883 89.0937 60.359 87.9475 58.0788C86.8107 55.817 86.6029 53.5644 87.3235 51.3212C88.0629 49.0686 89.5572 47.377 91.8075 46.2459C93.707 45.2911 95.6472 45.0822 97.6269 45.6198L97.3423 43.9515ZM94.6581 58.3981C95.8238 58.7875 96.988 58.69 98.15 58.1059C99.3303 57.5127 100.112 56.632 100.496 55.4639C100.879 54.296 100.772 53.1186 100.176 51.9322C99.5797 50.7457 98.6981 49.958 97.5325 49.5687C96.3662 49.1795 95.2026 49.2767 94.0405 49.8608C93.2656 50.2503 92.6583 50.7878 92.2174 51.4739C91.7858 52.132 91.5531 52.8644 91.5196 53.6708C91.4769 54.4586 91.6509 55.242 92.0423 56.0206C92.6386 57.207 93.5106 57.9995 94.6581 58.3981ZM111.132 30.2627L115.171 28.2325L125.444 48.6712L122.456 50.1733L121.357 49.1582C120.597 50.9565 119.323 52.3054 117.534 53.2045C116.04 53.9556 114.521 54.2892 112.978 54.2059C111.434 54.1226 110.018 53.65 108.73 52.788C107.451 51.898 106.434 50.7023 105.68 49.2007C104.925 47.699 104.577 46.1788 104.635 44.6402C104.711 43.0923 105.177 41.674 106.031 40.3854C106.885 39.0968 108.059 38.0773 109.553 37.3263C111.065 36.5661 112.635 36.288 114.263 36.4917L111.132 30.2627ZM112.417 49.5063C113.584 49.8954 114.747 49.7982 115.909 49.2141C117.09 48.6209 117.871 47.7402 118.255 46.5721C118.629 45.3858 118.523 44.2083 117.935 43.0404C117.339 41.8539 116.457 41.0663 115.292 40.6769C114.126 40.2877 112.952 40.3898 111.772 40.983C110.61 41.5671 109.838 42.4429 109.454 43.6111C109.071 44.7789 109.177 45.9563 109.774 47.1428C110.37 48.3292 111.252 49.1169 112.417 49.5063ZM119.369 30.4067L117.468 26.6248L121.507 24.5946L123.408 28.3765L119.369 30.4067ZM127.923 47.4251L120.375 32.4089L124.415 30.3787L131.962 45.3949L127.923 47.4251ZM138.971 23.0622L141.599 21.7413L148.266 35.0056C149.048 36.5629 149.411 38.0644 149.352 39.5106C149.321 40.9659 148.888 42.2867 148.052 43.4732C147.215 44.66 146.014 45.6472 144.446 46.435C142.417 47.4549 140.474 47.8165 138.615 47.52C136.774 47.2142 135.26 46.2919 134.07 44.7533L138.082 42.7371C138.62 43.2561 139.31 43.5248 140.151 43.5432C141.001 43.5804 141.823 43.3994 142.616 43.0008C143.686 42.4632 144.408 41.6939 144.783 40.6926C145.185 39.7008 145.116 38.6671 144.576 37.5919L144.296 37.0357C143.508 38.5468 142.311 39.7056 140.707 40.512C139.341 41.1982 137.924 41.5042 136.455 41.43C134.976 41.3373 133.625 40.8786 132.402 40.0537C131.178 39.2287 130.217 38.1211 129.518 36.7308C128.465 34.6359 128.281 32.4992 128.964 30.321C129.667 28.1331 131.06 26.5157 133.145 25.4679C135.081 24.4946 137.063 24.2999 139.089 24.8836L138.971 23.0622ZM139.36 36.6607C140.466 36.1046 141.198 35.2839 141.554 34.1994C141.9 33.0963 141.789 31.9795 141.221 30.8487C140.661 29.7363 139.841 28.9993 138.758 28.6378C137.684 28.2487 136.585 28.3368 135.46 28.9023C134.372 29.4493 133.654 30.2744 133.308 31.3774C132.952 32.462 133.054 33.5602 133.613 34.6726C134.181 35.8034 135.002 36.5636 136.075 36.953C137.159 37.3142 138.253 37.2169 139.36 36.6607ZM160.891 11.5913C162.44 10.8126 163.983 10.7339 165.519 11.3549C167.075 11.9664 168.29 13.1436 169.166 14.8862L173.904 24.3131L169.865 26.3433L165.462 17.5838C164.437 15.5446 163.169 14.905 161.656 15.6652C161.066 15.9619 160.624 16.37 160.33 16.8891C160.046 17.3804 159.933 17.9595 159.991 18.627C160.049 19.2945 160.274 20.0175 160.666 20.7961L164.747 28.916L160.791 30.9046L156.388 22.1451C155.363 20.1058 154.122 19.4523 152.665 20.1848C151.743 20.6482 151.187 21.3341 150.996 22.2426C150.806 23.1511 151.004 24.1894 151.591 25.3573L155.672 33.4772L151.633 35.5074L144.086 20.4912L146.908 19.0728L148.591 20.5603C148.8 19.5962 149.193 18.7251 149.772 17.9462C150.36 17.1397 151.088 16.5186 151.955 16.0829C152.895 15.6101 153.851 15.397 154.821 15.4433C155.792 15.4896 156.68 15.7861 157.486 16.3331C157.54 15.9807 157.618 15.6517 157.718 15.3456C157.809 15.0213 157.933 14.7154 158.088 14.4281C158.235 14.122 158.405 13.8395 158.598 13.5798C158.782 13.3017 158.988 13.0468 159.218 12.8152C159.467 12.5741 159.725 12.3516 159.992 12.1475C160.277 11.9345 160.577 11.7491 160.891 11.5913ZM180.852 1.9759L183.868 0.460151L191.415 15.4764L188.234 17.0755L187.231 15.9077C186.463 17.7801 185.147 19.1845 183.284 20.1208C181.034 21.2519 178.785 21.4421 176.536 20.6912C174.297 19.9127 172.604 18.3835 171.457 16.1032C170.321 13.8415 170.113 11.5889 170.833 9.34563C171.572 7.09326 173.067 5.40138 175.317 4.27028C177.217 3.31551 179.156 3.10692 181.137 3.64422L180.852 1.9759ZM178.168 16.4225C179.334 16.8119 180.498 16.7145 181.66 16.1304C182.84 15.5371 183.622 14.6564 184.005 13.4883C184.388 12.3205 184.282 11.1433 183.685 9.95686C183.089 8.77039 182.208 7.98245 181.042 7.59307C179.876 7.20391 178.712 7.30139 177.55 7.8852C176.775 8.27469 176.168 8.81249 175.727 9.49829C175.296 10.1564 175.063 10.8888 175.029 11.6952C174.986 12.4833 175.161 13.2664 175.552 14.045C176.148 15.2315 177.02 16.024 178.168 16.4225ZM60.422 85.0573L64.4611 83.027L74.7345 103.466L71.7468 104.968L70.6472 103.953C69.8877 105.751 68.6136 107.1 66.8245 107.999C65.3305 108.75 63.8118 109.084 62.2681 109C60.7245 108.917 59.3087 108.444 58.0206 107.582C56.7416 106.693 55.7247 105.497 54.9699 103.995C54.2152 102.494 53.8669 100.973 53.9252 99.4347C54.0019 97.8867 54.4673 96.4684 55.3214 95.1799C56.1754 93.8914 57.3494 92.8717 58.8434 92.1208C60.3555 91.3607 61.9258 91.0823 63.5529 91.2863L60.422 85.0573ZM61.708 104.301C62.874 104.69 64.038 104.593 65.1999 104.009C66.3805 103.415 67.1624 102.535 67.5453 101.367C67.9195 100.18 67.8128 99.0029 67.2258 97.835C66.6294 96.6485 65.7484 95.8606 64.5821 95.4715C63.4164 95.082 62.2432 95.1841 61.0626 95.7775C59.9007 96.3615 59.128 97.2375 58.7448 98.4055C58.3615 99.5735 58.468 100.751 59.0644 101.937C59.6608 103.124 60.542 103.912 61.708 104.301ZM68.6594 85.2013L66.7585 81.4194L70.7976 79.3892L72.6985 83.1711L68.6594 85.2013ZM77.2136 102.22L69.6658 87.2035L73.7049 85.1733L81.2527 100.19L77.2136 102.22ZM88.261 77.8568L90.8888 76.5359L97.5561 89.8002C98.3388 91.3575 98.701 92.859 98.6427 94.3049C98.6113 95.7605 98.178 97.0813 97.3421 98.2678C96.5058 99.4546 95.3044 100.442 93.7365 101.23C91.7075 102.249 89.7638 102.611 87.9052 102.315C86.0648 102.009 84.5502 101.087 83.3608 99.5479L87.3726 97.5314C87.9103 98.0507 88.6 98.3194 89.4413 98.3378C90.2913 98.375 91.1134 98.194 91.9064 97.7954C92.976 97.2578 93.6985 96.4882 94.0729 95.4872C94.4753 94.4954 94.4066 93.4617 93.8661 92.3865L93.5866 91.8303C92.798 93.3414 91.6013 94.5002 89.997 95.3066C88.6322 95.9925 87.2146 96.2988 85.7451 96.2246C84.2664 96.1319 82.9151 95.6732 81.6919 94.8482C80.4687 94.0232 79.5074 92.9157 78.8085 91.5254C77.7555 89.4305 77.5712 87.2938 78.2554 85.1153C78.9577 82.9277 80.3512 81.31 82.4352 80.2625C84.3716 79.2892 86.353 79.0945 88.3794 79.6782L88.261 77.8568ZM88.65 91.4553C89.757 90.8989 90.4881 90.0785 90.8439 88.994C91.1905 87.8909 91.0798 86.7738 90.5114 85.643C89.9523 84.5306 89.1311 83.7939 88.0484 83.4324C86.9746 83.0433 85.8754 83.1313 84.7503 83.6969C83.662 84.2439 82.9446 85.069 82.5981 86.172C82.2422 87.2565 82.3441 88.3548 82.9032 89.4672C83.4716 90.598 84.2925 91.3582 85.3663 91.7473C86.449 92.1087 87.5435 92.0115 88.65 91.4553ZM92.3701 73.2834L90.4691 69.5015L94.5082 67.4712L96.4092 71.2531L92.3701 73.2834ZM100.924 90.3018L93.3764 75.2855L97.4155 73.2553L104.963 88.2715L100.924 90.3018ZM112.943 79.732L114.769 78.8143L116.586 82.4294L113.737 83.8615C112.649 84.4085 111.592 84.6727 110.566 84.6544C109.558 84.6266 108.642 84.3207 107.817 83.7367C106.983 83.1345 106.287 82.2769 105.727 81.1646L102.513 74.7688L99.8014 76.1316L99.3681 75.2695L102.116 65.9813L102.863 65.6057L104.834 69.5267L108.956 67.4548L110.591 70.7083L106.552 72.7385L109.501 78.606C109.864 79.329 110.342 79.7972 110.934 80.0104C111.536 80.1957 112.205 80.103 112.943 79.732ZM122.464 60.6298L125.48 59.114L133.028 74.1303L129.846 75.7294L128.843 74.5615C128.075 76.434 126.759 77.8384 124.897 78.7746C122.646 79.9057 120.397 80.096 118.148 79.3451C115.909 78.5666 114.216 77.0373 113.07 74.7571C111.933 72.4953 111.725 70.2427 112.446 67.9995C113.184 65.7471 114.679 64.0553 116.93 62.9242C118.829 61.9694 120.769 61.7608 122.748 62.2984L122.464 60.6298ZM119.78 75.0764C120.946 75.4658 122.11 75.3683 123.272 74.7842C124.452 74.191 125.234 73.3103 125.617 72.1425C126.001 70.9743 125.894 69.7972 125.298 68.6107C124.701 67.4243 123.82 66.6363 122.654 66.2472C121.488 65.8578 120.324 65.9553 119.162 66.5394C118.388 66.9286 117.78 67.4664 117.34 68.1522C116.908 68.8103 116.675 69.5427 116.641 70.3493C116.598 71.1372 116.773 71.9203 117.164 72.6989C117.761 73.8853 118.633 74.6778 119.78 75.0764ZM135.544 72.9006L125.27 52.4618L129.309 50.4316L139.583 70.8704L135.544 72.9006Z" fill="#2C2A29"/>
</svg>
