<svg width="20" height="15" viewBox="0 0 20 15" fill="none" xmlns="http://www.w3.org/2000/svg">
<mask id="path-1-inside-1_235_3109" fill="white">
<path fill-rule="evenodd" clip-rule="evenodd" d="M20 11.25C17.9289 11.25 16.25 9.57107 16.25 7.5C16.25 5.42893 17.9289 3.75 20 3.75L20 0L0 -8.74228e-07L-1.63918e-07 3.75C2.07107 3.75 3.75 5.42893 3.75 7.5C3.75 9.57107 2.07107 11.25 -4.91753e-07 11.25L-6.55671e-07 15L20 15L20 11.25Z"/>
</mask>
<path fill-rule="evenodd" clip-rule="evenodd" d="M20 11.25C17.9289 11.25 16.25 9.57107 16.25 7.5C16.25 5.42893 17.9289 3.75 20 3.75L20 0L0 -8.74228e-07L-1.63918e-07 3.75C2.07107 3.75 3.75 5.42893 3.75 7.5C3.75 9.57107 2.07107 11.25 -4.91753e-07 11.25L-6.55671e-07 15L20 15L20 11.25Z" fill="#201C1E"/>
<path d="M20 11.25L21 11.25L21 10.25L20 10.25L20 11.25ZM20 3.75L20 4.75L21 4.75L21 3.75L20 3.75ZM20 0L21 4.37114e-08L21 -1L20 -1L20 0ZM0 -8.74228e-07L4.37114e-08 -1L-1 -1L-1 -9.17939e-07L0 -8.74228e-07ZM-1.63918e-07 3.75L-1 3.75L-1 4.75L-2.07629e-07 4.75L-1.63918e-07 3.75ZM-4.91753e-07 11.25L-4.48042e-07 10.25L-1 10.25L-1 11.25L-4.91753e-07 11.25ZM-6.55671e-07 15L-1 15L-1 16L-6.99382e-07 16L-6.55671e-07 15ZM20 15L20 16L21 16L21 15L20 15ZM15.25 7.5C15.25 10.1234 17.3766 12.25 20 12.25L20 10.25C18.4812 10.25 17.25 9.01878 17.25 7.5L15.25 7.5ZM20 2.75C17.3766 2.75 15.25 4.87665 15.25 7.5L17.25 7.5C17.25 5.98122 18.4812 4.75 20 4.75L20 2.75ZM19 -4.37114e-08L19 3.75L21 3.75L21 4.37114e-08L19 -4.37114e-08ZM-4.37114e-08 0.999999L20 1L20 -1L4.37114e-08 -1L-4.37114e-08 0.999999ZM1 3.75L1 -8.30516e-07L-1 -9.17939e-07L-1 3.75L1 3.75ZM-2.07629e-07 4.75C1.51878 4.75 2.75 5.98122 2.75 7.5L4.75 7.5C4.75 4.87665 2.62335 2.75 -1.20206e-07 2.75L-2.07629e-07 4.75ZM2.75 7.5C2.75 9.01878 1.51878 10.25 -4.48042e-07 10.25L-5.35465e-07 12.25C2.62335 12.25 4.75 10.1234 4.75 7.5L2.75 7.5ZM0.999999 15L1 11.25L-1 11.25L-1 15L0.999999 15ZM20 14L-6.11959e-07 14L-6.99382e-07 16L20 16L20 14ZM19 11.25L19 15L21 15L21 11.25L19 11.25Z" fill="#201C1E" mask="url(#path-1-inside-1_235_3109)"/>
</svg>
