<svg width="55" height="55" viewBox="0 0 55 55" fill="none" xmlns="http://www.w3.org/2000/svg">
<rect width="55" height="55" rx="27.5" fill="#BAF86B"/>
<mask id="path-2-inside-1_166_327" fill="white">
<path fill-rule="evenodd" clip-rule="evenodd" d="M37 31.25C34.9289 31.25 33.25 29.5711 33.25 27.5C33.25 25.4289 34.9289 23.75 37 23.75L37 20L17 20L17 23.75C19.0711 23.75 20.75 25.4289 20.75 27.5C20.75 29.5711 19.0711 31.25 17 31.25L17 35L37 35L37 31.25Z"/>
</mask>
<path fill-rule="evenodd" clip-rule="evenodd" d="M37 31.25C34.9289 31.25 33.25 29.5711 33.25 27.5C33.25 25.4289 34.9289 23.75 37 23.75L37 20L17 20L17 23.75C19.0711 23.75 20.75 25.4289 20.75 27.5C20.75 29.5711 19.0711 31.25 17 31.25L17 35L37 35L37 31.25Z" fill="#201C1E"/>
<path d="M37 31.25L38 31.25L38 30.25L37 30.25L37 31.25ZM37 23.75L37 24.75L38 24.75L38 23.75L37 23.75ZM37 20L38 20L38 19L37 19L37 20ZM17 20L17 19L16 19L16 20L17 20ZM17 23.75L16 23.75L16 24.75L17 24.75L17 23.75ZM17 31.25L17 30.25L16 30.25L16 31.25L17 31.25ZM17 35L16 35L16 36L17 36L17 35ZM37 35L37 36L38 36L38 35L37 35ZM32.25 27.5C32.25 30.1234 34.3766 32.25 37 32.25L37 30.25C35.4812 30.25 34.25 29.0188 34.25 27.5L32.25 27.5ZM37 22.75C34.3766 22.75 32.25 24.8766 32.25 27.5L34.25 27.5C34.25 25.9812 35.4812 24.75 37 24.75L37 22.75ZM36 20L36 23.75L38 23.75L38 20L36 20ZM17 21L37 21L37 19L17 19L17 21ZM18 23.75L18 20L16 20L16 23.75L18 23.75ZM17 24.75C18.5188 24.75 19.75 25.9812 19.75 27.5L21.75 27.5C21.75 24.8766 19.6234 22.75 17 22.75L17 24.75ZM19.75 27.5C19.75 29.0188 18.5188 30.25 17 30.25L17 32.25C19.6234 32.25 21.75 30.1234 21.75 27.5L19.75 27.5ZM18 35L18 31.25L16 31.25L16 35L18 35ZM37 34L17 34L17 36L37 36L37 34ZM36 31.25L36 35L38 35L38 31.25L36 31.25Z" fill="#201C1E" mask="url(#path-2-inside-1_166_327)"/>
</svg>
