<svg width="161" height="80" viewBox="0 0 161 80" fill="none" xmlns="http://www.w3.org/2000/svg">
<path fill-rule="evenodd" clip-rule="evenodd" d="M73.3063 51.7114C74.6104 51.7114 75.8745 51.3949 76.9596 50.7975L77.898 50.2861L80.6366 52.3003C78.831 54.2326 76.1668 55.2941 73.1154 55.2941C70.1988 55.2941 67.539 54.266 65.6255 52.3993C63.7185 50.5391 62.668 47.9609 62.668 45.1404C62.668 42.3329 63.7218 39.7923 65.6363 37.987C67.539 36.1914 70.2053 35.2031 73.1424 35.2031C75.8497 35.2031 78.2183 36.0245 79.9905 37.579L80.1911 37.7545L77.1559 39.9871C76.0439 39.1894 74.7495 38.7847 73.3063 38.7847C69.4913 38.7847 66.7214 41.5029 66.7214 45.248C66.7214 48.9932 69.4902 51.7114 73.3063 51.7114ZM93.6081 43.0905H88.4577V38.7188H96.68L101.111 35.4591H84.2252V55.0355H93.0623C98.0185 55.0355 100.862 52.7942 100.862 48.8854C100.862 45.1488 98.2849 43.0905 93.6081 43.0905ZM92.8714 51.7758H88.4577V46.3491H92.8714C95.5582 46.3491 96.8094 47.2566 96.8094 49.0619C96.8083 50.907 95.4838 51.7758 92.8714 51.7758ZM119.633 35.4591L115.202 38.7188H109.034V43.5049H118.074V46.7646H109.034V51.7758H119.633V55.0355H104.802V35.4591H119.633ZM123.573 35.4591H131.647C136.801 35.4591 140.001 38.1439 140.001 42.465C140.001 46.7862 136.8 49.4904 131.647 49.4904H127.805V55.0355H123.573V35.4591ZM127.805 46.2307H131.557C134.27 46.2307 135.762 44.8969 135.762 42.4747C135.762 40.0526 134.269 38.7188 131.557 38.7188H127.805V46.2307Z" fill="#19191E"/>
<path d="M36.2963 44.7927L30.0931 40.9149V45.5799L36.2963 49.4577L51.1454 38.5459C50.6202 37.3909 49.9623 36.308 49.1923 35.3154L36.2963 44.7927Z" fill="#19191E"/>
<path d="M52.5926 45.25C52.5926 44.2564 52.5031 43.2832 52.3316 42.339L48.8235 44.9166C48.8267 45.0274 48.8278 45.1382 48.8278 45.25C48.8278 52.14 43.2059 57.7459 36.2963 57.7459C29.3867 57.7459 23.7648 52.14 23.7648 45.25C23.7648 38.3601 29.3867 32.7541 36.2963 32.7541C38.9148 32.7541 41.3488 33.5596 43.3612 34.935L46.5307 32.6057C43.7332 30.3517 40.1733 29 36.2963 29C27.2957 29 20 36.2749 20 45.25C20 54.2251 27.2957 61.5 36.2963 61.5C45.297 61.5 52.5926 54.2251 52.5926 45.25Z" fill="#19191E"/>
</svg>
