<svg width="219" height="80" viewBox="0 0 219 80" fill="none" xmlns="http://www.w3.org/2000/svg">
<g clip-path="url(#clip0_1055_9859)">
<path d="M67.7236 36.3057C68.7897 36.3057 69.9753 36.3424 70.9954 37.0409C71.6847 37.4912 72.4842 38.3919 72.4842 39.991C72.4842 41.7556 71.3722 43.8234 68.2934 43.8234H65.7017V48.6391H63.4409V36.3057H67.7236ZM67.8155 42.0221C68.321 42.0221 69.0379 42.0405 69.6168 41.4982C70.012 41.1398 70.2326 40.5332 70.2326 40.0094C70.2326 39.5223 70.0304 38.9525 69.6352 38.6033C69.24 38.2632 68.6151 38.0978 67.9074 38.0978H65.7109V42.0221H67.8155Z" fill="#1A1A1A"/>
<path d="M74.5798 40.4045C75.2047 39.8071 76.1421 39.2925 77.5483 39.2925C78.9544 39.2925 79.8826 39.8163 80.5168 40.4045C81.4542 41.2868 81.9321 42.6562 81.9321 44.0531C81.9321 45.45 81.445 46.8194 80.5168 47.7017C79.8918 48.299 78.9544 48.8137 77.5483 48.8137C76.1421 48.8137 75.2139 48.2899 74.5798 47.7017C73.6424 46.8194 73.1553 45.45 73.1553 44.0531C73.1553 42.6562 73.6424 41.2868 74.5798 40.4045ZM76.1054 46.6448C76.2984 46.8837 76.7487 47.3065 77.5391 47.3065C78.3295 47.3065 78.7798 46.8745 78.982 46.6448C79.129 46.4885 79.6712 45.7625 79.6712 44.0531C79.6712 42.3437 79.129 41.6268 78.982 41.4706C78.789 41.2316 78.3386 40.7997 77.5391 40.7997C76.7395 40.7997 76.2984 41.2316 76.1054 41.4706C75.9583 41.636 75.4161 42.3529 75.4161 44.0531C75.4161 45.7533 75.9583 46.4794 76.1054 46.6448Z" fill="#1A1A1A"/>
<path d="M89.1004 42.8306C89.0637 42.3619 88.8799 41.8197 88.6501 41.4796C88.4295 41.158 87.9976 40.7995 87.2807 40.7995C86.5639 40.7995 86.1136 41.158 85.8195 41.645C85.3691 42.3803 85.3324 43.5291 85.3324 44.0529C85.3324 44.8984 85.461 45.9094 85.8195 46.4792C86.0492 46.8376 86.5179 47.3063 87.2807 47.3063C87.823 47.3063 88.2641 47.0949 88.6133 46.6262C88.8799 46.2494 89.0637 45.7072 89.1004 45.2385L91.0028 45.4682C90.8925 46.3138 90.5157 47.2512 89.854 47.8577C89.2934 48.3632 88.4295 48.8135 87.2072 48.8135C85.8378 48.8135 84.9556 48.2713 84.4409 47.7842C83.7424 47.1225 83.0715 45.9369 83.0715 44.0621C83.0715 42.3159 83.6689 41.2774 84.1284 40.7168C84.7901 39.9264 85.9297 39.2739 87.2532 39.2739C88.3836 39.2739 89.321 39.6691 89.9092 40.2849C90.5065 40.8822 90.865 41.7737 90.9936 42.5825L89.0912 42.8214L89.1004 42.8306Z" fill="#1A1A1A"/>
<path d="M98.0245 42.8306C97.9877 42.3619 97.8131 41.8197 97.5742 41.4796C97.3628 41.158 96.9216 40.7995 96.2048 40.7995C95.4879 40.7995 95.0376 41.158 94.7527 41.645C94.3024 42.3803 94.2656 43.5291 94.2656 44.0529C94.2656 44.8984 94.3943 45.9094 94.7527 46.4792C94.9825 46.8376 95.4512 47.3063 96.2048 47.3063C96.747 47.3063 97.1974 47.0949 97.5374 46.6262C97.8039 46.2494 97.9877 45.7072 98.0245 45.2385L99.9269 45.4682C99.8166 46.3138 99.4398 47.2512 98.7781 47.8577C98.2175 48.3632 97.3628 48.8135 96.1313 48.8135C94.7619 48.8135 93.8796 48.2713 93.365 47.7842C92.6665 47.1225 91.9956 45.9369 91.9956 44.0621C91.9956 42.3159 92.5838 41.2774 93.0525 40.7168C93.7142 39.9264 94.8538 39.2739 96.1772 39.2739C97.3076 39.2739 98.2451 39.6691 98.8332 40.2849C99.4306 40.8822 99.789 41.7737 99.9177 42.5825L98.0153 42.8214L98.0245 42.8306Z" fill="#1A1A1A"/>
<path d="M109.549 45.983C109.228 47.0583 108.575 47.6924 108.042 48.0692C107.325 48.5563 106.388 48.8228 105.395 48.8228C104.154 48.8228 102.895 48.299 102.142 47.527C101.443 46.8101 100.919 45.5694 100.919 44.0898C100.919 42.2149 101.691 40.9742 102.537 40.2758C103.024 39.8622 103.943 39.2832 105.322 39.2832C107.068 39.2832 108.18 40.092 108.768 40.9191C109.402 41.783 109.687 42.9869 109.687 44.0346V44.4482H103.18C103.18 44.5493 103.162 45.3856 103.484 46.0473C103.971 47.0583 104.853 47.3064 105.459 47.3064C105.947 47.3064 106.553 47.1685 107.059 46.6447C107.362 46.323 107.491 46.0197 107.546 45.7257L109.54 45.9738L109.549 45.983ZM107.426 43.088C107.426 42.5734 107.298 41.976 107.031 41.5808C106.691 41.0753 106.075 40.7353 105.414 40.7353C104.752 40.7353 104.136 41.0753 103.778 41.5073C103.493 41.8657 103.235 42.4263 103.235 43.088H107.426Z" fill="#1A1A1A"/>
<path d="M118.574 39.4761V48.6481H116.488V41.0292H114.117C114.062 42.2699 114.025 42.7754 113.988 43.6209C113.933 44.5767 113.859 46.5894 113.051 47.6831C112.6 48.2713 112.049 48.5102 111.644 48.6205C111.415 48.694 111.157 48.7308 110.909 48.7308C110.725 48.7308 110.551 48.7124 110.376 48.6573V47.0765H110.551C110.817 47.0581 111.185 46.9111 111.415 46.7365C112.132 46.1667 112.205 44.8708 112.279 43.8415C112.371 42.4905 112.389 41.6818 112.407 40.4594L112.426 39.4853H118.574V39.4761Z" fill="#1A1A1A"/>
<path d="M122.866 42.739H125.164C125.752 42.739 126.91 42.8125 127.663 43.5661C128.343 44.2278 128.417 45.1652 128.417 45.6707C128.417 46.9849 127.875 47.6466 127.461 47.9867C127.314 48.097 126.634 48.63 125.338 48.63H120.771V39.458H122.857V42.7298L122.866 42.739ZM122.866 47.1228H124.502C124.897 47.1228 125.329 47.1044 125.687 46.8011C125.899 46.5989 126.156 46.2589 126.156 45.6891C126.156 45.1836 126.009 44.7884 125.595 44.5219C125.237 44.2921 124.787 44.2554 124.502 44.2554H122.866V47.132V47.1228Z" fill="#1A1A1A"/>
<path d="M131.45 39.4761L133.141 42.3343L134.905 39.4761H136.808L134.133 43.6209L137.313 48.6389H134.869L132.782 45.1925L130.586 48.6389H128.684L131.808 43.8783L129.005 39.4761H131.45Z" fill="#1A1A1A"/>
<path d="M138.922 40.4045C139.547 39.8071 140.484 39.2925 141.89 39.2925C143.296 39.2925 144.224 39.8163 144.859 40.4045C145.796 41.2868 146.283 42.6562 146.283 44.0531C146.283 45.45 145.796 46.8194 144.859 47.7017C144.234 48.299 143.296 48.8137 141.89 48.8137C140.484 48.8137 139.556 48.2899 138.922 47.7017C137.984 46.8194 137.497 45.45 137.497 44.0531C137.497 42.6562 137.984 41.2868 138.922 40.4045ZM140.447 46.6448C140.64 46.8837 141.091 47.3065 141.881 47.3065C142.671 47.3065 143.122 46.8745 143.324 46.6448C143.462 46.4885 144.004 45.7625 144.004 44.0531C144.004 42.3437 143.462 41.6268 143.324 41.4706C143.122 41.2316 142.671 40.7997 141.881 40.7997C141.091 40.7997 140.64 41.2316 140.447 41.4706C140.3 41.636 139.758 42.3529 139.758 44.0531C139.758 45.7533 140.3 46.4794 140.447 46.6448Z" fill="#1A1A1A"/>
<path d="M147.386 41.9485C147.653 40.8365 148.36 40.2207 148.856 39.9174C149.16 39.7244 150.005 39.2925 151.448 39.2925C152.349 39.2925 153.268 39.4579 153.948 39.8347C154.95 40.3861 155.207 41.1949 155.207 41.7739C155.207 42.3988 154.904 43.6028 153.341 43.7866V43.8233C153.884 43.8969 154.472 44.1266 154.83 44.5034C155.152 44.8435 155.409 45.4225 155.409 46.029C155.409 46.9481 154.867 47.7568 154.187 48.2071C153.36 48.7494 152.22 48.8137 151.384 48.8137C150.547 48.8137 149.242 48.7218 148.342 48.005C147.845 47.6098 147.377 46.9205 147.23 46.0658L149.114 45.7441C149.187 46.029 149.353 46.461 149.564 46.7183C150.033 47.2605 150.768 47.3157 151.237 47.3157C151.705 47.3157 152.211 47.2605 152.606 46.994C152.965 46.7459 153.148 46.3966 153.148 45.9463C153.148 45.5695 153.075 45.2662 152.753 44.9905C152.34 44.6505 151.779 44.5953 151.264 44.5953H150.309V43.1892H151.264C151.623 43.1892 152.147 43.1157 152.431 42.9778C152.808 42.7848 153.02 42.454 153.02 41.9393C153.02 41.6544 152.909 41.3787 152.643 41.1673C152.229 40.8273 151.632 40.8089 151.329 40.8089C150.915 40.8089 150.309 40.864 149.803 41.296C149.592 41.4798 149.298 41.8198 149.206 42.3529L147.395 41.9577L147.386 41.9485Z" fill="#1A1A1A"/>
<path d="M166.079 38.4654H160.124V41.1949H162.77C163.717 41.1949 164.636 41.2685 165.574 41.9118C166.493 42.5459 167.062 43.4742 167.062 44.8251C167.062 46.0842 166.594 47.0216 166.005 47.6098C165.105 48.5105 164.085 48.6391 163 48.6391H157.247V36.3057H166.079V38.4654ZM160.124 46.4886H162.44C162.872 46.4886 163.267 46.4702 163.68 46.0566C164.076 45.6615 164.131 45.2111 164.131 44.8711C164.131 44.4759 164.02 44.0807 163.68 43.7407C163.267 43.3271 162.752 43.2903 162.366 43.2903H160.114V46.4886H160.124Z" fill="#1A1A1A"/>
<path d="M168.551 42.0219C168.836 40.7812 169.645 40.1471 170.132 39.8622C170.849 39.4486 171.805 39.2832 172.99 39.2832C174.497 39.2832 176.032 39.4854 176.712 40.9007C177.071 41.6359 177.034 42.4263 177.034 43.1156V46.6539C177.034 47.3891 177.144 48.0784 177.3 48.6298H174.7C174.626 48.2714 174.571 47.7843 174.553 47.1685C174.213 47.7751 173.385 48.8044 171.474 48.8044C170.628 48.8044 169.764 48.5839 169.176 48.106C168.597 47.6373 168.239 46.8836 168.239 46.0565C168.239 45.1375 168.634 44.0438 170.196 43.3913C171.207 42.9777 172.843 42.8307 173.578 42.8031L174.442 42.7664V42.5642C174.442 42.316 174.424 41.7738 174.176 41.4889C173.836 41.0937 173.146 41.0753 172.88 41.0753C172.503 41.0753 172.053 41.1121 171.676 41.3418C171.446 41.4797 171.134 41.7738 171.033 42.2793L168.551 42.0127V42.0219ZM173.643 44.3011C172.742 44.3747 171.841 44.4666 171.336 45.0915C171.189 45.2753 171.051 45.5418 171.051 45.9187C171.051 46.3138 171.253 46.5895 171.446 46.7274C171.704 46.9296 172.071 47.0123 172.439 47.0123C172.981 47.0123 173.606 46.7825 173.964 46.3506C174.02 46.2955 174.451 45.7532 174.451 44.7147V44.2276L173.643 44.3011Z" fill="#1A1A1A"/>
<path d="M181.804 39.4761V42.9041H184.689V39.4761H187.373V48.6389H184.689V44.7973H181.804V48.6389H179.12V39.4761H181.804Z" fill="#1A1A1A"/>
<path d="M192.134 39.4761V43.0052H192.851C193.623 43.0052 193.944 42.6284 194.146 42.2148C194.523 41.4061 194.505 40.7719 194.854 40.147C195.121 39.6415 195.479 39.5128 195.718 39.4853H197.933C197.648 39.7885 197.391 40.147 197.234 40.4778C196.949 41.0752 196.674 42.0402 196.518 42.4538C196.297 43.0236 195.939 43.6026 195.029 43.6761V43.7128C195.516 43.7864 196.021 44.0345 196.398 44.5951C196.628 44.9352 196.793 45.3855 197.041 46.084C197.29 46.8008 197.4 47.0581 197.63 47.6096C197.813 48.0231 197.914 48.2804 198.227 48.6573H195.709C195.314 48.5286 195.047 48.2621 194.725 47.3247C194.468 46.6078 194.431 46.3597 194.275 45.9553L194.146 45.6336C193.88 44.9535 193.521 44.8065 192.961 44.8065H192.152V48.6573H189.469V39.4853H192.152L192.134 39.4761Z" fill="#1A1A1A"/>
<path fill-rule="evenodd" clip-rule="evenodd" d="M33.0483 42.8121L37.1656 38.7592V36.0112L33.0483 40.0366V42.8121Z" fill="#1A1A1A"/>
<path fill-rule="evenodd" clip-rule="evenodd" d="M33.0483 32.5558L37.1656 28.5028V25.9111L33.0483 29.9457V32.5558Z" fill="#1A1A1A"/>
<path fill-rule="evenodd" clip-rule="evenodd" d="M33.0483 35.9469L37.1656 31.9031V29.3022L33.0483 33.3368V35.9469Z" fill="#1A1A1A"/>
<path fill-rule="evenodd" clip-rule="evenodd" d="M31.8721 25.9479L31.3207 25.4149V19H30.6958V24.8083L30.1535 24.2753V19H29.5378V23.6595L28.9864 23.1265V19H28.3706V25.1116L32.4879 29.1646V19H31.8721V25.9479Z" fill="#1A1A1A"/>
<path fill-rule="evenodd" clip-rule="evenodd" d="M33.0483 39.3381L37.1656 35.2943V32.7026L33.0483 36.728V39.3381Z" fill="#1A1A1A"/>
<path fill-rule="evenodd" clip-rule="evenodd" d="M28.3706 38.7592L32.4879 42.8121V40.0366L28.3706 36.0112V38.7592Z" fill="#1A1A1A"/>
<path fill-rule="evenodd" clip-rule="evenodd" d="M36.5499 23.1265L36.0076 23.6687V19H35.3827V24.2753L34.8313 24.8083V19H34.2155V25.4057L33.6641 25.9479V19H33.0483V29.1646L37.1656 25.1116V19H36.5499V23.1265Z" fill="#1A1A1A"/>
<path fill-rule="evenodd" clip-rule="evenodd" d="M28.3706 28.5028L32.4879 32.5558V29.9457L28.3706 25.9111V28.5028Z" fill="#1A1A1A"/>
<path fill-rule="evenodd" clip-rule="evenodd" d="M28.3706 31.9031L32.4879 35.9469V33.3368L28.3706 29.3022V31.9031Z" fill="#1A1A1A"/>
<path fill-rule="evenodd" clip-rule="evenodd" d="M28.3706 35.2943L32.4879 39.3381V36.728L28.3706 32.7026V35.2943Z" fill="#1A1A1A"/>
<path fill-rule="evenodd" clip-rule="evenodd" d="M52.918 37.4268H42.9005C43.1119 37.0959 43.2313 36.7099 43.2313 36.2872C43.2313 35.1016 42.2663 34.1274 41.0716 34.1274C39.8769 34.1274 38.9119 35.0924 38.9119 36.2872C38.9119 36.7559 39.0589 37.1878 39.3162 37.5371C39.1324 37.6657 39.0038 37.8771 39.0038 38.1161C39.0038 38.355 39.1324 38.5664 39.3162 38.6951C39.0681 39.0535 38.9119 39.4762 38.9119 39.9449C38.9119 41.1397 39.8769 42.1047 41.0716 42.1047C42.2663 42.1047 43.2313 41.1397 43.2313 39.9449C43.2313 39.5222 43.1119 39.1362 42.9005 38.8053H50.3539V39.2557H49.6186V39.8898H50.3539V40.5515H49.6186V41.7646H50.3539V41.2132H51.4475V41.7646H52.1828V40.5515H51.4475V39.8898H52.1828V39.2557H51.4475V38.8053H52.918C53.2029 38.8053 53.4327 38.5664 53.4327 38.2815V37.9598C53.4327 37.6657 53.2029 37.436 52.918 37.436M42.1836 39.9541C42.1836 40.5699 41.6874 41.0662 41.0716 41.0662C40.4558 41.0662 39.9596 40.5699 39.9596 39.9541C39.9596 39.7336 40.0239 39.5222 40.1434 39.3384L40.4558 38.8145C40.2628 38.6491 40.1434 38.401 40.1434 38.1253C40.1434 37.8495 40.2628 37.6014 40.4558 37.4268L40.1434 36.9029C40.0239 36.7283 39.9596 36.5169 39.9596 36.2872C39.9596 35.6714 40.4558 35.1751 41.0716 35.1751C41.6874 35.1751 42.1836 35.6714 42.1836 36.2872C42.1836 36.7375 41.6598 37.822 41.6598 37.822V38.4102C41.6598 38.4102 42.1836 39.4946 42.1836 39.9449" fill="#1A1A1A"/>
<path fill-rule="evenodd" clip-rule="evenodd" d="M24.6208 36.1123V38.8051C24.6208 41.3784 25.7421 43.0327 26.3854 43.676C26.7622 44.0436 30.5946 47.8208 30.6497 47.8668C31.8445 49.034 32.0467 49.42 32.3132 50.0817V47.104C32.3132 44.448 30.9622 43.4186 30.2729 42.7478C28.6554 41.1762 27.5801 40.1377 26.7071 39.2646C25.0528 37.6103 24.6208 36.1215 24.6208 36.1215" fill="#1A1A1A"/>
<path fill-rule="evenodd" clip-rule="evenodd" d="M30.2729 49.4017C28.6554 47.821 27.5801 46.7825 26.7071 45.9186C25.0528 44.2643 24.6208 43.1431 24.6208 43.1431V45.4682C24.6208 48.0415 25.788 49.6866 26.3854 50.3575C26.7622 50.7251 30.6038 54.484 30.6497 54.5299C31.8445 55.6971 32.0467 56.2485 32.3132 56.9102V53.7579C32.3132 51.1019 30.9714 50.0726 30.2729 49.4017Z" fill="#1A1A1A"/>
<path fill-rule="evenodd" clip-rule="evenodd" d="M38.7741 23.981C38.4708 23.981 38.1767 23.981 37.8918 23.9993V25.2584C38.1859 25.2492 38.48 25.24 38.7741 25.24C48.2953 25.24 56.0244 32.96 56.0244 42.4904C56.0244 52.0208 48.3045 59.7407 38.7741 59.7407C29.2436 59.7407 21.5237 52.0208 21.5237 42.4904C21.5237 37.2059 23.904 32.4729 27.6445 29.3114V27.7031C23.1596 31.0759 20.2646 36.4431 20.2646 42.4904C20.2646 52.7101 28.5544 60.9998 38.7741 60.9998C48.9938 60.9998 57.2835 52.7101 57.2835 42.4904C57.2835 32.2707 48.9938 23.981 38.7741 23.981Z" fill="#1A1A1A"/>
<path fill-rule="evenodd" clip-rule="evenodd" d="M51.8611 52.1496C52.146 51.7636 52.4217 51.3592 52.679 50.9365V48.4551H51.8611V52.1496Z" fill="#1A1A1A"/>
<path fill-rule="evenodd" clip-rule="evenodd" d="M54.2415 47.5547C54.361 47.1963 54.462 46.8378 54.554 46.4702H51.8704V47.1319H52.2747C52.9916 47.1135 53.7912 47.1044 54.2415 47.5547Z" fill="#1A1A1A"/>
<path d="M36.3569 46.3872H35.6309V53.7671H36.3569V46.3872Z" fill="#1A1A1A"/>
<path fill-rule="evenodd" clip-rule="evenodd" d="M33.9492 44.9629H36.3571C36.982 44.9629 37.414 45.0915 37.6621 45.3305C37.9194 45.5694 38.0297 46.0014 38.0297 46.6263V53.5283C38.0297 54.1532 37.9102 54.5852 37.6621 54.8241C37.2761 55.2009 36.5776 55.2009 35.9894 55.2009C35.8608 55.1917 35.7321 55.1917 35.6218 55.1917V58.4635C35.8608 58.5095 36.0997 58.5554 36.3479 58.5922V55.9086C37.4507 55.9086 38.1859 55.5318 38.526 54.769V58.7668C38.6087 58.7668 38.6822 58.7668 38.7649 58.7668C38.9212 58.7668 39.0682 58.7668 39.2245 58.7668V46.7642C39.2245 46.13 39.3531 45.6797 39.5921 45.4316C39.831 45.1742 40.263 45.0456 40.8787 45.0456C41.4945 45.0456 42.4135 44.9537 42.8914 45.4316C43.1304 45.6889 43.2498 46.13 43.2498 46.7642V50.3025H41.6048V46.5252H40.8879V58.6381C41.1269 58.6106 41.3658 58.5738 41.6048 58.5278V51.0101H43.2498V58.1418C43.5899 58.0499 43.9299 57.9397 44.2516 57.8202V51.2858C44.2516 50.5506 44.4262 49.99 45.1798 49.7327L44.3527 45.1926H46.0253L46.301 50.1554H46.5032L46.7789 45.1926H48.5343L47.5877 49.7327C48.3781 50.0084 48.5343 50.4955 48.5343 51.2858V55.5042C49.0214 55.1366 49.4901 54.7414 49.9312 54.3187V45.1467H54.8205C54.8573 44.9261 54.8849 44.7055 54.9124 44.485H43.4796L43.645 45.3029C43.2866 44.6412 42.5973 44.3012 41.5956 44.3012H40.8787C39.6656 44.3012 38.9304 44.7882 38.6547 45.744C38.3973 44.7331 37.6253 44.2368 36.3571 44.2368H33.2231V57.7834C33.4621 57.8661 33.701 57.9489 33.9492 58.0316V44.9537V44.9629ZM49.1225 50.1738L48.3321 49.4202L49.1225 45.3397V50.1646V50.1738Z" fill="#1A1A1A"/>
<path fill-rule="evenodd" clip-rule="evenodd" d="M46.0251 57.0571C46.2825 56.9285 46.5306 56.7998 46.7788 56.662V51.0742H46.0251V57.0571Z" fill="#1A1A1A"/>
</g>
<defs>
<clipPath id="clip0_1055_9859">
<rect width="178" height="42" fill="white" transform="translate(20.2646 19)"/>
</clipPath>
</defs>
</svg>
