<svg width="170" height="80" viewBox="0 0 170 80" fill="none" xmlns="http://www.w3.org/2000/svg">
<path d="M36.3657 59.2371H22.9383V53.4741H36.3361V59.2371H36.3657ZM39.0691 50.5776H20.2646V65H22.9383V62.1035H39.0097V50.5776H39.0691ZM22.9383 24.6595L28.3152 18.8965V39.0819H22.9383V24.6595ZM20.2646 41.9483H30.9591V16H26.9784L20.2646 23.2112V41.9483ZM36.3657 18.8965H41.7427V39.0819H36.3657V18.8965ZM33.6922 41.9483H44.3866V16H33.6922V41.9483ZM63.1317 41.9483H65.8052V16H61.7651V16.0302L57.725 20.3448V16H53.6849L47.0305 23.2112V41.9483H49.7041V24.6595L55.081 18.8965V41.9483H57.7547V24.6595L63.1317 18.8965V41.9483ZM20.2646 47.7112H65.8349V44.8147H20.2646V47.7112ZM55.1108 53.4741H63.1317V59.2371H55.1108V53.4741ZM52.4371 59.2371H44.3866V53.4741H52.4371V59.2371ZM55.1108 62.1035H65.8349V50.5776H41.7427V62.1035H52.4371V65H55.1108V62.1035ZM105.701 41.4655H108.049C109.088 41.4655 109.712 42.2198 109.712 43.2457C109.712 44.3319 109.088 45.0259 108.049 45.0259H105.701V41.4655ZM105.701 39.2026V36.6078H111.286V34.3449H103.296V47.319H108.138C110.544 47.319 112.059 45.6293 112.059 43.2759C112.059 40.9225 110.573 39.2327 108.138 39.2327C108.167 39.2026 105.701 39.2026 105.701 39.2026ZM120.763 42.8836H117.762L119.307 38.1768L120.763 42.8836ZM122.13 47.319H124.595L120.228 34.3449H118.386L114.019 47.319H116.485L117.228 45.0259H121.476L122.13 47.319ZM133.477 47.319H135.825V34.3449H133.477V39.6552H129.407V34.3449H127.061V47.319H129.407V41.888H133.477V47.319ZM144.469 40.4095L148.51 34.3449H145.717L141.855 40.5V34.3449H139.508V47.319H141.855V40.5301L146.073 47.319H148.954L144.469 40.4095Z" fill="#1A1A1A"/>
<path d="M86.6598 21.5215H84.5801V59.4784H86.6598V21.5215Z" fill="#1A1A1A"/>
</svg>
