<svg width="124" height="25" viewBox="0 0 124 25" fill="none" xmlns="http://www.w3.org/2000/svg">
<g clip-path="url(#clip0_2_947)">
<path d="M13.1826 19.2879L22.0995 0.5H23.9823L12.604 24.5H11.8834L0.5 0.5H4.27078L13.1826 19.2879Z" fill="black"/>
<path d="M31.8692 0.5H28.4385V24.5H31.8692V0.5Z" fill="black"/>
<path d="M39.7506 22.7846H52.6717V24.5H36.3198V0.5H39.7506V22.7846Z" fill="black"/>
<path d="M60.5582 22.7846H73.4793V24.5H57.1274V0.5H60.5582V22.7846Z" fill="black"/>
<path d="M101.418 24.5H97.6468L93.805 16.4103H83.6599L79.8181 24.5H77.9302L89.3186 0.5H90.0393L101.423 24.4949L101.418 24.5ZM84.4821 14.695H92.9828L88.7299 5.7121L84.477 14.695H84.4821Z" fill="black"/>
<path d="M105.94 21.8256L107.137 20.5568C109.33 22.6122 111.664 22.8203 113.649 22.8203C116.942 22.8203 119.546 21.587 119.546 18.3288C119.546 15.6543 117.115 14.7661 113.923 13.2538C110.39 11.5739 106.447 10.0311 106.447 6.63588C106.447 2.93108 110.116 0.535645 115.257 0.535645C117.348 0.535645 119.678 1.11928 121.495 2.11399L120.399 3.51978C118.922 2.73315 117.485 2.25102 115.222 2.25102C112.684 2.25102 109.634 2.83465 109.634 5.50921C109.634 7.83867 114.126 9.55404 115.978 10.3102C119.647 11.8175 123.418 13.1573 123.418 18.0243C123.418 21.9321 118.79 24.5052 113.684 24.5052C111.456 24.5052 108.716 24.3682 105.935 21.8306" fill="black"/>
</g>
<defs>
<clipPath id="clip0_2_947">
<rect width="122.928" height="24" fill="white" transform="translate(0.5 0.5)"/>
</clipPath>
</defs>
</svg>
