<svg width="60" height="40" viewBox="0 0 196 40" fill="none" xmlns="http://www.w3.org/2000/svg">
<path d="M0.600098 33.6941H26.2354V39.0118H0.600098V33.6941ZM185.988 16.6235L194.071 7.70588H188.047L181.424 15.1176V7.70588H176.624V26.4471H181.447V18.5529L188.53 26.4471H194.718L185.988 16.6235ZM29.0589 17.8588C28.9295 21.3882 28.4825 22.0588 26.5295 22.0588V26.4588H27.2589C32.1648 26.4588 33.3295 23.9294 33.506 18.2941L33.7177 12.0588H38.2472V26.4471H43.0472V7.70588H29.3883L29.0589 17.8588ZM8.22363 21.0824H18.3413L20.0236 26.4471H25.6354L18.0707 3.90588C17.3413 1.72941 16.4942 0 13.6001 0C10.706 0 9.82363 1.72941 9.04716 3.90588L1.11775 26.4471H6.38833L8.22363 21.0824ZM13.353 5.88235H13.4825L16.8707 16.5647H9.74127L13.353 5.88235ZM125.482 10.3647H120.13V5.07059H132.553V0.364706H115.094V26.4471H125.482C131.235 26.4471 134.541 23.5765 134.541 18.3294C134.541 13.3529 131.188 10.3647 125.482 10.3647ZM125.235 21.7294H120.13V14.9529H125.235C127.894 14.9529 129.388 16.1294 129.388 18.3412C129.388 20.5529 127.894 21.7294 125.235 21.7294ZM77.7648 7.27059V0.329411H72.9766V7.27059C70.4623 7.35353 68.0837 8.43094 66.3632 10.2661C64.6427 12.1014 63.7208 14.5445 63.8001 17.0588C63.7144 19.5784 64.633 22.0287 66.354 23.8709C68.0748 25.7133 70.457 26.7965 72.9766 26.8824V33.9412H77.7766V26.8824C79.0246 26.8413 80.2523 26.5546 81.3893 26.0384C82.5263 25.5222 83.5503 24.7868 84.4028 23.8744C85.2551 22.9618 85.9192 21.8901 86.3568 20.7206C86.7944 19.5511 86.997 18.3067 86.953 17.0588C87.0034 15.8101 86.8045 14.5639 86.3681 13.3929C85.9316 12.2219 85.2663 11.1495 84.411 10.2384C83.5557 9.3273 82.5275 8.59553 81.3865 8.086C80.2453 7.57647 79.0142 7.29929 77.7648 7.27059ZM72.9883 22.3529C71.718 22.2134 70.5534 21.5801 69.7457 20.5898C68.938 19.5994 68.5519 18.3313 68.6707 17.0588C68.5672 15.7895 68.9588 14.5294 69.7637 13.5426C70.5686 12.5556 71.7242 11.9186 72.9883 11.7647V22.3529ZM77.7883 22.3529V11.7647C79.0524 11.9186 80.2081 12.5556 81.0129 13.5426C81.8179 14.5294 82.2095 15.7895 82.106 17.0588C82.2186 18.33 81.8302 19.5948 81.0236 20.5839C80.2172 21.5728 79.0562 22.2076 77.7883 22.3529ZM104.941 20.6941V14.3765C104.941 9.76471 102.012 6.88235 97.0942 6.88235C92.1766 6.88235 89.306 9.94118 89.0707 13.1294H93.9295C94.0942 12.4471 94.8236 11.2353 97.0825 11.2353C97.5048 11.1809 97.933 11.2254 98.3342 11.3654C98.7366 11.5054 99.1001 11.7368 99.3966 12.0416C99.693 12.3464 99.9154 12.716 100.045 13.1212C100.174 13.5265 100.207 13.9562 100.141 14.3765H95.4354C91.1766 14.3765 88.6471 16.6235 88.6471 20.3412C88.614 21.2284 88.7674 22.1126 89.0975 22.9367C89.4277 23.7608 89.9273 24.5064 90.5639 25.1252C91.2003 25.744 91.9597 26.2222 92.7929 26.5291C93.626 26.8358 94.5142 26.9641 95.4001 26.9059C96.4002 26.9585 97.3977 26.7638 98.3048 26.3391C99.2119 25.9142 100 25.2726 100.6 24.4706C100.991 25.1312 101.56 25.6674 102.244 26.0172C102.926 26.3671 103.694 26.5161 104.459 26.4471H106.118V22.1176C105.306 22.1176 104.941 21.7294 104.941 20.6941ZM100.141 19.5176C100.161 19.9811 100.082 20.4434 99.9095 20.8741C99.7377 21.3048 99.4766 21.6942 99.1436 22.0166C98.8095 22.3389 98.4118 22.5869 97.9754 22.7444C97.5389 22.9016 97.0742 22.9647 96.6119 22.9294C94.8824 22.9294 93.5177 22.3059 93.5177 20.4353C93.5177 18.5647 95.0354 18.2941 96.3177 18.2941H100.141V19.5176ZM55.0001 13.4H51.553V7.70588H46.753V26.4471H55.0824C60.2942 26.4471 62.1413 23.0588 62.1413 19.8588C62.1648 15.7294 59.5766 13.4 55.0001 13.4ZM54.6472 22.3529H51.553V17.6471H54.6472C56.306 17.6471 57.306 18.4 57.306 20C57.306 21.6 56.353 22.3529 54.6472 22.3529ZM152.859 20.6941V14.3765C152.859 9.76471 149.93 6.88235 145.012 6.88235C140.094 6.88235 137.224 9.94118 136.988 13.1294H141.847C142.012 12.4471 142.741 11.2353 145 11.2353C145.422 11.1809 145.851 11.2254 146.252 11.3654C146.654 11.5054 147.018 11.7368 147.314 12.0416C147.611 12.3464 147.833 12.716 147.962 13.1212C148.092 13.5265 148.125 13.9562 148.059 14.3765H143.353C139.094 14.3765 136.565 16.6235 136.565 20.3412C136.532 21.2284 136.685 22.1126 137.015 22.9367C137.345 23.7608 137.845 24.5064 138.481 25.1252C139.118 25.744 139.878 26.2222 140.711 26.5291C141.544 26.8358 142.432 26.9641 143.318 26.9059C144.327 26.9684 145.337 26.7785 146.255 26.3534C147.173 25.9282 147.971 25.2812 148.577 24.4706C148.961 25.1196 149.52 25.6485 150.189 25.9976C150.859 26.3468 151.612 26.5025 152.365 26.4471H154.024V22.1176C153.188 22.1176 152.859 21.7294 152.859 20.6941ZM148.082 19.5176C148.1 19.9806 148.02 20.442 147.847 20.8719C147.674 21.3018 147.413 21.6904 147.08 22.0124C146.747 22.3342 146.35 22.5824 145.914 22.7405C145.479 22.8985 145.015 22.9628 144.553 22.9294C142.824 22.9294 141.459 22.3059 141.459 20.4353C141.459 18.5647 142.977 18.2941 144.259 18.2941H148.082V19.5176ZM168.188 14.6824H161.565V7.70588H156.765V26.4588H161.565V19.0706H168.188V26.4471H172.988V7.70588H168.188V14.6824Z" fill="#1A1A1A"/>
</svg>
