<svg width="22" height="19" viewBox="0 0 22 19" fill="none" xmlns="http://www.w3.org/2000/svg">
<path fill-rule="evenodd" clip-rule="evenodd" d="M11.7353 0.363702C12.0867 0.0122297 12.6566 0.0122297 13.0081 0.363702L21.2065 8.56214C21.3753 8.73097 21.4701 8.95997 21.4701 9.19873C21.47 9.43749 21.3751 9.66645 21.2062 9.83521L13.0502 17.9841C12.6986 18.3354 12.1287 18.3352 11.7774 17.9836C11.4261 17.632 11.4264 17.0621 11.778 16.7108L18.396 10.0985H1.0001C0.503041 10.0985 0.100098 9.69559 0.100098 9.19853C0.100098 8.70148 0.503041 8.29854 1.0001 8.29854H18.3973L11.7353 1.63649C11.3838 1.28502 11.3838 0.715173 11.7353 0.363702Z" fill="white"/>
</svg>
