<svg width="20" height="21" viewBox="0 0 20 21" fill="none" xmlns="http://www.w3.org/2000/svg">
<rect x="0.833496" y="8.41675" width="18.3333" height="6.11111" rx="3" stroke="#6B6B6B" stroke-width="1.4"/>
<path d="M3.825 14.5278V13.8278H2.425V14.5278H3.825ZM2.425 16.8195C2.425 17.2061 2.7384 17.5195 3.125 17.5195C3.5116 17.5195 3.825 17.2061 3.825 16.8195H2.425ZM2.425 14.5278V16.8195H3.825V14.5278H2.425Z" fill="#6B6B6B"/>
<path d="M17.575 14.528V13.828H16.175V14.528H17.575ZM16.175 16.8196C16.175 17.2062 16.4884 17.5196 16.875 17.5196C17.2616 17.5196 17.575 17.2062 17.575 16.8196H16.175ZM16.175 14.528V16.8196H17.575V14.528H16.175Z" fill="#6B6B6B"/>
<path d="M16.1114 8.41671V8.41671C16.1114 6.9406 16.1114 6.20254 15.8573 5.62513C15.5551 4.9383 15.0065 4.38966 14.3196 4.08744C13.7422 3.83337 13.0042 3.83337 11.5281 3.83337H8.47249C6.99638 3.83337 6.25833 3.83337 5.68092 4.08744C4.99408 4.38966 4.44544 4.9383 4.14323 5.62513C3.88916 6.20254 3.88916 6.9406 3.88916 8.41671V8.41671" stroke="#6B6B6B" stroke-width="1.4"/>
<path d="M10 3.83337V5.36115" stroke="#6B6B6B" stroke-width="1.4" stroke-linecap="round"/>
</svg>
