<svg width="38" height="38" viewBox="0 0 38 38" fill="none" xmlns="http://www.w3.org/2000/svg">
<path d="M25.8412 18.4445L20.3412 12.9445C20.0344 12.6376 19.5369 12.6376 19.23 12.9445C18.9468 13.2277 18.925 13.6734 19.1647 13.9816L19.23 14.0557L23.3889 18.2144H12.7142C12.3112 18.2144 11.9791 18.5177 11.9338 18.9084L11.9285 19.0001C11.9285 19.403 12.2318 19.7351 12.6226 19.7805L12.7142 19.7858H23.3889L19.23 23.9445C18.9468 24.2277 18.925 24.6734 19.1647 24.9816L19.23 25.0557C19.5133 25.3389 19.9589 25.3607 20.2672 25.121L20.3412 25.0557L25.8412 19.5557L25.9171 19.4678L25.9734 19.3804L26.0154 19.2918L26.0432 19.2091L26.0627 19.1167L26.0682 19.0702L26.0712 18.985L26.0682 18.9299L26.0554 18.8424L26.0322 18.7548L25.9977 18.6675L25.9566 18.5909L25.9041 18.5155C25.8846 18.4906 25.8636 18.4669 25.8412 18.4445L20.3412 12.9445L25.8412 18.4445Z" fill="#CAC8C8"/>
<rect x="0.5" y="0.5" width="37" height="37" rx="18.5" stroke="#CAC8C8"/>
</svg>
