<svg width="84" height="84" viewBox="0 0 84 84" fill="none" xmlns="http://www.w3.org/2000/svg">
<path d="M57.7445 43.2871C59.1047 44.8488 58.9413 47.2176 57.3796 48.5778L44.4629 59.8278C43.0512 61.0574 40.9488 61.0574 39.5371 59.8278L26.6204 48.5778C25.0586 47.2176 24.8953 44.8488 26.2555 43.2871C27.6158 41.7253 29.9845 41.562 31.5463 42.9222L38.25 48.7583L38.25 27C38.25 24.8604 39.9703 23.3761 42 23.25C44.0711 23.25 45.75 24.9289 45.75 27L45.75 48.7583L52.4537 42.9222C54.0732 41.5117 56.3096 41.8473 57.7445 43.2871Z" fill="#1A1A1A"/>
<path fill-rule="evenodd" clip-rule="evenodd" d="M71.1682 12.8318C78.6288 20.2925 83.25 30.6102 83.25 42C83.25 53.3898 78.6288 63.7075 71.1682 71.1682C63.7075 78.6288 53.3898 83.25 42 83.25C30.6102 83.25 20.2925 78.6288 12.8318 71.1682C5.37117 63.7075 0.749995 53.3898 0.749995 42C0.749996 30.6102 5.37117 20.2925 12.8318 12.8318C20.2925 5.37117 30.6102 0.749998 42 0.749998C53.3898 0.749999 63.7075 5.37117 71.1682 12.8318ZM75.75 42C75.75 32.6792 71.9765 24.2468 65.8649 18.1351C59.7532 12.0235 51.3208 8.25 42 8.25C32.6792 8.25 24.2468 12.0235 18.1351 18.1351C12.0235 24.2468 8.24999 32.6792 8.24999 42C8.24999 51.3208 12.0235 59.7532 18.1351 65.8648C24.2468 71.9765 32.6792 75.75 42 75.75C51.3208 75.75 59.7532 71.9765 65.8649 65.8649C71.9765 59.7532 75.75 51.3208 75.75 42Z" fill="#1A1A1A"/>
</svg>
