<svg width="39" height="37" viewBox="0 0 39 37" fill="none" xmlns="http://www.w3.org/2000/svg">
<path d="M30.8333 16.3333C30.8333 15.4128 31.5794 14.6667 32.4999 14.6667V14.6667C33.4204 14.6667 34.1666 15.4128 34.1666 16.3333V16.3333C34.1666 17.2538 33.4204 18 32.4999 18V18C31.5794 18 30.8333 17.2538 30.8333 16.3333V16.3333Z" fill="#587B6B"/>
<path fill-rule="evenodd" clip-rule="evenodd" d="M7 3.83333C7 1.71624 8.71624 0 10.8333 0H28.3333C30.4504 0 32.1667 1.71624 32.1667 3.83333V12.1667H29.5V3.83333C29.5 3.189 28.9777 2.66667 28.3333 2.66667H10.8333C10.189 2.66667 9.66667 3.189 9.66667 3.83333V12.1667H7V3.83333Z" fill="#587B6B"/>
<path fill-rule="evenodd" clip-rule="evenodd" d="M34.9999 10C37.117 10 38.8333 11.7162 38.8333 13.8333L38.8333 22.1667C38.8333 24.2838 37.117 26 34.9999 26L31.6666 26L31.6666 23.3333L34.9999 23.3333C35.6443 23.3333 36.1666 22.811 36.1666 22.1667L36.1666 13.8333C36.1666 13.189 35.6443 12.6667 34.9999 12.6667L4.16658 12.6667C3.52225 12.6667 2.99992 13.189 2.99992 13.8333L2.99992 22.1667C2.99992 22.811 3.52225 23.3333 4.16658 23.3333L7.49992 23.3333L7.49992 26L4.16658 26C2.04949 26 0.333252 24.2838 0.333252 22.1667L0.333252 13.8333C0.333253 11.7162 2.04949 10 4.16658 10L34.9999 10Z" fill="#587B6B"/>
<path fill-rule="evenodd" clip-rule="evenodd" d="M10.8333 20.3333H28.3333C30.2662 20.3333 31.8333 21.9003 31.8333 23.8333V32.1667C31.8333 34.5599 29.8932 36.5 27.4999 36.5H11.6666C9.27335 36.5 7.33325 34.5599 7.33325 32.1667V23.8333C7.33325 21.9003 8.90026 20.3333 10.8333 20.3333ZM10.8333 23C10.373 23 9.99992 23.3731 9.99992 23.8333V32.1667C9.99992 33.0872 10.7461 33.8333 11.6666 33.8333H27.4999C28.4204 33.8333 29.1666 33.0872 29.1666 32.1667V23.8333C29.1666 23.3731 28.7935 23 28.3333 23H10.8333Z" fill="#587B6B"/>
</svg>
