<svg width="39" height="34" viewBox="0 0 39 34" fill="none" xmlns="http://www.w3.org/2000/svg">
<path fill-rule="evenodd" clip-rule="evenodd" d="M39 23V13C39 11.3431 37.6569 10 36 10H3C1.34315 10 0 11.3431 0 13V23C0 24.6569 1.34315 26 3 26H6.34883H7.33398V23.8333C7.33398 21.9003 8.90099 20.3333 10.834 20.3333H28.334C30.267 20.3333 31.834 21.9003 31.834 23.8333V26L32.6512 26H36C37.6569 26 39 24.6569 39 23ZM29.1673 26V23.8333C29.1673 23.3731 28.7942 23 28.334 23H10.834C10.3737 23 10.0007 23.3731 10.0007 23.8333V26H29.1673ZM30.834 16.3333C30.834 15.4129 31.5802 14.6667 32.5006 14.6667C33.4211 14.6667 34.1673 15.4129 34.1673 16.3333C34.1673 17.2538 33.4211 18 32.5006 18C31.5802 18 30.834 17.2538 30.834 16.3333Z" fill="#587B6B"/>
<path d="M10 24C10 23.4477 10.4477 23 11 23H28.1596C28.7119 23 29.1596 23.4477 29.1596 24V28.5L29.0563 32.058C29.025 33.1395 28.1392 34 27.0572 34H12C10.8954 34 10 33.1046 10 32V24Z" fill="#587B6B"/>
<path fill-rule="evenodd" clip-rule="evenodd" d="M10.8333 0C8.71624 0 7 1.71624 7 3.83333V12.1667H9.66667V10.9383C9.87239 11 10.1514 11 10.62 11H19.5H28.38C28.9589 11 29.2484 11 29.4679 10.8838C29.4787 10.878 29.4894 10.8721 29.5 10.866V12.1667H32.1667V3.83333C32.1667 1.71624 30.4504 0 28.3333 0H10.8333Z" fill="#587B6B"/>
</svg>
