<svg width="200" height="80" viewBox="0 0 200 80" fill="none" xmlns="http://www.w3.org/2000/svg">
<path d="M16.422 17.1358C18.5899 14.9679 21.5302 13.75 24.5961 13.75H60.7761V49.93C60.7761 52.9959 59.5582 55.9362 57.3903 58.1042C55.2224 60.2721 52.282 61.49 49.2161 61.49H24.5961C21.5302 61.49 18.5899 60.2721 16.422 58.1042C14.2541 55.9362 13.0361 52.9959 13.0361 49.93V25.31C13.0361 22.2441 14.2541 19.3038 16.422 17.1358Z" stroke="#19191E" stroke-width="1.5"/>
<path d="M52.9766 31.46H47.0666L41.4366 37.62V25.31H36.8766V28.31C36.7299 28.1166 36.5699 27.9266 36.3966 27.74C35.4635 26.8233 34.3488 26.1122 33.1242 25.6523C31.8997 25.1925 30.5924 24.9941 29.2866 25.07C28.033 25.0123 26.7832 25.2469 25.636 25.7555C24.4888 26.264 23.4756 27.0324 22.6766 28C22.0299 28.7915 21.5613 29.7129 21.3024 30.7016C21.0436 31.6903 21.0007 32.7232 21.1766 33.73C22.2366 38.47 26.6366 39.23 29.8666 39.65C32.4166 39.98 34.8666 40.45 34.7966 42.72C34.7266 44.99 32.0666 45.64 30.2866 45.64C25.7366 45.64 25.5866 42.28 25.5866 42.28H20.7266C20.8106 44.1244 21.5153 45.8864 22.7266 47.28C24.4266 49.19 26.9766 50.15 30.3066 50.15C32.7015 50.2042 35.034 49.3828 36.8666 47.84V49.84H41.4266V44.09L43.0466 42.33L47.6566 49.9H52.9666L46.2866 38.81L52.9766 31.46ZM25.7466 32.66C25.3466 30.9 27.0966 29.34 29.3766 29.34C31.3766 29.34 33.4666 29.8 34.2466 32.66H36.8766V37C33.6066 34.32 26.5066 36 25.7466 32.66Z" fill="#19191E"/>
<path d="M82.1059 36.33C81.9594 36.0885 81.7956 35.8579 81.6159 35.64C81.3993 35.4083 81.15 35.2095 80.8759 35.05C80.5631 34.8628 80.2268 34.7182 79.8759 34.62C79.4086 34.5027 78.9276 34.4489 78.4459 34.46C78.1742 34.4651 77.9033 34.4919 77.6359 34.54C77.2933 34.6197 76.9586 34.7301 76.6359 34.87C76.2785 35.063 75.9432 35.2944 75.6359 35.56C75.2893 35.8784 75.0045 36.2581 74.7959 36.68C74.497 37.2178 74.2813 37.7977 74.1559 38.4C73.9921 39.1791 73.915 39.9739 73.9259 40.77C73.9134 41.6663 74.0176 42.5605 74.2359 43.43C74.4074 44.1456 74.7091 44.8235 75.1259 45.43C75.4929 45.95 75.9846 46.3695 76.5559 46.65C77.1298 46.9487 77.769 47.0999 78.4159 47.09C79.1007 47.1157 79.783 46.9928 80.4159 46.73C80.8841 46.51 81.3026 46.197 81.6459 45.81C81.9256 45.475 82.1424 45.0921 82.2859 44.68C82.4359 44.3 82.5659 43.94 82.6459 43.68H86.4459C86.2949 44.7318 85.9562 45.748 85.4459 46.68C84.9976 47.4852 84.4004 48.1979 83.6859 48.78C82.9705 49.3352 82.156 49.7492 81.2859 50C79.1853 50.6302 76.9333 50.5315 74.8959 49.72C73.8892 49.2856 72.9962 48.6252 72.2859 47.79C71.5446 46.8885 70.9904 45.8482 70.6559 44.73C70.2602 43.4344 70.0712 42.0845 70.0959 40.73C70.0809 39.7003 70.1918 38.6727 70.4259 37.67C70.6035 36.8286 70.8927 36.0147 71.2859 35.25C71.658 34.5754 72.1225 33.9561 72.6659 33.41C73.1678 32.9019 73.7444 32.4736 74.3759 32.14C74.9933 31.8074 75.6478 31.5489 76.3259 31.37C77.0023 31.2194 77.6929 31.1423 78.3859 31.14C79.2823 31.1256 80.1768 31.2298 81.0459 31.45C81.7459 31.6429 82.4181 31.9252 83.0459 32.29C83.5997 32.6133 84.1019 33.0178 84.5359 33.49C84.9134 33.9163 85.2484 34.3785 85.5359 34.87C85.7667 35.3306 85.9606 35.8088 86.1159 36.3C86.2391 36.734 86.3162 37.1798 86.3459 37.63H82.5859L82.4059 37C82.3266 36.7679 82.2262 36.5436 82.1059 36.33Z" fill="#19191E"/>
<path d="M96.6266 36.3501H101.287L95.7066 42.0001L101.547 49.9401H96.9566L92.9566 44.1901L91.5266 45.6501V49.9401H88.0166V36.3501H91.5366V41.5101L96.6266 36.3501Z" fill="#19191E"/>
<path d="M101.386 40.26C101.672 39.4133 102.144 38.6412 102.766 38C103.382 37.356 104.129 36.8513 104.956 36.52C105.874 36.1496 106.856 35.966 107.846 35.98C108.852 35.9634 109.852 36.1469 110.786 36.52C111.609 36.8491 112.349 37.3542 112.956 38C113.556 38.6739 114.024 39.454 114.336 40.3C114.949 42.1745 114.949 44.1956 114.336 46.07C114.026 46.9172 113.558 47.6977 112.956 48.37C112.341 49.0063 111.603 49.51 110.786 49.85C109.852 50.2232 108.852 50.4067 107.846 50.39C106.856 50.4041 105.874 50.2205 104.956 49.85C104.135 49.5077 103.39 49.0045 102.766 48.37C102.129 47.6972 101.657 46.886 101.386 46C100.733 44.1322 100.733 42.0979 101.386 40.23V40.26ZM104.756 44.65C104.835 45.1326 105.016 45.5928 105.286 46C105.532 46.4108 105.875 46.7543 106.286 47C106.757 47.2477 107.284 47.3684 107.816 47.35C108.374 47.3754 108.929 47.2548 109.426 47C109.829 46.7653 110.171 46.4401 110.426 46.05C110.688 45.6457 110.868 45.1938 110.956 44.72C111.169 43.6943 111.169 42.6357 110.956 41.61C110.867 41.1274 110.687 40.666 110.426 40.25C110.152 39.8254 109.766 39.4842 109.311 39.2638C108.856 39.0434 108.349 38.9521 107.846 39C107.314 38.9817 106.787 39.1023 106.316 39.35C105.908 39.5989 105.565 39.9418 105.316 40.35C105.037 40.7559 104.846 41.2158 104.756 41.7C104.646 42.2063 104.586 42.7221 104.576 43.24C104.591 43.7147 104.651 44.1869 104.756 44.65Z" fill="#19191E"/>
<path d="M121.436 39.2098L121.386 41.7398C121.326 43.1698 121.226 44.4198 121.096 45.4998C120.985 46.4196 120.753 47.3207 120.406 48.1798C120.125 48.8285 119.676 49.3909 119.106 49.8098C118.478 50.1929 117.751 50.3809 117.016 50.3498C116.606 50.3498 116.276 50.3498 116.016 50.2998C115.762 50.2586 115.514 50.1881 115.276 50.0898V47.0898L115.736 47.2398C115.949 47.2579 116.163 47.2579 116.376 47.2398C116.636 47.2521 116.891 47.1624 117.086 46.9898C117.348 46.7597 117.536 46.4569 117.626 46.1198C117.804 45.5361 117.924 44.9367 117.986 44.3298C118.056 43.5698 118.106 42.5998 118.136 41.3998L118.236 36.2598H129.166V49.9398H125.676V39.2098H121.436Z" fill="#19191E"/>
<path d="M140.287 36.3501H144.987L139.377 42.0001L145.227 49.9401H140.637L136.637 44.1901L135.207 45.6501V49.9401H131.687V36.3501H135.207V41.5101L140.287 36.3501Z" fill="#19191E"/>
<path d="M145.056 40.26C145.345 39.403 145.816 38.6185 146.436 37.96C147.058 37.3178 147.807 36.8136 148.636 36.48C149.554 36.1088 150.536 35.9252 151.526 35.94C152.529 35.9233 153.525 36.1069 154.456 36.48C155.285 36.8156 156.027 37.3354 156.626 38C157.233 38.6687 157.702 39.4502 158.006 40.3C158.619 42.1745 158.619 44.1955 158.006 46.07C157.704 46.9208 157.235 47.7027 156.626 48.37C156.015 49.0108 155.276 49.5151 154.456 49.85C153.525 50.2231 152.529 50.4067 151.526 50.39C150.536 50.4048 149.554 50.2212 148.636 49.85C147.813 49.5053 147.066 49.0025 146.436 48.37C145.814 47.7132 145.343 46.9282 145.056 46.07C144.416 44.1999 144.416 42.1701 145.056 40.3V40.26ZM148.436 44.65C148.523 45.1384 148.714 45.6023 148.996 46.01C149.241 46.4215 149.585 46.7653 149.996 47.01C150.471 47.2577 151.001 47.3782 151.536 47.36C152.084 47.3802 152.628 47.2597 153.116 47.01C153.519 46.7753 153.861 46.45 154.116 46.06C154.378 45.6556 154.558 45.2038 154.646 44.73C154.859 43.7043 154.859 42.6457 154.646 41.62C154.557 41.1374 154.377 40.6759 154.116 40.26C153.842 39.8319 153.456 39.4877 152.999 39.2654C152.542 39.043 152.032 38.9512 151.526 39C150.991 38.9818 150.461 39.1023 149.986 39.35C149.578 39.5989 149.235 39.9417 148.986 40.35C148.707 40.7559 148.516 41.2158 148.426 41.7C148.312 42.2055 148.251 42.7217 148.246 43.24C148.26 43.7154 148.323 44.188 148.436 44.65Z" fill="#19191E"/>
<path d="M168.956 36.51C169.492 36.6176 170.008 36.8065 170.486 37.07C170.925 37.3404 171.286 37.7192 171.536 38.17C171.813 38.7139 171.944 39.3203 171.916 39.93C171.929 40.2676 171.889 40.6051 171.796 40.93C171.727 41.2076 171.605 41.4692 171.436 41.7C171.301 41.9103 171.128 42.0934 170.926 42.24C170.734 42.3889 170.526 42.5163 170.306 42.62C170.944 42.8101 171.496 43.2168 171.866 43.77C172.235 44.33 172.424 44.9896 172.406 45.66C172.417 46.2546 172.312 46.8457 172.096 47.4C171.884 47.904 171.563 48.3549 171.156 48.72C170.732 49.1137 170.227 49.4105 169.676 49.59C169.052 49.8044 168.396 49.9093 167.736 49.9H160.116V36.35H167.116C167.733 36.3445 168.349 36.3981 168.956 36.51ZM167.376 41.59C167.594 41.533 167.801 41.4382 167.986 41.31C168.142 41.2039 168.258 41.0492 168.316 40.87C168.392 40.6655 168.426 40.4479 168.416 40.23C168.424 40.0383 168.39 39.8473 168.316 39.67C168.245 39.5009 168.131 39.3529 167.986 39.24C167.809 39.1096 167.609 39.0146 167.396 38.96C167.09 38.8762 166.773 38.8391 166.456 38.85H163.646V41.69H166.356C166.699 41.6875 167.04 41.654 167.376 41.59ZM167.606 47.28C167.87 47.1879 168.112 47.0414 168.316 46.85C168.477 46.7066 168.592 46.5187 168.646 46.31C168.701 46.1284 168.728 45.9396 168.726 45.75C168.744 45.4639 168.699 45.1774 168.596 44.91C168.526 44.6959 168.38 44.5147 168.186 44.4C167.972 44.2369 167.715 44.1397 167.446 44.12C167.086 44.0636 166.721 44.0368 166.356 44.04H163.646V47.44H166.356C166.779 47.4546 167.201 47.4006 167.606 47.28Z" fill="#19191E"/>
<path d="M173.836 40.26C174.119 39.4061 174.587 38.625 175.206 37.9718C175.824 37.3186 176.579 36.8093 177.416 36.48C178.33 36.1088 179.31 35.9252 180.296 35.94C181.302 35.9233 182.302 36.1069 183.236 36.48C184.064 36.8186 184.805 37.338 185.406 38C186.013 38.6687 186.481 39.4502 186.786 40.3C187.399 42.1745 187.399 44.1955 186.786 46.07C186.484 46.9208 186.014 47.7027 185.406 48.37C184.804 48.9885 184.083 49.4783 183.286 49.81C182.352 50.1831 181.352 50.3667 180.346 50.35C179.36 50.3649 178.38 50.1812 177.466 49.81C176.642 49.4679 175.894 48.9648 175.266 48.33C174.644 47.6732 174.173 46.8882 173.886 46.03C173.233 44.1621 173.233 42.1279 173.886 40.26H173.836ZM177.206 44.65C177.293 45.1384 177.484 45.6023 177.766 46.01C178.012 46.4208 178.355 46.7643 178.766 47.01C179.237 47.2564 179.764 47.377 180.296 47.36C180.844 47.3811 181.388 47.2605 181.876 47.01C182.28 46.7771 182.623 46.4515 182.876 46.06C183.146 45.6585 183.329 45.2057 183.416 44.73C183.616 43.703 183.616 42.647 183.416 41.62C183.328 41.1355 183.144 40.6732 182.876 40.26C182.617 39.8761 182.275 39.555 181.876 39.32C181.382 39.0786 180.835 38.9684 180.286 39C179.754 38.983 179.227 39.1036 178.756 39.35C178.348 39.5989 178.005 39.9417 177.756 40.35C177.477 40.7559 177.286 41.2158 177.196 41.7C177.086 42.2063 177.026 42.7221 177.016 43.24C177.034 43.715 177.098 44.1872 177.206 44.65Z" fill="#19191E"/>
</svg>
