<svg width="200" height="80" viewBox="0 0 200 80" fill="none" xmlns="http://www.w3.org/2000/svg">
<path d="M89.0086 48.9719V28.1441H86.4854V27.4829H102.362V34.6345H101.746C101.746 32.5369 101.403 30.9827 100.716 29.9719C99.8905 28.7559 98.5453 28.1466 96.6808 28.1441H92.4095V48.9719H95.2291V49.6331H86.4891V48.9719H89.0086Z" fill="#19191E"/>
<path d="M103.601 27.4829H112.341V28.1441H109.612L116.072 42.4055L120.172 31.5755C120.443 30.9369 120.595 30.2545 120.621 29.5615C120.621 28.6191 119.887 28.1441 118.421 28.1441V27.4829H124.056V28.1441C123.25 28.1441 122.669 28.3075 122.308 28.6343C121.838 29.1343 121.483 29.7309 121.267 30.3823L115.719 44.8223C114.389 48.2879 112.742 50.0207 110.779 50.0207C109.709 50.0285 108.671 49.6599 107.845 48.9795C107.405 48.6432 107.048 48.2095 106.804 47.7124C106.559 47.2153 106.433 46.6683 106.435 46.1143C106.435 44.7463 107.093 44.0661 108.404 44.0661C109.361 44.0661 109.84 44.6361 109.84 45.7761C109.817 46.2473 109.619 46.6929 109.285 47.0263C108.974 47.3125 108.776 47.7008 108.727 48.1207C108.756 48.2864 108.817 48.4446 108.908 48.5862C108.999 48.7278 109.117 48.8498 109.255 48.9453C109.627 49.2709 110.11 49.4409 110.604 49.4203C111.934 49.4203 113.117 48.4526 114.153 46.5171L105.862 28.1441H103.601V27.4829Z" fill="#19191E"/>
<path d="M132.971 48.9719V28.1441C128.335 28.1441 126.017 30.2556 126.017 34.4787H125.397V27.4829H144.017V34.4787H143.398C143.398 30.2582 141.09 28.1466 136.474 28.1441V48.9719H139.233V49.6331H130.212V48.9719H132.971Z" fill="#19191E"/>
<path d="M166.822 59C171.173 54.1018 174.11 46.2852 174.11 40.2926C174.11 36.2 172.921 28.809 166.822 21L166.043 21.38C169.657 27.5854 170.2 32.9472 170.2 40.2926C170.2 41.7708 170.28 52.6274 166.123 58.5326L166.822 59Z" fill="#19191E"/>
<path d="M156.941 56.0322C160.612 51.8978 163.09 45.32 163.09 40.247C163.09 36.7928 162.071 30.557 156.926 23.9678L156.272 24.2908C159.312 29.5272 159.78 34.0492 159.78 40.2508C159.78 41.4972 159.844 50.6552 156.337 55.6446L156.941 56.0322Z" fill="#19191E"/>
<path d="M148.327 53.0607C151.318 49.6977 153.347 44.3207 153.347 40.2015C153.347 37.3857 152.518 32.3051 148.327 26.9395L147.791 27.1979C150.276 31.4653 150.649 35.1513 150.649 40.2015C150.649 41.2161 150.702 48.6793 147.844 52.7415L148.327 53.0607Z" fill="#19191E"/>
<path d="M42.3868 42.2802H42.972L42.6794 49.6522H42.0942C42.1119 48.7529 41.7205 48.3019 40.92 48.2994C40.7047 48.2994 40.0485 48.5882 38.9516 49.1658C37.8681 49.7405 36.6593 50.0381 35.4328 50.0322C33.6759 50.0285 31.9745 49.4161 30.6182 48.2994C29.192 47.1728 28.0916 45.6868 27.43 43.994C26.9233 42.7273 26.67 41.0363 26.67 38.921C26.6345 37.1319 26.9136 35.3505 27.4946 33.658C28.1432 31.788 29.3062 30.139 30.85 28.9004C32.3368 27.7316 34.1801 27.1091 36.0712 27.1372C36.9699 27.1213 37.8615 27.2989 38.6856 27.6578C39.215 27.9374 39.7927 28.1141 40.388 28.1784C40.7062 28.2076 41.0239 28.117 41.279 27.9245C41.5341 27.732 41.7082 27.4513 41.7674 27.1372H42.383V34.3192H42.0904C41.6572 29.9289 39.7192 27.7351 36.2764 27.7376C35.587 27.7403 34.9051 27.8798 34.27 28.148C31.7848 29.1613 30.5435 31.8999 30.546 36.3636V41.9002C30.506 43.4117 30.806 44.9129 31.4238 46.293C31.7092 46.9531 32.1315 47.5452 32.6628 48.0299C33.194 48.5147 33.8222 48.8811 34.5056 49.105C35.0534 49.2972 35.6277 49.4036 36.208 49.4204C37.9104 49.4204 39.3291 48.6604 40.464 47.1404C41.471 45.6902 42.129 44.0268 42.3868 42.2802Z" fill="#19191E"/>
<path d="M50.6861 28.1441V48.9719H52.9661V49.6331H44.7581V48.9719H47.2813V28.1441H44.7581V27.4829H66.4447V28.1441H63.9101V48.9719H66.4371V49.6331H58.2101V48.9719H60.4673V28.1441H50.6861Z" fill="#19191E"/>
<path d="M79.8696 25.2144H80.1926C80.1926 27.084 79.8506 28.4912 79.1666 29.4362C78.4218 30.4242 77.2084 31.0334 75.5262 31.264C73.5908 31.5173 72.1822 31.8428 71.3006 32.2406C69.9326 32.8785 68.8495 34.0009 68.2606 35.3908C67.7914 36.4839 67.5707 37.6676 67.6146 38.8564V39.3922H68.1162C69.5222 36.3674 71.4881 34.855 74.0138 34.855C76.1646 34.855 77.862 35.5377 79.1058 36.9032C80.3497 38.2686 80.9704 40.1066 80.9678 42.417C80.9678 44.6438 80.3269 46.4665 79.045 47.8852C78.4128 48.5858 77.6347 49.1395 76.7654 49.5071C75.8962 49.8748 74.957 50.0475 74.0138 50.0132C73.2718 49.9957 72.5376 49.8571 71.8402 49.6028C70.0669 48.9948 68.747 47.4406 67.8806 44.9402C67.3642 43.2456 67.1268 41.4783 67.1776 39.7076C67.1776 34.7524 68.0276 31.4134 69.7274 29.6908C70.5207 28.922 71.5505 28.4439 72.6496 28.3342C74.8004 28.0428 76.0329 27.8541 76.347 27.768C78.0874 27.4108 79.1527 26.9269 79.5428 26.3164C79.7579 25.9892 79.8716 25.6059 79.8696 25.2144ZM70.628 40.0344V44.2144C70.628 45.913 70.8028 47.1252 71.1562 47.8586C71.6629 48.9074 72.6357 49.4318 74.0746 49.4318C75.468 49.4318 76.4306 48.8352 76.9626 47.642C77.3553 46.8009 77.5516 45.5532 77.5516 43.899V40.0002C77.6053 38.8861 77.3291 37.781 76.7574 36.8234C76.3599 36.2359 75.7736 35.8018 75.0956 35.5931C74.4177 35.3844 73.6888 35.4136 73.0296 35.6758C71.4362 36.2787 70.6394 37.7202 70.6394 40.0002L70.628 40.0344Z" fill="#19191E"/>
</svg>
