<svg width="80" height="80" viewBox="0 0 80 80" fill="none" xmlns="http://www.w3.org/2000/svg">
<path d="M39.9996 5.71436C58.9351 5.71436 74.2853 21.0646 74.2853 40.0001C74.2853 58.9355 58.9351 74.2858 39.9996 74.2858C21.0641 74.2858 5.71387 58.9355 5.71387 40.0001C5.71387 21.0646 21.0641 5.71436 39.9996 5.71436ZM39.9996 11.4286C24.22 11.4286 11.4282 24.2205 11.4282 40.0001C11.4282 55.7796 24.22 68.5715 39.9996 68.5715C55.7791 68.5715 68.571 55.7796 68.571 40.0001C68.571 24.2205 55.7791 11.4286 39.9996 11.4286ZM52.2567 29.4001C53.3725 28.2843 55.1981 28.2843 56.3139 29.4001C57.4296 30.5159 57.4296 32.3414 56.3139 33.4572L36.3056 53.4489C35.1898 54.5647 33.3808 54.5647 32.265 53.4489L22.265 43.4489C21.1492 42.3332 21.1492 40.5241 22.265 39.4083C23.3808 38.2926 25.1898 38.2926 26.3056 39.4083L34.2853 47.388L52.2567 29.4001Z" fill="#1A1A1A"/>
</svg>
